{
.appVersion = "1358";
classes = (
{
automatic = 1;

glyphs = (
{
glyphname = A;
lastChange = "2022-02-02 00:22:35 +0000";
layers = (
{
anchors = (
{
name = bottom;
position = "{576, 0}";
},
{
name = ogonek;
position = "{1120, 0}";
},
{
name = top;
position = "{576, 1474}";
}
);
guideLines = (
{
angle = 67.5;
position = "{-96, -200}";
}
);
layerId = "AB099EFE-E788-4EFC-8633-CF147CB782A6";
paths = (
{
closed = 1;
nodes = (
"32 0 LINE",
"98 0 LINE",
"268 496 LINE",
"280 518 LINE",
"572 1386 LINE",
"580 1386 LINE",
"872 518 LINE",
"884 496 LINE",
"1054 0 LINE",
"1120 0 LINE",
"612 1474 LINE",
"540 1474 LINE"
);
},
{
closed = 1;
nodes = (
"240 476 LINE",
"912 476 LINE",
"912 536 LINE",
"240 536 LINE"
);
}
);
width = 1152;
},
{
anchors = (
{
name = bottom;
position = "{576, 0}";
},
{
name = ogonek;
position = "{1160, 0}";
},
{
name = top;
position = "{576, 1474}";
}
);
guideLines = (
{
angle = 67.5;
position = "{-90, -200}";
}
);
layerId = "2D8F7115-C311-411E-929D-56333CF7FFB2";
paths = (
{
closed = 1;
nodes = (
"-8 0 LINE",
"362 0 LINE",
"440 360 LINE",
"466 504 LINE",
"572 1052 LINE",
"580 1052 LINE",
"686 504 LINE",
"712 360 LINE",
"790 0 LINE",
"1160 0 LINE",
"756 1474 LINE",
"396 1474 LINE"
);
},
{
closed = 1;
nodes = (
"284 270 LINE",
"868 270 LINE",
"868 570 LINE",
"284 570 LINE"
);
}
);
width = 1152;
},
{
anchors = (
{
name = bottom;
position = "{576, 0}";
},
{
name = ogonek;
position = "{1140, 0}";
},
{
name = top;
position = "{576, 1474}";
}
);
layerId = "FD1CEFBD-BAB1-4C2A-A598-30E93F9A29F6";
paths = (
{
closed = 1;
nodes = (
"12 0 LINE",
"202 0 LINE",
"336 440 LINE",
"354 504 LINE",
"572 1228 LINE",
"580 1228 LINE",
"798 504 LINE",
"816 440 LINE",
"950 0 LINE",
"1140 0 LINE",
"666 1474 LINE",
"486 1474 LINE"
);
},
{
closed = 1;
nodes = (
"254 386 LINE",
"898 386 LINE",
"898 550 LINE",
"254 550 LINE"
);
}
);
width = 1152;
}
);
unicode = 0041;
},
{
glyphname = AE;
lastChange = "2022-02-04 05:09:16 +0000";
layers = (
{
anchors = (
{
name = bottom;
position = "{734, 0}";
},
{
name = top;
position = "{758, 1474}";
}
);
layerId = "AB099EFE-E788-4EFC-8633-CF147CB782A6";
paths = (
{
closed = 1;
nodes = (
"10 0 LINE",
"76 0 LINE",
"258 496 LINE",
"266 516 LINE",
"576 1390 LINE",
"606 1390 LINE",
"606 1474 LINE",
"542 1474 LINE"
);
},
{
closed = 1;
nodes = (
"234 476 LINE",
"658 476 LINE",
"658 536 LINE",
"234 536 LINE"
);
},
{
closed = 1;
nodes = (
"642 1414 LINE",
"1132 1414 LINE",
"1132 1474 LINE",
"574 1474 LINE",
"627 520 LINE",
"628 500 LINE",
"654 0 LINE",
"1132 0 LINE",
"1132 60 LINE",
"716 60 LINE"
);
},
{
closed = 1;
nodes = (
"1068 726 LINE",
"1068 786 LINE",
"658 786 LINE",
"666 726 LINE"
);
}
);
width = 1152;
},
{
anchors = (
{
name = bottom;
position = "{722, 0}";
},
{
name = top;
position = "{716, 1474}";
}
);
background = {
components = (
{
name = A;
transform = "{1, 0, 0.03492, 1, -8, 0}";
}
);
};
layerId = "2D8F7115-C311-411E-929D-56333CF7FFB2";
paths = (
{
closed = 1;
nodes = (
"12 0 LINE",
"334 0 LINE",
"412 346 LINE",
"410 458 LINE",
"536 1176 LINE",
"650 1176 LINE",
"650 1474 LINE",
"340 1474 LINE"
);
},
{
closed = 1;
nodes = (
"268 286 LINE",
"734 286 LINE",
"734 568 LINE",
"268 568 LINE"
);
},
{
closed = 1;
nodes = (
"838 1168 LINE",
"1108 1168 LINE",
"1108 1474 LINE",
"560 1474 LINE",
"576 492 LINE",
"576 454 LINE",
"580 0 LINE",
"1108 0 LINE",
"1108 306 LINE",
"854 306 LINE"
);
},
{
closed = 1;
nodes = (
"1074 596 LINE",
"1074 892 LINE",
"822 892 LINE",
"822 596 LINE"
);
}
);
width = 1152;
},
{
anchors = (
{
name = bottom;
position = "{732, 0}";
},
{
name = top;
position = "{740, 1474}";
}
);
layerId = "FD1CEFBD-BAB1-4C2A-A598-30E93F9A29F6";
paths = (
{
closed = 1;
nodes = (
"8 0 LINE",
"186 0 LINE",
"310 452 LINE",
"324 514 LINE",
"542 1302 LINE",
"612 1302 LINE",
"612 1474 LINE",
"430 1474 LINE"
);
},
{
closed = 1;
nodes = (
"244 386 LINE",
"686 386 LINE",
"686 550 LINE",
"244 550 LINE"
);
},
{
closed = 1;
nodes = (
"722 1310 LINE",
"1120 1310 LINE",
"1120 1474 LINE",
"554 1474 LINE",
"586 522 LINE",
"586 484 LINE",
"604 0 LINE",
"1120 0 LINE",
"1120 164 LINE",
"762 164 LINE"
);
},
{
closed = 1;
nodes = (
"1078 668 LINE",
"1078 832 LINE",
"716 832 LINE",
"726 668 LINE"
);
}
);
width = 1152;
}
);
rightMetricsKey = E;
unicode = 00C6;
},
{
glyphname = B;
lastChange = "2021-12-21 05:15:43 +0000";
layers = (
{
anchors = (
{
name = bottom;
position = "{564, 0}";
},
{
name = center;
position = "{200, 422}";
},
{
name = top;
position = "{558, 1474}";
}
);
layerId = "AB099EFE-E788-4EFC-8633-CF147CB782A6";
paths = (
{
closed = 1;
nodes = (
"584 0 LINE SMOOTH",
"842 0 OFFCURVE",
"1012 156 OFFCURVE",
"1012 394 CURVE SMOOTH",
"1012 590 OFFCURVE",
"896 738 OFFCURVE",
"704 774 CURVE",
"704 762 LINE",
"832 824 OFFCURVE",
"906 954 OFFCURVE",
"906 1098 CURVE SMOOTH",
"906 1324 OFFCURVE",
"754 1474 OFFCURVE",
"546 1474 CURVE SMOOTH",
"186 1474 LINE",
"186 1414 LINE",
"546 1414 LINE SMOOTH",
"714 1414 OFFCURVE",
"842 1290 OFFCURVE",
"842 1098 CURVE SMOOTH",
"842 914 OFFCURVE",
"710 786 OFFCURVE",
"544 786 CURVE SMOOTH",
"186 786 LINE",
"186 726 LINE",
"584 726 LINE SMOOTH",
"804 726 OFFCURVE",
"948 598 OFFCURVE",
"948 394 CURVE SMOOTH",
"948 188 OFFCURVE",
"806 60 OFFCURVE",
"584 60 CURVE SMOOTH",
"220 60 LINE",
"220 0 LINE"
);
},
{
closed = 1;
nodes = (
"236 0 LINE",
"236 1474 LINE",
"172 1474 LINE",
"172 0 LINE"
);
}
);
width = 1152;
},
{
anchors = (
{
name = bottom;
position = "{610, 0}";
},
{
name = center;
position = "{246, 462}";
},
{
name = top;
position = "{538, 1474}";
}
);
layerId = "2D8F7115-C311-411E-929D-56333CF7FFB2";
paths = (
{
closed = 1;
nodes = (
"686 0 LINE SMOOTH",
"928 0 OFFCURVE",
"1112 176 OFFCURVE",
"1112 434 CURVE SMOOTH",
"1112 674 OFFCURVE",
"946 778 OFFCURVE",
"786 806 CURVE",
"786 716 LINE",
"906 766 OFFCURVE",
"1018 922 OFFCURVE",
"1018 1098 CURVE SMOOTH",
"1018 1312 OFFCURVE",
"858 1474 OFFCURVE",
"566 1474 CURVE SMOOTH",
"398 1474 LINE",
"398 1154 LINE",
"578 1154 LINE SMOOTH",
"637 1154 OFFCURVE",
"678 1099 OFFCURVE",
"678 1020 CURVE SMOOTH",
"678 937 OFFCURVE",
"637 880 OFFCURVE",
"578 880 CURVE SMOOTH",
"398 880 LINE",
"398 610 LINE",
"644 610 LINE SMOOTH",
"714 610 OFFCURVE",
"762 554 OFFCURVE",
"762 472 CURVE SMOOTH",
"762 382 OFFCURVE",
"714 320 OFFCURVE",
"644 320 CURVE SMOOTH",
"394 320 LINE",
"394 0 LINE"
);
},
{
closed = 1;
nodes = (
"424 0 LINE",
"424 1474 LINE",
"68 1474 LINE",
"68 0 LINE"
);
}
);
width = 1152;
},
{
anchors = (
{
name = bottom;
position = "{580, 0}";
},
{
name = center;
position = "{216, 426}";
},
{
name = top;
position = "{566, 1474}";
}
);
hints = (
{
horizontal = 1;
origin = "{0, 22}";
type = Delta;
settings = {
deltaV = {
"{100, 370, 0, 0, 0, 0}" = {
"12" = -1;
};
};
};
},
{
horizontal = 1;
origin = "{0, 23}";
type = Delta;
settings = {
deltaV = {
"{100, 370, 0, 0, 0, 0}" = {
"12" = -1;
};
};
};
},
{
horizontal = 1;
origin = "{0, 24}";
type = Delta;
settings = {
deltaV = {
"{100, 370, 0, 0, 0, 0}" = {
"12" = -1;
};
};
};
},
{
horizontal = 1;
origin = "{0, 25}";
type = Delta;
settings = {
deltaV = {
"{100, 370, 0, 0, 0, 0}" = {
"12" = -1;
};
};
};
},
{
horizontal = 1;
origin = "{0, 23, 1, 1}";
type = Delta;
settings = {
deltaV = {
"{100, 370, 0, 0, 0, 0}" = {
"12" = -1;
};
};
};
},
{
horizontal = 1;
origin = "{0, 25, 1, 1}";
type = Delta;
settings = {
deltaV = {
"{100, 370, 0, 0, 0, 0}" = {
"12" = -1;
};
};
};
}
);
layerId = "FD1CEFBD-BAB1-4C2A-A598-30E93F9A29F6";
paths = (
{
closed = 1;
nodes = (
"614 0 LINE SMOOTH",
"874 0 OFFCURVE",
"1048 168 OFFCURVE",
"1048 406 CURVE SMOOTH",
"1048 608 OFFCURVE",
"928 746 OFFCURVE",
"740 794 CURVE",
"738 750 LINE",
"854 794 OFFCURVE",
"950 938 OFFCURVE",
"950 1102 CURVE SMOOTH",
"950 1320 OFFCURVE",
"786 1474 OFFCURVE",
"530 1474 CURVE SMOOTH",
"268 1474 LINE",
"268 1310 LINE",
"536 1310 LINE SMOOTH",
"678 1310 OFFCURVE",
"776 1230 OFFCURVE",
"776 1078 CURVE SMOOTH",
"776 934 OFFCURVE",
"680 830 OFFCURVE",
"546 830 CURVE SMOOTH",
"268 830 LINE",
"268 670 LINE",
"600 670 LINE SMOOTH",
"762 670 OFFCURVE",
"870 578 OFFCURVE",
"870 418 CURVE SMOOTH",
"870 258 OFFCURVE",
"768 164 OFFCURVE",
"616 164 CURVE SMOOTH",
"288 164 LINE",
"288 0 LINE"
);
},
{
closed = 1;
nodes = (
"304 0 LINE",
"304 1474 LINE",
"128 1474 LINE",
"128 0 LINE"
);
}
);
width = 1152;
}
);
leftMetricsKey = H;
unicode = 0042;
},
{
glyphname = C;
lastChange = "2022-02-14 06:46:50 +0000";
layers = (
{
anchors = (
{
name = base;
position = "{718, 0}";
},
{
name = bottom;
position = "{686, 0}";
},
{
name = cedilla;
position = "{688, 0}";
},
{
name = top;
position = "{686, 1474}";
}
);
guideLines = (
{
angle = 67.5;
position = "{492, 360}";
},
{
angle = 112.5;
position = "{496, 360}";
}
);
layerId = "AB099EFE-E788-4EFC-8633-CF147CB782A6";
paths = (
{
closed = 1;
nodes = (
"822 -16 OFFCURVE",
"975 54 OFFCURVE",
"1064 156 CURVE",
"1036 220 LINE",
"966 116 OFFCURVE",
"824 44 OFFCURVE",
"688 44 CURVE SMOOTH",
"382 44 OFFCURVE",
"172 326 OFFCURVE",
"172 736 CURVE SMOOTH",
"172 1147 OFFCURVE",
"385 1430 OFFCURVE",
"696 1430 CURVE SMOOTH",
"822 1430 OFFCURVE",
"959 1366 OFFCURVE",
"1032 1272 CURVE",
"1060 1336 LINE",
"971 1427 OFFCURVE",
"822 1490 OFFCURVE",
"694 1490 CURVE SMOOTH",
"347 1490 OFFCURVE",
"108 1184 OFFCURVE",
"108 738 CURVE SMOOTH",
"108 291 OFFCURVE",
"343 -16 OFFCURVE",
"686 -16 CURVE SMOOTH"
);
}
);
width = 1152;
},
{
anchors = (
{
name = base;
position = "{712, 0}";
},
{
name = bottom;
position = "{706, 0}";
},
{
name = cedilla;
position = "{730, 0}";
},
{
name = top;
position = "{696, 1474}";
}
);
layerId = "2D8F7115-C311-411E-929D-56333CF7FFB2";
paths = (
{
closed = 1;
nodes = (
"857 -16 OFFCURVE",
"1001 29 OFFCURVE",
"1096 94 CURVE",
"960 422 LINE",
"916 362 OFFCURVE",
"826 320 OFFCURVE",
"740 320 CURVE SMOOTH",
"542 320 OFFCURVE",
"412 491 OFFCURVE",
"412 740 CURVE SMOOTH",
"412 985 OFFCURVE",
"536 1154 OFFCURVE",
"726 1154 CURVE SMOOTH",
"815 1154 OFFCURVE",
"909 1109 OFFCURVE",
"956 1044 CURVE",
"1092 1372 LINE",
"990 1442 OFFCURVE",
"840 1490 OFFCURVE",
"724 1490 CURVE SMOOTH",
"322 1490 OFFCURVE",
"52 1185 OFFCURVE",
"52 740 CURVE SMOOTH",
"52 292 OFFCURVE",
"329 -16 OFFCURVE",
"742 -16 CURVE SMOOTH"
);
}
);
width = 1152;
},
{
anchors = (
{
name = base;
position = "{718, 0}";
},
{
name = bottom;
position = "{696, 0}";
},
{
name = cedilla;
position = "{708, 0}";
},
{
name = top;
position = "{694, 1474}";
}
);
layerId = "FD1CEFBD-BAB1-4C2A-A598-30E93F9A29F6";
paths = (
{
closed = 1;
nodes = (
"838 -16 OFFCURVE",
"988 46 OFFCURVE",
"1084 136 CURVE",
"1018 294 LINE",
"954 208 OFFCURVE",
"830 148 OFFCURVE",
"714 148 CURVE SMOOTH",
"448 148 OFFCURVE",
"272 390 OFFCURVE",
"272 742 CURVE SMOOTH",
"272 1088 OFFCURVE",
"446 1326 OFFCURVE",
"712 1326 CURVE SMOOTH",
"832 1326 OFFCURVE",
"954 1266 OFFCURVE",
"1014 1192 CURVE",
"1080 1352 LINE",
"986 1434 OFFCURVE",
"832 1490 OFFCURVE",
"710 1490 CURVE SMOOTH",
"340 1490 OFFCURVE",
"92 1184 OFFCURVE",
"92 738 CURVE SMOOTH",
"92 290 OFFCURVE",
"340 -16 OFFCURVE",
"710 -16 CURVE SMOOTH"
);
}
);
width = 1152;
}
);
unicode = 0043;
},
{
glyphname = D;
lastChange = "2022-01-18 00:38:23 +0000";
layers = (
{
anchors = (
{
name = bottom;
position = "{570, 0}";
},
{
name = center;
position = "{192, 758}";
},
{
name = top;
position = "{566, 1474}";
}
);
layerId = "AB099EFE-E788-4EFC-8633-CF147CB782A6";
paths = (
{
closed = 1;
nodes = (
"160 0 LINE",
"512 0 LINE SMOOTH",
"831 0 OFFCURVE",
"1076 306 OFFCURVE",
"1076 752 CURVE SMOOTH",
"1076 1180 OFFCURVE",
"832 1474 OFFCURVE",
"514 1474 CURVE SMOOTH",
"160 1474 LINE"
);
},
{
closed = 1;
nodes = (
"224 60 LINE",
"224 1414 LINE",
"508 1414 LINE SMOOTH",
"793 1414 OFFCURVE",
"1012 1144 OFFCURVE",
"1012 752 CURVE SMOOTH",
"1012 342 OFFCURVE",
"793 60 OFFCURVE",
"508 60 CURVE SMOOTH"
);
}
);
width = 1152;
},
{
anchors = (
{
name = bottom;
position = "{548, 0}";
},
{
name = center;
position = "{266, 738}";
},
{
name = top;
position = "{552, 1474}";
}
);
layerId = "2D8F7115-C311-411E-929D-56333CF7FFB2";
paths = (
{
closed = 1;
nodes = (
"64 0 LINE",
"502 0 LINE SMOOTH",
"874 0 OFFCURVE",
"1092 304 OFFCURVE",
"1092 746 CURVE SMOOTH",
"1092 1178 OFFCURVE",
"862 1474 OFFCURVE",
"474 1474 CURVE SMOOTH",
"64 1474 LINE"
);
},
{
closed = 1;
nodes = (
"412 328 LINE",
"412 1146 LINE",
"516 1146 LINE SMOOTH",
"673 1146 OFFCURVE",
"744 983 OFFCURVE",
"744 746 CURVE SMOOTH",
"744 498 OFFCURVE",
"673 328 OFFCURVE",
"516 328 CURVE SMOOTH"
);
}
);
width = 1152;
},
{
anchors = (
{
name = bottom;
position = "{558, 0}";
},
{
name = center;
position = "{218, 750}";
},
{
name = top;
position = "{558, 1474}";
}
);
layerId = "FD1CEFBD-BAB1-4C2A-A598-30E93F9A29F6";
paths = (
{
closed = 1;
nodes = (
"124 0 LINE",
"508 0 LINE SMOOTH",
"842 0 OFFCURVE",
"1084 305 OFFCURVE",
"1084 750 CURVE SMOOTH",
"1084 1180 OFFCURVE",
"837 1476 OFFCURVE",
"496 1476 CURVE SMOOTH",
"124 1476 LINE"
);
},
{
closed = 1;
nodes = (
"304 164 LINE",
"304 1312 LINE",
"512 1312 LINE SMOOTH",
"737 1312 OFFCURVE",
"904 1083 OFFCURVE",
"904 750 CURVE SMOOTH",
"904 403 OFFCURVE",
"737 164 OFFCURVE",
"512 164 CURVE SMOOTH"
);
}
);
width = 1152;
}
);
leftMetricsKey = H;
unicode = 0044;
},
{
glyphname = DZcaron;
lastChange = "2022-02-04 03:20:04 +0000";
layers = (
{
layerId = "AB099EFE-E788-4EFC-8633-CF147CB782A6";
paths = (
{
closed = 1;
nodes = (
"262 0 LINE SMOOTH",
"460 0 OFFCURVE",
"594 274 OFFCURVE",
"594 752 CURVE SMOOTH",
"594 1211 OFFCURVE",
"460 1474 OFFCURVE",
"260 1474 CURVE SMOOTH",
"96 1474 LINE",
"96 0 LINE"
);
},
{
closed = 1;
nodes = (
"160 1414 LINE",
"248 1414 LINE SMOOTH",
"415 1414 OFFCURVE",
"530 1173 OFFCURVE",
"530 752 CURVE SMOOTH",
"530 312 OFFCURVE",
"415 60 OFFCURVE",
"248 60 CURVE SMOOTH",
"160 60 LINE"
);
},
{
closed = 1;
nodes = (
"1088 0 LINE",
"1088 60 LINE",
"706 60 LINE",
"706 64 LINE",
"1084 1438 LINE",
"1084 1474 LINE",
"654 1474 LINE",
"654 1414 LINE",
"1014 1414 LINE",
"1014 1410 LINE",
"634 36 LINE",
"634 0 LINE"
);
},
{
closed = 1;
nodes = (
"906 1540 LINE",
"1092 1750 LINE",
"1048 1788 LINE",
"894 1602 LINE",
"888 1602 LINE",
"732 1788 LINE",
"692 1750 LINE",
"876 1540 LINE"
);
}
);
width = 1152;
},
{
layerId = "2D8F7115-C311-411E-929D-56333CF7FFB2";
paths = (
{
closed = 1;
nodes = (
"294 0 LINE SMOOTH",
"506 0 OFFCURVE",
"628 272 OFFCURVE",
"628 746 CURVE SMOOTH",
"628 1209 OFFCURVE",
"495 1474 OFFCURVE",
"264 1474 CURVE SMOOTH",
"38 1474 LINE",
"38 0 LINE"
);
},
{
closed = 1;
nodes = (
"286 1146 LINE",
"310 1146 LINE SMOOTH",
"353 1146 OFFCURVE",
"378 1000 OFFCURVE",
"378 746 CURVE SMOOTH",
"378 480 OFFCURVE",
"353 328 OFFCURVE",
"310 328 CURVE SMOOTH",
"286 328 LINE"
);
},
{
closed = 1;
nodes = (
"1128 0 LINE",
"1128 324 LINE",
"906 324 LINE",
"906 328 LINE",
"1136 1422 LINE",
"1136 1474 LINE",
"628 1474 LINE",
"628 1150 LINE",
"818 1150 LINE",
"818 1146 LINE",
"594 50 LINE",
"594 0 LINE"
);
},
{
closed = 1;
nodes = (
"876 1544 LINE",
"1122 1798 LINE",
"984 1958 LINE",
"848 1774 LINE",
"850 1774 LINE",
"728 1958 LINE",
"580 1798 LINE",
"824 1544 LINE"
);
}
);
width = 1152;
},
{
layerId = "FD1CEFBD-BAB1-4C2A-A598-30E93F9A29F6";
paths = (
{
closed = 1;
nodes = (
"276 0 LINE SMOOTH",
"478 0 OFFCURVE",
"600 276 OFFCURVE",
"600 750 CURVE SMOOTH",
"600 1208 OFFCURVE",
"474 1474 OFFCURVE",
"260 1474 CURVE SMOOTH",
"68 1474 LINE",
"68 0 LINE"
);
},
{
closed = 1;
nodes = (
"216 1324 LINE",
"266 1324 LINE SMOOTH",
"378 1324 OFFCURVE",
"452 1106 OFFCURVE",
"452 748 CURVE SMOOTH",
"452 372 OFFCURVE",
"378 150 OFFCURVE",
"266 150 CURVE SMOOTH",
"216 150 LINE"
);
},
{
closed = 1;
nodes = (
"1090 0 LINE",
"1090 150 LINE",
"792 150 LINE",
"792 154 LINE",
"1100 1424 LINE",
"1100 1474 LINE",
"642 1474 LINE",
"642 1324 LINE",
"924 1324 LINE",
"924 1320 LINE",
"612 42 LINE",
"612 0 LINE"
);
},
{
closed = 1;
nodes = (
"888 1542 LINE",
"1098 1770 LINE",
"1012 1848 LINE",
"872 1680 LINE",
"866 1680 LINE",
"726 1848 LINE",
"640 1770 LINE",
"850 1542 LINE"
);
}
);
width = 1152;
}
);
leftKerningGroup = LAT_H_UC;
rightKerningGroup = LAT_Z_UC;
unicode = 01C4;
},
{
glyphname = Dzcaron;
lastChange = "2022-02-04 04:40:37 +0000";
layers = (
{
layerId = "AB099EFE-E788-4EFC-8633-CF147CB782A6";
paths = (
{
closed = 1;
nodes = (
"262 0 LINE SMOOTH",
"460 0 OFFCURVE",
"594 274 OFFCURVE",
"594 752 CURVE SMOOTH",
"594 1211 OFFCURVE",
"460 1474 OFFCURVE",
"260 1474 CURVE SMOOTH",
"96 1474 LINE",
"96 0 LINE"
);
},
{
closed = 1;
nodes = (
"160 1414 LINE",
"248 1414 LINE SMOOTH",
"415 1414 OFFCURVE",
"530 1173 OFFCURVE",
"530 752 CURVE SMOOTH",
"530 312 OFFCURVE",
"415 60 OFFCURVE",
"248 60 CURVE SMOOTH",
"160 60 LINE"
);
},
{
closed = 1;
nodes = (
"1088 0 LINE",
"1088 56 LINE",
"706 56 LINE",
"706 60 LINE",
"1078 1014 LINE",
"1078 1048 LINE",
"654 1048 LINE",
"654 992 LINE",
"1012 992 LINE",
"1012 988 LINE",
"638 30 LINE",
"638 0 LINE"
);
},
{
closed = 1;
nodes = (
"886 1264 LINE",
"1088 1474 LINE",
"1048 1512 LINE",
"874 1326 LINE",
"868 1326 LINE",
"692 1512 LINE",
"656 1474 LINE",
"856 1264 LINE"
);
}
);
width = 1152;
},
{
layerId = "2D8F7115-C311-411E-929D-56333CF7FFB2";
paths = (
{
closed = 1;
nodes = (
"294 0 LINE SMOOTH",
"506 0 OFFCURVE",
"628 272 OFFCURVE",
"628 746 CURVE SMOOTH",
"628 1209 OFFCURVE",
"495 1474 OFFCURVE",
"264 1474 CURVE SMOOTH",
"38 1474 LINE",
"38 0 LINE"
);
},
{
closed = 1;
nodes = (
"286 1146 LINE",
"310 1146 LINE SMOOTH",
"353 1146 OFFCURVE",
"378 1000 OFFCURVE",
"378 746 CURVE SMOOTH",
"378 480 OFFCURVE",
"353 328 OFFCURVE",
"310 328 CURVE SMOOTH",
"286 328 LINE"
);
},
{
closed = 1;
nodes = (
"1114 0 LINE",
"1114 240 LINE",
"892 240 LINE",
"892 246 LINE",
"1122 1028 LINE",
"1122 1080 LINE",
"660 1080 LINE",
"660 840 LINE",
"840 840 LINE",
"840 834 LINE",
"608 52 LINE",
"608 0 LINE"
);
},
{
closed = 1;
nodes = (
"900 1142 LINE",
"1144 1406 LINE",
"1032 1556 LINE",
"876 1362 LINE",
"872 1362 LINE",
"716 1556 LINE",
"604 1406 LINE",
"848 1142 LINE"
);
}
);
width = 1152;
},
{
layerId = "FD1CEFBD-BAB1-4C2A-A598-30E93F9A29F6";
paths = (
{
closed = 1;
nodes = (
"276 0 LINE SMOOTH",
"478 0 OFFCURVE",
"600 276 OFFCURVE",
"600 750 CURVE SMOOTH",
"600 1208 OFFCURVE",
"474 1474 OFFCURVE",
"260 1474 CURVE SMOOTH",
"68 1474 LINE",
"68 0 LINE"
);
},
{
closed = 1;
nodes = (
"216 1324 LINE",
"266 1324 LINE SMOOTH",
"378 1324 OFFCURVE",
"452 1100 OFFCURVE",
"452 742 CURVE SMOOTH",
"452 366 OFFCURVE",
"378 150 OFFCURVE",
"266 150 CURVE SMOOTH",
"216 150 LINE"
);
},
{
closed = 1;
nodes = (
"1090 0 LINE",
"1090 142 LINE",
"792 142 LINE",
"792 146 LINE",
"1102 1008 LINE",
"1102 1058 LINE",
"660 1058 LINE",
"660 916 LINE",
"926 916 LINE",
"926 912 LINE",
"614 42 LINE",
"614 0 LINE"
);
},
{
closed = 1;
nodes = (
"886 1244 LINE",
"1110 1472 LINE",
"1040 1550 LINE",
"868 1368 LINE",
"864 1368 LINE",
"692 1550 LINE",
"622 1472 LINE",
"846 1244 LINE"
);
}
);
width = 1152;
}
);
leftKerningGroup = LAT_D_UC;
rightKerningGroup = LAT_Z_LC;
unicode = 01C5;
},
{
glyphname = E;
lastChange = "2021-12-21 04:42:31 +0000";
layers = (
{
anchors = (
{
name = bottom;
position = "{620, 0}";
},
{
name = cedilla;
position = "{610, 0}";
},
{
name = ogonek;
position = "{988, 0}";
},
{
name = top;
position = "{610, 1474}";
},
{
name = topleft;
position = "{68, 1474}";
}
);
hints = (
{
horizontal = 1;
origin = "{0, 0}";
target = "{0, 3}";
type = TTStem;
options = 4;
},
{
horizontal = 1;
origin = "{0, 4}";
target = "{0, 7}";
type = TTStem;
options = 1;
},
{
horizontal = 1;
origin = "{0, 11}";
target = "{0, 8}";
type = TTStem;
options = 4;
},
{
horizontal = 1;
origin = "{0, 5}";
type = Anchor;
options = 1;
},
{
horizontal = 1;
origin = "{0, 4}";
type = Anchor;
options = 1;
},
{
horizontal = 1;
origin = "{0, 5}";
type = Anchor;
options = 1;
},
{
horizontal = 1;
origin = "{0, 6}";
type = Anchor;
options = 1;
},
{
horizontal = 1;
origin = "{0, 7}";
type = Anchor;
options = 1;
}
);
layerId = "AB099EFE-E788-4EFC-8633-CF147CB782A6";
paths = (
{
closed = 1;
nodes = (
"230 0 LINE",
"988 0 LINE",
"988 60 LINE",
"294 60 LINE",
"294 726 LINE",
"890 726 LINE",
"890 786 LINE",
"294 786 LINE",
"294 1414 LINE",
"988 1414 LINE",
"988 1474 LINE",
"230 1474 LINE"
);
}
);
width = 1152;
},
{
anchors = (
{
name = bottom;
position = "{616, 0}";
},
{
name = cedilla;
position = "{612, 0}";
},
{
name = ogonek;
position = "{1042, 0}";
},
{
name = top;
position = "{612, 1474}";
},
{
name = topleft;
position = "{48, 1474}";
}
);
hints = (
{
horizontal = 1;
origin = "{0, 0}";
target = "{0, 3}";
type = TTStem;
options = 4;
},
{
horizontal = 1;
origin = "{0, 4}";
target = "{0, 7}";
type = TTStem;
options = 1;
},
{
horizontal = 1;
origin = "{0, 11}";
target = "{0, 8}";
type = TTStem;
options = 4;
},
{
horizontal = 1;
origin = "{0, 5}";
type = Anchor;
options = 1;
},
{
horizontal = 1;
origin = "{0, 4}";
type = Anchor;
options = 1;
},
{
horizontal = 1;
origin = "{0, 5}";
type = Anchor;
options = 1;
},
{
horizontal = 1;
origin = "{0, 6}";
type = Anchor;
options = 1;
},
{
horizontal = 1;
origin = "{0, 7}";
type = Anchor;
options = 1;
}
);
layerId = "2D8F7115-C311-411E-929D-56333CF7FFB2";
paths = (
{
closed = 1;
nodes = (
"154 0 LINE",
"1046 0 LINE",
"1046 328 LINE",
"522 328 LINE",
"522 586 LINE",
"956 586 LINE",
"956 902 LINE",
"522 902 LINE",
"522 1146 LINE",
"1046 1146 LINE",
"1046 1474 LINE",
"154 1474 LINE"
);
}
);
width = 1152;
},
{
anchors = (
{
name = bottom;
position = "{618, 0}";
},
{
name = cedilla;
position = "{608, 0}";
},
{
name = ogonek;
position = "{1006, 0}";
},
{
name = top;
position = "{608, 1474}";
},
{
name = topleft;
position = "{54, 1474}";
}
);
hints = (
{
horizontal = 1;
origin = "{0, 0}";
target = "{0, 3}";
type = TTStem;
options = 4;
},
{
horizontal = 1;
origin = "{0, 4}";
target = "{0, 7}";
type = TTStem;
options = 1;
},
{
horizontal = 1;
origin = "{0, 11}";
target = "{0, 8}";
type = TTStem;
options = 4;
},
{
horizontal = 1;
origin = "{0, 5}";
type = Anchor;
options = 1;
},
{
horizontal = 1;
origin = "{0, 4}";
type = Anchor;
options = 1;
},
{
horizontal = 1;
origin = "{0, 5}";
type = Anchor;
options = 1;
},
{
horizontal = 1;
origin = "{0, 6}";
type = Anchor;
options = 1;
},
{
horizontal = 1;
origin = "{0, 7}";
type = Anchor;
options = 1;
}
);
layerId = "FD1CEFBD-BAB1-4C2A-A598-30E93F9A29F6";
paths = (
{
closed = 1;
nodes = (
"196 0 LINE",
"1008 0 LINE",
"1008 164 LINE",
"376 164 LINE",
"376 668 LINE",
"910 668 LINE",
"910 832 LINE",
"376 832 LINE",
"376 1310 LINE",
"1008 1310 LINE",
"1008 1474 LINE",
"196 1474 LINE"
);
}
);
width = 1152;
}
);
leftMetricsKey = H;
unicode = 0045;
},
{
glyphname = F;
lastChange = "2021-12-21 04:19:40 +0000";
layers = (
{
anchors = (
{
name = bottom;
position = "{286, 0}";
},
{
name = center;
position = "{286, 376}";
},
{
name = top;
position = "{682, 1474}";
}
);
layerId = "AB099EFE-E788-4EFC-8633-CF147CB782A6";
paths = (
{
closed = 1;
nodes = (
"254 0 LINE",
"318 0 LINE",
"318 726 LINE",
"952 726 LINE",
"952 786 LINE",
"318 786 LINE",
"318 1414 LINE",
"1036 1414 LINE",
"1036 1474 LINE",
"254 1474 LINE"
);
}
);
width = 1152;
},
{
anchors = (
{
name = bottom;
position = "{360, 0}";
},
{
name = center;
position = "{360, 290}";
},
{
name = top;
position = "{688, 1474}";
}
);
layerId = "2D8F7115-C311-411E-929D-56333CF7FFB2";
paths = (
{
closed = 1;
nodes = (
"166 0 LINE",
"534 0 LINE",
"534 524 LINE",
"986 524 LINE",
"986 852 LINE",
"534 852 LINE",
"534 1146 LINE",
"1078 1146 LINE",
"1078 1474 LINE",
"166 1474 LINE"
);
}
);
width = 1152;
},
{
anchors = (
{
name = bottom;
position = "{312, 0}";
},
{
name = center;
position = "{312, 344}";
},
{
name = top;
position = "{684, 1474}";
}
);
layerId = "FD1CEFBD-BAB1-4C2A-A598-30E93F9A29F6";
paths = (
{
closed = 1;
nodes = (
"220 0 LINE",
"400 0 LINE",
"400 646 LINE",
"968 646 LINE",
"968 810 LINE",
"400 810 LINE",
"400 1310 LINE",
"1058 1310 LINE",
"1058 1474 LINE",
"220 1474 LINE"
);
}
);
width = 1152;
}
);
leftMetricsKey = H;
unicode = 0046;
},
{
glyphname = G;
lastChange = "2022-02-04 03:53:57 +0000";
layers = (
{
anchors = (
{
name = bottom;
position = "{642, 0}";
},
{
name = hook;
position = "{1038, 1336}";
},
{
name = top;
position = "{640, 1474}";
}
);
layerId = "AB099EFE-E788-4EFC-8633-CF147CB782A6";
paths = (
{
closed = 1;
nodes = (
"945 127 OFFCURVE",
"812 44 OFFCURVE",
"668 44 CURVE SMOOTH",
"362 44 OFFCURVE",
"152 326 OFFCURVE",
"152 736 CURVE SMOOTH",
"152 1147 OFFCURVE",
"365 1430 OFFCURVE",
"676 1430 CURVE SMOOTH",
"802 1430 OFFCURVE",
"939 1366 OFFCURVE",
"1012 1272 CURVE",
"1040 1336 LINE",
"951 1427 OFFCURVE",
"802 1490 OFFCURVE",
"674 1490 CURVE SMOOTH",
"327 1490 OFFCURVE",
"88 1184 OFFCURVE",
"88 738 CURVE SMOOTH",
"88 291 OFFCURVE",
"323 -16 OFFCURVE",
"666 -16 CURVE SMOOTH",
"820 -16 OFFCURVE",
"974 70 OFFCURVE",
"1044 196 CURVE",
"1044 758 LINE",
"574 758 LINE",
"574 698 LINE",
"980 698 LINE",
"980 202 LINE",
"994 242 LINE"
);
}
);
width = 1152;
},
{
anchors = (
{
name = bottom;
position = "{644, 0}";
},
{
name = hook;
position = "{1088, 1372}";
},
{
name = top;
position = "{648, 1474}";
}
);
layerId = "2D8F7115-C311-411E-929D-56333CF7FFB2";
paths = (
{
closed = 1;
nodes = (
"796 338 OFFCURVE",
"744 320 OFFCURVE",
"680 320 CURVE SMOOTH",
"478 320 OFFCURVE",
"388 500 OFFCURVE",
"388 726 CURVE SMOOTH",
"388 992 OFFCURVE",
"514 1154 OFFCURVE",
"696 1154 CURVE SMOOTH",
"794 1154 OFFCURVE",
"906 1108 OFFCURVE",
"952 1044 CURVE",
"1088 1372 LINE",
"976 1446 OFFCURVE",
"844 1490 OFFCURVE",
"702 1490 CURVE SMOOTH",
"328 1490 OFFCURVE",
"48 1190 OFFCURVE",
"48 730 CURVE SMOOTH",
"48 298 OFFCURVE",
"294 -16 OFFCURVE",
"674 -16 CURVE SMOOTH",
"842 -16 OFFCURVE",
"990 46 OFFCURVE",
"1092 146 CURVE",
"1092 872 LINE",
"600 872 LINE",
"600 572 LINE",
"772 572 LINE",
"772 272 LINE",
"828 364 LINE"
);
}
);
width = 1152;
},
{
anchors = (
{
name = bottom;
position = "{626, 0}";
},
{
name = hook;
position = "{1054, 1352}";
},
{
name = top;
position = "{620, 1474}";
}
);
background = {
components = (
{
name = O;
}
);
};
layerId = "FD1CEFBD-BAB1-4C2A-A598-30E93F9A29F6";
paths = (
{
closed = 1;
nodes = (
"852 202 OFFCURVE",
"778 148 OFFCURVE",
"660 148 CURVE SMOOTH",
"412 148 OFFCURVE",
"244 388 OFFCURVE",
"244 734 CURVE SMOOTH",
"244 1090 OFFCURVE",
"420 1326 OFFCURVE",
"680 1326 CURVE SMOOTH",
"812 1326 OFFCURVE",
"926 1264 OFFCURVE",
"986 1192 CURVE",
"1052 1352 LINE",
"950 1438 OFFCURVE",
"810 1490 OFFCURVE",
"666 1490 CURVE SMOOTH",
"320 1490 OFFCURVE",
"64 1188 OFFCURVE",
"64 730 CURVE SMOOTH",
"64 290 OFFCURVE",
"302 -16 OFFCURVE",
"644 -16 CURVE SMOOTH",
"814 -16 OFFCURVE",
"970 60 OFFCURVE",
"1056 176 CURVE",
"1056 802 LINE",
"574 802 LINE",
"574 638 LINE",
"876 638 LINE",
"876 218 LINE",
"898 266 LINE"
);
}
);
width = 1152;
}
);
unicode = 0047;
},
{
glyphname = H;
lastChange = "2021-12-20 06:20:02 +0000";
layers = (
{
anchors = (
{
name = bottom;
position = "{572, 0}";
},
{
name = center;
position = "{572, 1086}";
},
{
name = top;
position = "{572, 1474}";
}
);
layerId = "AB099EFE-E788-4EFC-8633-CF147CB782A6";
paths = (
{
closed = 1;
nodes = (
"160 0 LINE",
"224 0 LINE",
"224 726 LINE",
"928 726 LINE",
"928 0 LINE",
"992 0 LINE",
"992 1474 LINE",
"928 1474 LINE",
"928 786 LINE",
"224 786 LINE",
"224 1474 LINE",
"160 1474 LINE"
);
}
);
width = 1152;
},
{
anchors = (
{
name = bottom;
position = "{576, 0}";
},
{
name = center;
position = "{576, 1184}";
},
{
name = top;
position = "{576, 1474}";
}
);
layerId = "2D8F7115-C311-411E-929D-56333CF7FFB2";
paths = (
{
closed = 1;
nodes = (
"64 0 LINE",
"424 0 LINE",
"424 578 LINE",
"728 578 LINE",
"728 0 LINE",
"1088 0 LINE",
"1088 1474 LINE",
"728 1474 LINE",
"728 906 LINE",
"424 906 LINE",
"424 1474 LINE",
"64 1474 LINE"
);
}
);
width = 1152;
},
{
anchors = (
{
name = bottom;
position = "{578, 0}";
},
{
name = center;
position = "{578, 1122}";
},
{
name = top;
position = "{578, 1474}";
}
);
layerId = "FD1CEFBD-BAB1-4C2A-A598-30E93F9A29F6";
paths = (
{
closed = 1;
nodes = (
"124 0 LINE",
"304 0 LINE",
"304 672 LINE",
"848 672 LINE",
"848 0 LINE",
"1028 0 LINE",
"1028 1474 LINE",
"848 1474 LINE",
"848 836 LINE",
"304 836 LINE",
"304 1474 LINE",
"124 1474 LINE"
);
}
);
width = 1152;
}
);
unicode = 0048;
},
{
color = 10;
glyphname = I.ss03;
lastChange = "2022-02-03 00:34:01 +0000";
layers = (
{
anchors = (
{
name = bottom;
position = "{570, 0}";
},
{
name = ogonek;
position = "{968, 0}";
},
{
name = top;
position = "{570, 1474}";
}
);
layerId = "AB099EFE-E788-4EFC-8633-CF147CB782A6";
paths = (
{
closed = 1;
nodes = (
"544 0 LINE",
"608 0 LINE",
"608 1474 LINE",
"544 1474 LINE"
);
},
{
closed = 1;
nodes = (
"184 1416 LINE",
"968 1416 LINE",
"968 1474 LINE",
"184 1474 LINE"
);
},
{
closed = 1;
nodes = (
"184 0 LINE",
"968 0 LINE",
"968 60 LINE",
"184 60 LINE"
);
}
);
width = 1152;
},
{
anchors = (
{
name = bottom;
position = "{576, 0}";
},
{
name = ogonek;
position = "{1010, 0}";
},
{
name = top;
position = "{576, 1474}";
}
);
layerId = "2D8F7115-C311-411E-929D-56333CF7FFB2";
paths = (
{
closed = 1;
nodes = (
"392 0 LINE",
"760 0 LINE",
"760 1474 LINE",
"392 1474 LINE"
);
},
{
closed = 1;
nodes = (
"120 1154 LINE",
"1032 1154 LINE",
"1032 1474 LINE",
"120 1474 LINE"
);
},
{
closed = 1;
nodes = (
"120 0 LINE",
"1032 0 LINE",
"1032 320 LINE",
"120 320 LINE"
);
}
);
width = 1152;
},
{
anchors = (
{
name = bottom;
position = "{574, 0}";
},
{
name = ogonek;
position = "{964, 0}";
},
{
name = top;
position = "{574, 1474}";
}
);
layerId = "FD1CEFBD-BAB1-4C2A-A598-30E93F9A29F6";
paths = (
{
closed = 1;
nodes = (
"486 0 LINE",
"666 0 LINE",
"666 1474 LINE",
"486 1474 LINE"
);
},
{
closed = 1;
nodes = (
"180 1314 LINE",
"972 1314 LINE",
"972 1474 LINE",
"180 1474 LINE"
);
},
{
closed = 1;
nodes = (
"180 0 LINE",
"972 0 LINE",
"972 160 LINE",
"180 160 LINE"
);
}
);
width = 1152;
}
);
},
{
glyphname = J;
lastChange = "2021-12-20 06:18:11 +0000";
layers = (
{
anchors = (
{
name = bottom;
position = "{522, 0}";
},
{
name = top;
position = "{816, 1474}";
}
);
layerId = "AB099EFE-E788-4EFC-8633-CF147CB782A6";
paths = (
{
closed = 1;
nodes = (
"802 152 OFFCURVE",
"648 44 OFFCURVE",
"468 44 CURVE SMOOTH",
"278 44 OFFCURVE",
"150 166 OFFCURVE",
"148 346 CURVE",
"86 346 LINE",
"90 142 OFFCURVE",
"236 -16 OFFCURVE",
"468 -16 CURVE SMOOTH",
"688 -16 OFFCURVE",
"866 124 OFFCURVE",
"866 434 CURVE SMOOTH",
"866 1474 LINE",
"802 1474 LINE",
"802 430 LINE SMOOTH"
);
}
);
width = 1152;
},
{
anchors = (
{
name = bottom;
position = "{570, 0}";
},
{
name = top;
position = "{804, 1474}";
}
);
layerId = "2D8F7115-C311-411E-929D-56333CF7FFB2";
paths = (
{
closed = 1;
nodes = (
"622 374 OFFCURVE",
"574 312 OFFCURVE",
"504 312 CURVE SMOOTH",
"432 312 OFFCURVE",
"378 382 OFFCURVE",
"378 496 CURVE",
"24 496 LINE",
"22 196 OFFCURVE",
"206 -16 OFFCURVE",
"512 -16 CURVE SMOOTH",
"806 -16 OFFCURVE",
"1000 172 OFFCURVE",
"1000 466 CURVE SMOOTH",
"1000 1474 LINE",
"622 1474 LINE",
"622 462 LINE SMOOTH"
);
}
);
width = 1152;
},
{
anchors = (
{
name = bottom;
position = "{530, 0}";
},
{
name = top;
position = "{818, 1474}";
}
);
layerId = "FD1CEFBD-BAB1-4C2A-A598-30E93F9A29F6";
paths = (
{
closed = 1;
nodes = (
"738 240 OFFCURVE",
"624 148 OFFCURVE",
"482 148 CURVE SMOOTH",
"332 148 OFFCURVE",
"240 250 OFFCURVE",
"236 406 CURVE",
"60 406 LINE",
"64 156 OFFCURVE",
"230 -16 OFFCURVE",
"486 -16 CURVE SMOOTH",
"730 -16 OFFCURVE",
"920 138 OFFCURVE",
"920 446 CURVE SMOOTH",
"920 1474 LINE",
"738 1474 LINE",
"738 442 LINE SMOOTH"
);
}
);
width = 1152;
}
);
rightMetricsKey = H;
unicode = 004A;
},
{
glyphname = K;
lastChange = "2021-12-20 06:18:11 +0000";
layers = (
{
anchors = (
{
name = bottom;
position = "{600, 0}";
},
{
name = top;
position = "{602, 1474}";
}
);
layerId = "AB099EFE-E788-4EFC-8633-CF147CB782A6";
paths = (
{
closed = 1;
nodes = (
"270 0 LINE",
"270 708 LINE",
"304 708 LINE",
"266 734 LINE",
"982 0 LINE",
"1072 0 LINE",
"326 762 LINE",
"326 716 LINE",
"1026 1474 LINE",
"936 1474 LINE",
"266 742 LINE",
"304 766 LINE",
"270 766 LINE",
"270 1474 LINE",
"206 1474 LINE",
"206 0 LINE"
);
}
);
width = 1152;
},
{
anchors = (
{
name = bottom;
position = "{598, 0}";
},
{
name = top;
position = "{560, 1474}";
}
);
guideLines = (
{
angle = 120;
position = "{650, 0}";
}
);
layerId = "2D8F7115-C311-411E-929D-56333CF7FFB2";
paths = (
{
closed = 1;
nodes = (
"430 0 LINE",
"430 638 LINE",
"510 638 LINE",
"400 692 LINE",
"776 0 LINE",
"1192 0 LINE",
"698 848 LINE",
"698 648 LINE",
"1184 1474 LINE",
"766 1474 LINE",
"400 774 LINE",
"510 828 LINE",
"430 828 LINE",
"430 1474 LINE",
"80 1474 LINE",
"80 0 LINE"
);
}
);
width = 1152;
},
{
anchors = (
{
name = bottom;
position = "{600, 0}";
},
{
name = top;
position = "{582, 1474}";
}
);
layerId = "FD1CEFBD-BAB1-4C2A-A598-30E93F9A29F6";
paths = (
{
closed = 1;
nodes = (
"334 0 LINE",
"334 684 LINE",
"386 684 LINE",
"312 716 LINE",
"894 0 LINE",
"1122 0 LINE",
"480 782 LINE",
"480 692 LINE",
"1088 1474 LINE",
"864 1474 LINE",
"312 754 LINE",
"386 790 LINE",
"334 790 LINE",
"334 1474 LINE",
"156 1474 LINE",
"156 0 LINE"
);
}
);
width = 1152;
}
);
leftMetricsKey = H;
unicode = 004B;
},
{
glyphname = L;
lastChange = "2022-02-07 23:14:19 +0000";
layers = (
{
anchors = (
{
name = bottom;
position = "{678, 0}";
},
{
name = center;
position = "{292, 738}";
},
{
name = dot;
position = "{788, 738}";
},
{
name = top;
position = "{292, 1474}";
},
{
name = topright;
position = "{862, 1474}";
}
);
layerId = "AB099EFE-E788-4EFC-8633-CF147CB782A6";
paths = (
{
closed = 1;
nodes = (
"260 0 LINE",
"1040 0 LINE",
"1040 60 LINE",
"324 60 LINE",
"324 1474 LINE",
"260 1474 LINE"
);
}
);
width = 1152;
},
{
anchors = (
{
name = bottom;
position = "{614, 0}";
},
{
name = center;
position = "{352, 758}";
},
{
name = dot;
position = "{850, 754}";
},
{
name = top;
position = "{352, 1474}";
},
{
name = topright;
position = "{690, 1474}";
}
);
layerId = "2D8F7115-C311-411E-929D-56333CF7FFB2";
paths = (
{
closed = 1;
nodes = (
"168 0 LINE",
"1060 0 LINE",
"1060 328 LINE",
"536 328 LINE",
"536 1474 LINE",
"168 1474 LINE"
);
}
);
width = 1152;
},
{
anchors = (
{
name = bottom;
position = "{652, 0}";
},
{
name = center;
position = "{310, 746}";
},
{
name = dot;
position = "{816, 746}";
},
{
name = top;
position = "{312, 1474}";
},
{
name = topright;
position = "{784, 1474}";
}
);
layerId = "FD1CEFBD-BAB1-4C2A-A598-30E93F9A29F6";
paths = (
{
closed = 1;
nodes = (
"220 0 LINE",
"1044 0 LINE",
"1044 164 LINE",
"400 164 LINE",
"400 1474 LINE",
"220 1474 LINE"
);
}
);
width = 1152;
}
);
unicode = 004C;
},
{
glyphname = LJ;
lastChange = "2022-02-04 03:19:48 +0000";
layers = (
{
layerId = "AB099EFE-E788-4EFC-8633-CF147CB782A6";
paths = (
{
closed = 1;
nodes = (
"986 -16 OFFCURVE",
"1068 118 OFFCURVE",
"1068 368 CURVE SMOOTH",
"1068 1474 LINE",
"1004 1474 LINE",
"1004 364 LINE SMOOTH",
"1004 156 OFFCURVE",
"943 44 OFFCURVE",
"834 44 CURVE SMOOTH",
"724 44 OFFCURVE",
"664 150 OFFCURVE",
"662 346 CURVE",
"598 346 LINE",
"600 111 OFFCURVE",
"683 -16 OFFCURVE",
"834 -16 CURVE SMOOTH"
);
},
{
closed = 1;
nodes = (
"520 0 LINE",
"520 60 LINE",
"196 60 LINE",
"196 1474 LINE",
"132 1474 LINE",
"132 0 LINE"
);
}
);
width = 1152;
},
{
layerId = "2D8F7115-C311-411E-929D-56333CF7FFB2";
paths = (
{
closed = 1;
nodes = (
"1000 -16 OFFCURVE",
"1100 158 OFFCURVE",
"1100 484 CURVE SMOOTH",
"1100 1474 LINE",
"840 1474 LINE",
"840 480 LINE SMOOTH",
"840 310 OFFCURVE",
"824 264 OFFCURVE",
"794 264 CURVE SMOOTH",
"766 264 OFFCURVE",
"754 310 OFFCURVE",
"756 488 CURVE",
"504 488 LINE",
"496 176 OFFCURVE",
"574 -16 OFFCURVE",
"792 -16 CURVE SMOOTH"
);
},
{
closed = 1;
nodes = (
"496 0 LINE",
"496 280 LINE",
"336 280 LINE",
"336 1474 LINE",
"76 1474 LINE",
"76 0 LINE"
);
}
);
width = 1152;
},
{
layerId = "FD1CEFBD-BAB1-4C2A-A598-30E93F9A29F6";
paths = (
{
closed = 1;
nodes = (
"972 -16 OFFCURVE",
"1062 138 OFFCURVE",
"1062 418 CURVE SMOOTH",
"1062 1474 LINE",
"914 1474 LINE",
"914 414 LINE SMOOTH",
"914 232 OFFCURVE",
"876 134 OFFCURVE",
"802 134 CURVE SMOOTH",
"734 134 OFFCURVE",
"698 226 OFFCURVE",
"698 398 CURVE",
"550 398 LINE",
"550 130 OFFCURVE",
"638 -16 OFFCURVE",
"804 -16 CURVE SMOOTH"
);
},
{
closed = 1;
nodes = (
"496 0 LINE",
"496 150 LINE",
"238 150 LINE",
"238 1474 LINE",
"90 1474 LINE",
"90 0 LINE"
);
}
);
width = 1152;
}
);
leftKerningGroup = LAT_H_UC;
rightKerningGroup = LAT_U_UC;
unicode = 01C7;
},
{
glyphname = Lj;
lastChange = "2022-02-04 05:01:54 +0000";
layers = (
{
layerId = "AB099EFE-E788-4EFC-8633-CF147CB782A6";
paths = (
{
closed = 1;
nodes = (
"850 -436 OFFCURVE",
"956 -348 OFFCURVE",
"956 -164 CURVE SMOOTH",
"956 1048 LINE",
"896 1048 LINE",
"896 -170 LINE SMOOTH",
"896 -314 OFFCURVE",
"818 -380 OFFCURVE",
"718 -380 CURVE SMOOTH",
"650 -380 OFFCURVE",
"566 -350 OFFCURVE",
"508 -304 CURVE",
"484 -360 LINE",
"538 -404 OFFCURVE",
"634 -436 OFFCURVE",
"714 -436 CURVE SMOOTH"
);
},
{
closed = 1;
nodes = (
"600 0 LINE",
"600 60 LINE",
"236 60 LINE",
"236 1474 LINE",
"172 1474 LINE",
"172 0 LINE"
);
},
{
closed = 1;
nodes = (
"956 992 LINE",
"956 1048 LINE",
"616 1048 LINE",
"616 992 LINE"
);
},
{
closed = 1;
nodes = (
"976 1258 OFFCURVE",
"1012 1294 OFFCURVE",
"1012 1344 CURVE SMOOTH",
"1012 1394 OFFCURVE",
"976 1430 OFFCURVE",
"926 1430 CURVE SMOOTH",
"876 1430 OFFCURVE",
"840 1394 OFFCURVE",
"840 1344 CURVE SMOOTH",
"840 1294 OFFCURVE",
"876 1258 OFFCURVE",
"926 1258 CURVE SMOOTH"
);
}
);
width = 1152;
},
{
layerId = "2D8F7115-C311-411E-929D-56333CF7FFB2";
paths = (
{
closed = 1;
nodes = (
"934 -436 OFFCURVE",
"1072 -288 OFFCURVE",
"1072 -56 CURVE SMOOTH",
"1072 1080 LINE",
"808 1080 LINE",
"808 -56 LINE SMOOTH",
"808 -146 OFFCURVE",
"774 -168 OFFCURVE",
"722 -168 CURVE SMOOTH",
"662 -168 OFFCURVE",
"601 -140 OFFCURVE",
"544 -100 CURVE",
"460 -352 LINE",
"534 -404 OFFCURVE",
"639 -436 OFFCURVE",
"726 -436 CURVE SMOOTH"
);
},
{
closed = 1;
nodes = (
"596 0 LINE",
"596 280 LINE",
"356 280 LINE",
"356 1474 LINE",
"76 1474 LINE",
"76 0 LINE"
);
},
{
closed = 1;
nodes = (
"1072 808 LINE",
"1072 1080 LINE",
"588 1080 LINE",
"588 808 LINE"
);
},
{
closed = 1;
nodes = (
"1031 1200 OFFCURVE",
"1104 1276 OFFCURVE",
"1104 1386 CURVE SMOOTH",
"1104 1499 OFFCURVE",
"1031 1576 OFFCURVE",
"924 1576 CURVE SMOOTH",
"817 1576 OFFCURVE",
"744 1500 OFFCURVE",
"744 1390 CURVE SMOOTH",
"744 1277 OFFCURVE",
"817 1200 OFFCURVE",
"924 1200 CURVE SMOOTH"
);
}
);
width = 1152;
},
{
layerId = "FD1CEFBD-BAB1-4C2A-A598-30E93F9A29F6";
paths = (
{
closed = 1;
nodes = (
"856 -436 OFFCURVE",
"980 -312 OFFCURVE",
"980 -134 CURVE SMOOTH",
"980 1058 LINE",
"840 1058 LINE",
"840 -120 LINE SMOOTH",
"840 -220 OFFCURVE",
"776 -290 OFFCURVE",
"684 -290 CURVE SMOOTH",
"624 -290 OFFCURVE",
"540 -260 OFFCURVE",
"488 -214 CURVE",
"434 -348 LINE",
"494 -396 OFFCURVE",
"604 -436 OFFCURVE",
"694 -436 CURVE SMOOTH"
);
},
{
closed = 1;
nodes = (
"592 0 LINE",
"592 150 LINE",
"278 150 LINE",
"278 1474 LINE",
"130 1474 LINE",
"130 0 LINE"
);
},
{
closed = 1;
nodes = (
"980 920 LINE",
"980 1058 LINE",
"594 1058 LINE",
"594 920 LINE"
);
},
{
closed = 1;
nodes = (
"974 1234 OFFCURVE",
"1024 1288 OFFCURVE",
"1024 1358 CURVE SMOOTH",
"1024 1430 OFFCURVE",
"972 1482 OFFCURVE",
"902 1482 CURVE SMOOTH",
"832 1482 OFFCURVE",
"778 1430 OFFCURVE",
"778 1358 CURVE SMOOTH",
"778 1288 OFFCURVE",
"830 1234 OFFCURVE",
"902 1234 CURVE SMOOTH"
);
}
);
width = 1152;
}
);
leftKerningGroup = LAT_H_UC;
rightKerningGroup = LAT_J_LC;
unicode = 01C8;
},
{
glyphname = M;
lastChange = "2021-12-21 05:39:43 +0000";
layers = (
{
anchors = (
{
name = bottom;
position = "{574, 0}";
},
{
name = top;
position = "{574, 1474}";
}
);
layerId = "AB099EFE-E788-4EFC-8633-CF147CB782A6";
paths = (
{
closed = 1;
nodes = (
"134 0 LINE",
"198 0 LINE",
"198 1110 LINE",
"198 1312 LINE",
"206 1312 LINE",
"558 450 LINE",
"590 450 LINE",
"942 1312 LINE",
"950 1312 LINE",
"950 1110 LINE",
"950 0 LINE",
"1014 0 LINE",
"1014 1474 LINE",
"942 1474 LINE",
"578 578 LINE",
"570 578 LINE",
"206 1474 LINE",
"134 1474 LINE"
);
}
);
width = 1152;
},
{
anchors = (
{
name = bottom;
position = "{576, 0}";
},
{
name = top;
position = "{576, 1474}";
}
);
layerId = "2D8F7115-C311-411E-929D-56333CF7FFB2";
paths = (
{
closed = 1;
nodes = (
"40 0 LINE",
"360 0 LINE",
"360 494 LINE",
"356 750 LINE",
"366 750 LINE",
"534 454 LINE",
"618 454 LINE",
"786 750 LINE",
"796 750 LINE",
"792 494 LINE",
"792 0 LINE",
"1112 0 LINE",
"1112 1474 LINE",
"896 1474 LINE",
"580 944 LINE",
"572 944 LINE",
"256 1474 LINE",
"40 1474 LINE"
);
}
);
width = 1152;
},
{
anchors = (
{
name = bottom;
position = "{576, 0}";
},
{
name = top;
position = "{576, 1474}";
}
);
layerId = "FD1CEFBD-BAB1-4C2A-A598-30E93F9A29F6";
paths = (
{
closed = 1;
nodes = (
"92 0 LINE",
"268 0 LINE",
"268 758 LINE",
"264 1056 LINE",
"272 1056 LINE",
"546 518 LINE",
"606 518 LINE",
"880 1056 LINE",
"888 1056 LINE",
"884 758 LINE",
"884 0 LINE",
"1060 0 LINE",
"1060 1474 LINE",
"928 1474 LINE",
"580 794 LINE",
"572 794 LINE",
"224 1474 LINE",
"92 1474 LINE"
);
}
);
width = 1152;
}
);
unicode = 004D;
},
{
glyphname = N;
lastChange = "2021-12-21 04:04:45 +0000";
layers = (
{
anchors = (
{
name = bottom;
position = "{562, 0}";
},
{
name = leghookright;
position = "{956, 0}";
},
{
name = top;
position = "{576, 1474}";
}
);
layerId = "AB099EFE-E788-4EFC-8633-CF147CB782A6";
paths = (
{
closed = 1;
nodes = (
"160 0 LINE",
"224 0 LINE",
"224 972 LINE",
"224 1332 LINE",
"228 1332 LINE",
"364 1078 LINE",
"934 0 LINE",
"992 0 LINE",
"992 1474 LINE",
"928 1474 LINE",
"928 524 LINE",
"928 148 LINE",
"924 148 LINE",
"786 408 LINE",
"222 1474 LINE",
"160 1474 LINE"
);
}
);
width = 1152;
},
{
anchors = (
{
name = bottom;
position = "{572, 0}";
},
{
name = leghookright;
position = "{928, 0}";
},
{
name = top;
position = "{576, 1474}";
}
);
layerId = "2D8F7115-C311-411E-929D-56333CF7FFB2";
paths = (
{
closed = 1;
nodes = (
"64 0 LINE",
"402 0 LINE",
"402 520 LINE",
"396 848 LINE",
"402 848 LINE",
"458 712 LINE",
"842 0 LINE",
"1088 0 LINE",
"1088 1474 LINE",
"750 1474 LINE",
"750 954 LINE",
"760 648 LINE",
"752 648 LINE",
"696 778 LINE",
"308 1474 LINE",
"64 1474 LINE"
);
}
);
width = 1152;
},
{
anchors = (
{
name = bottom;
position = "{574, 0}";
},
{
name = leghookright;
position = "{944, 0}";
},
{
name = top;
position = "{576, 1474}";
}
);
layerId = "FD1CEFBD-BAB1-4C2A-A598-30E93F9A29F6";
paths = (
{
closed = 1;
nodes = (
"124 0 LINE",
"300 0 LINE",
"300 778 LINE",
"296 1060 LINE",
"304 1060 LINE",
"402 884 LINE",
"898 0 LINE",
"1028 0 LINE",
"1028 1474 LINE",
"852 1474 LINE",
"852 702 LINE",
"856 420 LINE",
"848 420 LINE",
"750 590 LINE",
"256 1474 LINE",
"124 1474 LINE"
);
}
);
width = 1152;
}
);
leftMetricsKey = H;
rightMetricsKey = H;
unicode = 004E;
},
{
glyphname = NJ;
lastChange = "2022-02-04 03:23:12 +0000";
layers = (
{
layerId = "AB099EFE-E788-4EFC-8633-CF147CB782A6";
paths = (
{
closed = 1;
nodes = (
"116 0 LINE",
"116 918 LINE",
"114 1240 LINE",
"118 1240 LINE",
"184 1000 LINE",
"484 0 LINE",
"534 0 LINE",
"534 1474 LINE",
"470 1474 LINE",
"470 574 LINE",
"470 240 LINE",
"466 240 LINE",
"400 484 LINE",
"104 1474 LINE",
"52 1474 LINE",
"52 0 LINE"
);
},
{
closed = 1;
nodes = (
"1006 -16 OFFCURVE",
"1088 118 OFFCURVE",
"1088 368 CURVE SMOOTH",
"1088 1474 LINE",
"1024 1474 LINE",
"1024 364 LINE SMOOTH",
"1024 154 OFFCURVE",
"962 44 OFFCURVE",
"862 44 CURVE SMOOTH",
"764 44 OFFCURVE",
"704 150 OFFCURVE",
"702 346 CURVE",
"638 346 LINE",
"642 100 OFFCURVE",
"726 -16 OFFCURVE",
"860 -16 CURVE SMOOTH"
);
}
);
width = 1152;
},
{
layerId = "2D8F7115-C311-411E-929D-56333CF7FFB2";
paths = (
{
closed = 1;
nodes = (
"248 0 LINE",
"248 592 LINE",
"240 754 LINE",
"242 754 LINE",
"266 632 LINE",
"426 0 LINE",
"584 0 LINE",
"584 1474 LINE",
"364 1474 LINE",
"364 886 LINE",
"374 728 LINE",
"368 728 LINE",
"346 850 LINE",
"184 1474 LINE",
"28 1474 LINE",
"28 0 LINE"
);
},
{
closed = 1;
nodes = (
"1050 -16 OFFCURVE",
"1132 156 OFFCURVE",
"1132 446 CURVE SMOOTH",
"1132 1474 LINE",
"896 1474 LINE",
"896 442 LINE SMOOTH",
"896 308 OFFCURVE",
"902 262 OFFCURVE",
"868 262 CURVE SMOOTH",
"844 262 OFFCURVE",
"828 286 OFFCURVE",
"832 442 CURVE",
"612 442 LINE",
"606 156 OFFCURVE",
"696 -16 OFFCURVE",
"870 -16 CURVE SMOOTH"
);
}
);
width = 1152;
},
{
layerId = "FD1CEFBD-BAB1-4C2A-A598-30E93F9A29F6";
paths = (
{
closed = 1;
nodes = (
"196 0 LINE",
"196 778 LINE",
"188 930 LINE",
"192 930 LINE",
"232 780 LINE",
"460 0 LINE",
"566 0 LINE",
"566 1474 LINE",
"418 1474 LINE",
"418 704 LINE",
"428 550 LINE",
"424 550 LINE",
"382 700 LINE",
"156 1474 LINE",
"48 1474 LINE",
"48 0 LINE"
);
},
{
closed = 1;
nodes = (
"1042 -16 OFFCURVE",
"1112 138 OFFCURVE",
"1112 418 CURVE SMOOTH",
"1112 1474 LINE",
"964 1474 LINE",
"964 414 LINE SMOOTH",
"964 236 OFFCURVE",
"946 136 OFFCURVE",
"874 136 CURVE SMOOTH",
"808 136 OFFCURVE",
"774 228 OFFCURVE",
"774 398 CURVE",
"626 398 LINE",
"624 128 OFFCURVE",
"712 -16 OFFCURVE",
"876 -16 CURVE SMOOTH"
);
}
);
width = 1152;
}
);
leftKerningGroup = LAT_H_UC;
rightKerningGroup = LAT_U_UC;
unicode = 01CA;
},
{
glyphname = Eng;
lastChange = "2022-01-18 00:49:00 +0000";
layers = (
{
anchors = (
{
name = bottom;
position = "{566, 0}";
},
{
name = leghookright;
position = "{956, 0}";
},
{
name = top;
position = "{576, 1474}";
}
);
layerId = "AB099EFE-E788-4EFC-8633-CF147CB782A6";
paths = (
{
closed = 1;
nodes = (
"912 -438 OFFCURVE",
"990 -322 OFFCURVE",
"990 -140 CURVE SMOOTH",
"990 60 LINE",
"926 60 LINE",
"926 -152 LINE SMOOTH",
"926 -268 OFFCURVE",
"886 -382 OFFCURVE",
"776 -378 CURVE SMOOTH",
"736 -376 OFFCURVE",
"704 -374 OFFCURVE",
"646 -338 CURVE",
"646 -402 LINE",
"692 -428 OFFCURVE",
"748 -438 OFFCURVE",
"782 -438 CURVE SMOOTH"
);
},
{
closed = 1;
nodes = (
"160 0 LINE",
"224 0 LINE",
"224 972 LINE",
"224 1332 LINE",
"228 1332 LINE",
"364 1078 LINE",
"934 0 LINE",
"992 0 LINE",
"992 1474 LINE",
"928 1474 LINE",
"928 524 LINE",
"928 148 LINE",
"924 148 LINE",
"786 408 LINE",
"222 1474 LINE",
"160 1474 LINE"
);
}
);
width = 1152;
},
{
anchors = (
{
name = bottom;
position = "{572, 0}";
},
{
name = leghookright;
position = "{936, 0}";
},
{
name = top;
position = "{576, 1474}";
}
);
layerId = "2D8F7115-C311-411E-929D-56333CF7FFB2";
paths = (
{
closed = 1;
nodes = (
"968 -446 OFFCURVE",
"1088 -262 OFFCURVE",
"1088 -12 CURVE SMOOTH",
"1088 226 LINE",
"760 226 LINE",
"760 -32 LINE SMOOTH",
"760 -92 OFFCURVE",
"724 -140 OFFCURVE",
"676 -140 CURVE SMOOTH",
"654 -140 OFFCURVE",
"606 -130 OFFCURVE",
"580 -114 CURVE",
"580 -418 LINE",
"598 -434 OFFCURVE",
"662 -446 OFFCURVE",
"722 -446 CURVE SMOOTH"
);
},
{
closed = 1;
nodes = (
"64 0 LINE",
"402 0 LINE",
"402 520 LINE",
"396 848 LINE",
"402 848 LINE",
"458 712 LINE",
"842 0 LINE",
"1088 0 LINE",
"1088 1474 LINE",
"750 1474 LINE",
"750 954 LINE",
"760 648 LINE",
"752 648 LINE",
"696 778 LINE",
"308 1474 LINE",
"64 1474 LINE"
);
}
);
width = 1152;
},
{
anchors = (
{
name = bottom;
position = "{574, 0}";
},
{
name = leghookright;
position = "{948, 0}";
},
{
name = top;
position = "{576, 1474}";
}
);
layerId = "FD1CEFBD-BAB1-4C2A-A598-30E93F9A29F6";
paths = (
{
closed = 1;
nodes = (
"934 -442 OFFCURVE",
"1028 -304 OFFCURVE",
"1028 -94 CURVE SMOOTH",
"1028 122 LINE",
"856 122 LINE",
"856 -106 LINE SMOOTH",
"856 -194 OFFCURVE",
"820 -292 OFFCURVE",
"734 -288 CURVE SMOOTH",
"698 -286 OFFCURVE",
"654 -276 OFFCURVE",
"620 -254 CURVE",
"620 -410 LINE",
"650 -430 OFFCURVE",
"712 -442 OFFCURVE",
"758 -442 CURVE SMOOTH"
);
},
{
closed = 1;
nodes = (
"124 0 LINE",
"300 0 LINE",
"300 778 LINE",
"296 1060 LINE",
"304 1060 LINE",
"402 884 LINE",
"898 0 LINE",
"1028 0 LINE",
"1028 1474 LINE",
"852 1474 LINE",
"852 702 LINE",
"856 420 LINE",
"848 420 LINE",
"750 590 LINE",
"256 1474 LINE",
"124 1474 LINE"
);
}
);
width = 1152;
}
);
leftMetricsKey = N;
rightMetricsKey = N;
unicode = 014A;
},
{
glyphname = Nj;
lastChange = "2022-02-04 05:01:48 +0000";
layers = (
{
layerId = "AB099EFE-E788-4EFC-8633-CF147CB782A6";
paths = (
{
closed = 1;
nodes = (
"218 0 LINE",
"218 940 LINE",
"216 1284 LINE",
"220 1284 LINE",
"312 1018 LINE",
"660 0 LINE",
"722 0 LINE",
"722 1474 LINE",
"660 1474 LINE",
"660 554 LINE",
"660 200 LINE",
"656 200 LINE",
"564 466 LINE",
"220 1474 LINE",
"156 1474 LINE",
"156 0 LINE"
);
},
{
closed = 1;
nodes = (
"898 -436 OFFCURVE",
"1002 -348 OFFCURVE",
"1002 -164 CURVE SMOOTH",
"1002 1048 LINE",
"942 1048 LINE",
"942 -170 LINE SMOOTH",
"942 -314 OFFCURVE",
"866 -380 OFFCURVE",
"770 -380 CURVE SMOOTH",
"706 -380 OFFCURVE",
"624 -350 OFFCURVE",
"568 -304 CURVE",
"544 -360 LINE",
"596 -404 OFFCURVE",
"692 -436 OFFCURVE",
"768 -436 CURVE SMOOTH"
);
},
{
closed = 1;
nodes = (
"1020 1258 OFFCURVE",
"1056 1294 OFFCURVE",
"1056 1344 CURVE SMOOTH",
"1056 1394 OFFCURVE",
"1020 1430 OFFCURVE",
"972 1430 CURVE SMOOTH",
"924 1430 OFFCURVE",
"888 1394 OFFCURVE",
"888 1344 CURVE SMOOTH",
"888 1294 OFFCURVE",
"924 1258 OFFCURVE",
"972 1258 CURVE SMOOTH"
);
}
);
width = 1152;
},
{
layerId = "2D8F7115-C311-411E-929D-56333CF7FFB2";
paths = (
{
closed = 1;
nodes = (
"310 0 LINE",
"310 592 LINE",
"300 754 LINE",
"302 754 LINE",
"330 632 LINE",
"510 0 LINE",
"690 0 LINE",
"690 1474 LINE",
"440 1474 LINE",
"440 886 LINE",
"452 728 LINE",
"446 728 LINE",
"420 850 LINE",
"236 1474 LINE",
"60 1474 LINE",
"60 0 LINE"
);
},
{
closed = 1;
nodes = (
"916 -436 OFFCURVE",
"1054 -288 OFFCURVE",
"1054 -56 CURVE SMOOTH",
"1054 1080 LINE",
"790 1080 LINE",
"790 -56 LINE SMOOTH",
"790 -146 OFFCURVE",
"756 -168 OFFCURVE",
"704 -168 CURVE SMOOTH",
"644 -168 OFFCURVE",
"583 -140 OFFCURVE",
"526 -100 CURVE",
"442 -352 LINE",
"516 -404 OFFCURVE",
"621 -436 OFFCURVE",
"708 -436 CURVE SMOOTH"
);
},
{
closed = 1;
nodes = (
"1039 1200 OFFCURVE",
"1112 1276 OFFCURVE",
"1112 1386 CURVE SMOOTH",
"1112 1499 OFFCURVE",
"1039 1576 OFFCURVE",
"932 1576 CURVE SMOOTH",
"825 1576 OFFCURVE",
"752 1500 OFFCURVE",
"752 1390 CURVE SMOOTH",
"752 1277 OFFCURVE",
"825 1200 OFFCURVE",
"932 1200 CURVE SMOOTH"
);
}
);
width = 1152;
},
{
layerId = "FD1CEFBD-BAB1-4C2A-A598-30E93F9A29F6";
paths = (
{
closed = 1;
nodes = (
"248 0 LINE",
"248 792 LINE",
"244 1004 LINE",
"248 1004 LINE",
"308 794 LINE",
"564 0 LINE",
"680 0 LINE",
"680 1474 LINE",
"532 1474 LINE",
"532 688 LINE",
"540 472 LINE",
"536 472 LINE",
"476 682 LINE",
"224 1474 LINE",
"102 1474 LINE",
"102 0 LINE"
);
},
{
closed = 1;
nodes = (
"886 -436 OFFCURVE",
"1008 -312 OFFCURVE",
"1008 -134 CURVE SMOOTH",
"1008 1058 LINE",
"868 1058 LINE",
"868 -120 LINE SMOOTH",
"868 -220 OFFCURVE",
"806 -292 OFFCURVE",
"718 -292 CURVE SMOOTH",
"660 -292 OFFCURVE",
"578 -260 OFFCURVE",
"526 -214 CURVE",
"474 -348 LINE",
"532 -396 OFFCURVE",
"640 -436 OFFCURVE",
"728 -436 CURVE SMOOTH"
);
},
{
closed = 1;
nodes = (
"1012 1242 OFFCURVE",
"1062 1296 OFFCURVE",
"1062 1366 CURVE SMOOTH",
"1062 1438 OFFCURVE",
"1010 1490 OFFCURVE",
"942 1490 CURVE SMOOTH",
"874 1490 OFFCURVE",
"820 1438 OFFCURVE",
"820 1366 CURVE SMOOTH",
"820 1296 OFFCURVE",
"872 1242 OFFCURVE",
"942 1242 CURVE SMOOTH"
);
}
);
width = 1152;
}
);
leftKerningGroup = LAT_H_UC;
rightKerningGroup = LAT_J_LC;
unicode = 01CB;
},
{
glyphname = O;
lastChange = "2022-02-02 00:56:22 +0000";
layers = (
{
anchors = (
{
name = bottom;
position = "{572, 0}";
},
{
name = center;
position = "{576, 738}";
},
{
name = horn;
position = "{802, 1410}";
},
{
name = ogonek;
position = "{668, 0}";
},
{
name = top;
position = "{572, 1474}";
},
{
name = topleft;
position = "{44, 1474}";
},
{
name = topright;
position = "{1106, 1474}";
}
);
layerId = "AB099EFE-E788-4EFC-8633-CF147CB782A6";
paths = (
{
closed = 1;
nodes = (
"880 -16 OFFCURVE",
"1076 286 OFFCURVE",
"1076 738 CURVE SMOOTH",
"1076 1190 OFFCURVE",
"880 1490 OFFCURVE",
"572 1490 CURVE SMOOTH",
"270 1490 OFFCURVE",
"76 1192 OFFCURVE",
"76 738 CURVE SMOOTH",
"76 284 OFFCURVE",
"270 -16 OFFCURVE",
"572 -16 CURVE SMOOTH"
);
},
{
closed = 1;
nodes = (
"308 44 OFFCURVE",
"140 322 OFFCURVE",
"140 738 CURVE SMOOTH",
"140 1152 OFFCURVE",
"308 1430 OFFCURVE",
"572 1430 CURVE SMOOTH",
"840 1430 OFFCURVE",
"1012 1154 OFFCURVE",
"1012 738 CURVE SMOOTH",
"1012 322 OFFCURVE",
"840 44 OFFCURVE",
"572 44 CURVE SMOOTH"
);
}
);
width = 1152;
},
{
anchors = (
{
name = bottom;
position = "{578, 0}";
},
{
name = center;
position = "{576, 738}";
},
{
name = horn;
position = "{782, 1426}";
},
{
name = ogonek;
position = "{684, 0}";
},
{
name = top;
position = "{578, 1474}";
},
{
name = topleft;
position = "{24, 1474}";
},
{
name = topright;
position = "{1136, 1474}";
}
);
layerId = "2D8F7115-C311-411E-929D-56333CF7FFB2";
paths = (
{
closed = 1;
nodes = (
"916 -16 OFFCURVE",
"1100 250 OFFCURVE",
"1100 738 CURVE SMOOTH",
"1100 1226 OFFCURVE",
"916 1492 OFFCURVE",
"582 1492 CURVE SMOOTH",
"240 1492 OFFCURVE",
"52 1228 OFFCURVE",
"52 738 CURVE SMOOTH",
"52 248 OFFCURVE",
"240 -16 OFFCURVE",
"582 -16 CURVE SMOOTH"
);
},
{
closed = 1;
nodes = (
"457 320 OFFCURVE",
"392 466 OFFCURVE",
"392 738 CURVE SMOOTH",
"392 1010 OFFCURVE",
"457 1156 OFFCURVE",
"578 1156 CURVE SMOOTH",
"696 1156 OFFCURVE",
"760 1010 OFFCURVE",
"760 738 CURVE SMOOTH",
"760 466 OFFCURVE",
"696 320 OFFCURVE",
"578 320 CURVE SMOOTH"
);
}
);
width = 1152;
},
{
anchors = (
{
name = bottom;
position = "{574, 0}";
},
{
name = center;
position = "{576, 738}";
},
{
name = horn;
position = "{788, 1422}";
},
{
name = ogonek;
position = "{674, 0}";
},
{
name = top;
position = "{574, 1474}";
},
{
name = topleft;
position = "{38, 1470}";
},
{
name = topright;
position = "{1112, 1470}";
}
);
layerId = "FD1CEFBD-BAB1-4C2A-A598-30E93F9A29F6";
paths = (
{
closed = 1;
nodes = (
"890 -16 OFFCURVE",
"1084 274 OFFCURVE",
"1084 738 CURVE SMOOTH",
"1084 1200 OFFCURVE",
"890 1490 OFFCURVE",
"574 1490 CURVE SMOOTH",
"260 1490 OFFCURVE",
"68 1200 OFFCURVE",
"68 738 CURVE SMOOTH",
"68 274 OFFCURVE",
"260 -16 OFFCURVE",
"574 -16 CURVE SMOOTH"
);
},
{
closed = 1;
nodes = (
"368 148 OFFCURVE",
"248 378 OFFCURVE",
"248 738 CURVE SMOOTH",
"248 1096 OFFCURVE",
"368 1326 OFFCURVE",
"574 1326 CURVE SMOOTH",
"780 1326 OFFCURVE",
"902 1108 OFFCURVE",
"904 738 CURVE SMOOTH",
"906 370 OFFCURVE",
"786 148 OFFCURVE",
"574 148 CURVE SMOOTH"
);
}
);
width = 1152;
}
);
unicode = 004F;
},
{
glyphname = OE;
lastChange = "2022-02-04 05:07:25 +0000";
layers = (
{
anchors = (
{
name = bottom;
position = "{594, 0}";
},
{
name = top;
position = "{594, 1474}";
}
);
layerId = "AB099EFE-E788-4EFC-8633-CF147CB782A6";
paths = (
{
closed = 1;
nodes = (
"576 -16 OFFCURVE",
"684 156 OFFCURVE",
"704 456 CURVE",
"678 456 LINE",
"678 0 LINE",
"1126 0 LINE",
"1126 60 LINE",
"742 60 LINE",
"742 726 LINE",
"1074 726 LINE",
"1074 786 LINE",
"742 786 LINE",
"742 1414 LINE",
"1126 1414 LINE",
"1126 1474 LINE",
"678 1474 LINE",
"678 1018 LINE",
"704 1018 LINE",
"684 1318 OFFCURVE",
"576 1490 OFFCURVE",
"394 1490 CURVE SMOOTH",
"173 1490 OFFCURVE",
"68 1216 OFFCURVE",
"68 738 CURVE SMOOTH",
"68 259 OFFCURVE",
"173 -16 OFFCURVE",
"394 -16 CURVE SMOOTH"
);
},
{
closed = 1;
nodes = (
"213 44 OFFCURVE",
"132 298 OFFCURVE",
"132 740 CURVE SMOOTH",
"132 1179 OFFCURVE",
"213 1430 OFFCURVE",
"394 1430 CURVE SMOOTH",
"583 1430 OFFCURVE",
"680 1179 OFFCURVE",
"680 742 CURVE SMOOTH",
"680 298 OFFCURVE",
"583 44 OFFCURVE",
"394 44 CURVE SMOOTH"
);
}
);
width = 1152;
},
{
anchors = (
{
name = bottom;
position = "{578, 0}";
},
{
name = top;
position = "{578, 1474}";
}
);
layerId = "2D8F7115-C311-411E-929D-56333CF7FFB2";
paths = (
{
closed = 1;
nodes = (
"554 -16 OFFCURVE",
"626 80 OFFCURVE",
"684 308 CURVE",
"644 308 LINE",
"644 0 LINE",
"1120 0 LINE",
"1120 328 LINE",
"892 328 LINE",
"892 586 LINE",
"1080 586 LINE",
"1080 902 LINE",
"892 902 LINE",
"892 1146 LINE",
"1120 1146 LINE",
"1120 1474 LINE",
"644 1474 LINE",
"644 1168 LINE",
"684 1168 LINE",
"628 1390 OFFCURVE",
"558 1490 OFFCURVE",
"418 1490 CURVE SMOOTH",
"182 1490 OFFCURVE",
"24 1214 OFFCURVE",
"24 738 CURVE SMOOTH",
"24 260 OFFCURVE",
"184 -16 OFFCURVE",
"418 -16 CURVE SMOOTH"
);
},
{
closed = 1;
nodes = (
"390 308 OFFCURVE",
"348 464 OFFCURVE",
"348 738 CURVE SMOOTH",
"348 1012 OFFCURVE",
"390 1166 OFFCURVE",
"486 1166 CURVE SMOOTH",
"576 1166 OFFCURVE",
"626 1016 OFFCURVE",
"626 738 CURVE SMOOTH",
"626 456 OFFCURVE",
"574 308 OFFCURVE",
"484 308 CURVE SMOOTH"
);
}
);
width = 1152;
},
{
anchors = (
{
name = bottom;
position = "{590, 0}";
},
{
name = top;
position = "{590, 1474}";
}
);
layerId = "FD1CEFBD-BAB1-4C2A-A598-30E93F9A29F6";
paths = (
{
closed = 1;
nodes = (
"580 -16 OFFCURVE",
"666 172 OFFCURVE",
"680 326 CURVE",
"644 326 LINE",
"644 0 LINE",
"1116 0 LINE",
"1116 164 LINE",
"796 164 LINE",
"796 668 LINE",
"1086 668 LINE",
"1086 832 LINE",
"796 832 LINE",
"796 1310 LINE",
"1116 1310 LINE",
"1116 1474 LINE",
"644 1474 LINE",
"644 1154 LINE",
"680 1154 LINE",
"666 1304 OFFCURVE",
"580 1490 OFFCURVE",
"408 1490 CURVE SMOOTH",
"196 1490 OFFCURVE",
"52 1206 OFFCURVE",
"52 738 CURVE SMOOTH",
"52 266 OFFCURVE",
"198 -16 OFFCURVE",
"408 -16 CURVE SMOOTH"
);
},
{
closed = 1;
nodes = (
"290 144 OFFCURVE",
"224 372 OFFCURVE",
"224 738 CURVE SMOOTH",
"224 1106 OFFCURVE",
"292 1330 OFFCURVE",
"422 1330 CURVE SMOOTH",
"551 1330 OFFCURVE",
"640 1106 OFFCURVE",
"640 738 CURVE SMOOTH",
"640 366 OFFCURVE",
"549 144 OFFCURVE",
"420 144 CURVE SMOOTH"
);
}
);
width = 1152;
}
);
unicode = 0152;
},
{
glyphname = P;
lastChange = "2022-02-02 00:56:23 +0000";
layers = (
{
anchors = (
{
name = bottom;
position = "{262, 0}";
},
{
name = top;
position = "{660, 1474}";
}
);
layerId = "AB099EFE-E788-4EFC-8633-CF147CB782A6";
paths = (
{
closed = 1;
nodes = (
"604 666 LINE SMOOTH",
"854 666 OFFCURVE",
"1020 856 OFFCURVE",
"1020 1078 CURVE SMOOTH",
"1020 1320 OFFCURVE",
"834 1474 OFFCURVE",
"594 1474 CURVE SMOOTH",
"262 1474 LINE",
"262 1414 LINE",
"582 1414 LINE SMOOTH",
"802 1414 OFFCURVE",
"956 1286 OFFCURVE",
"956 1078 CURVE SMOOTH",
"956 870 OFFCURVE",
"804 726 OFFCURVE",
"592 726 CURVE SMOOTH",
"262 726 LINE",
"262 666 LINE"
);
},
{
closed = 1;
nodes = (
"292 0 LINE",
"292 1474 LINE",
"228 1474 LINE",
"228 0 LINE"
);
}
);
width = 1152;
},
{
anchors = (
{
name = bottom;
position = "{302, 0}";
},
{
name = top;
position = "{618, 1474}";
}
);
layerId = "2D8F7115-C311-411E-929D-56333CF7FFB2";
paths = (
{
closed = 1;
nodes = (
"610 450 LINE SMOOTH",
"912 450 OFFCURVE",
"1122 660 OFFCURVE",
"1122 974 CURVE SMOOTH",
"1122 1278 OFFCURVE",
"928 1474 OFFCURVE",
"606 1474 CURVE SMOOTH",
"416 1474 LINE",
"416 1146 LINE",
"584 1146 LINE SMOOTH",
"694 1146 OFFCURVE",
"766 1072 OFFCURVE",
"766 962 CURVE SMOOTH",
"766 856 OFFCURVE",
"696 774 OFFCURVE",
"594 774 CURVE SMOOTH",
"416 774 LINE",
"416 450 LINE"
);
},
{
closed = 1;
nodes = (
"482 0 LINE",
"482 1474 LINE",
"118 1474 LINE",
"118 0 LINE"
);
}
);
width = 1152;
},
{
anchors = (
{
name = bottom;
position = "{276, 0}";
},
{
name = top;
position = "{642, 1474}";
}
);
layerId = "FD1CEFBD-BAB1-4C2A-A598-30E93F9A29F6";
paths = (
{
closed = 1;
nodes = (
"604 586 LINE SMOOTH",
"874 586 OFFCURVE",
"1052 778 OFFCURVE",
"1052 1040 CURVE SMOOTH",
"1052 1304 OFFCURVE",
"868 1474 OFFCURVE",
"594 1474 CURVE SMOOTH",
"320 1474 LINE",
"320 1310 LINE",
"580 1310 LINE SMOOTH",
"756 1310 OFFCURVE",
"872 1208 OFFCURVE",
"872 1036 CURVE SMOOTH",
"872 864 OFFCURVE",
"760 750 OFFCURVE",
"592 750 CURVE SMOOTH",
"320 750 LINE",
"320 586 LINE"
);
},
{
closed = 1;
nodes = (
"368 0 LINE",
"368 1474 LINE",
"188 1474 LINE",
"188 0 LINE"
);
}
);
width = 1152;
}
);
unicode = 0050;
},
{
glyphname = Thorn;
lastChange = "2022-02-02 00:56:56 +0000";
layers = (
{
layerId = "AB099EFE-E788-4EFC-8633-CF147CB782A6";
paths = (
{
closed = 1;
nodes = (
"624 328 LINE SMOOTH",
"854 328 OFFCURVE",
"1024 500 OFFCURVE",
"1024 742 CURVE SMOOTH",
"1024 984 OFFCURVE",
"854 1138 OFFCURVE",
"624 1138 CURVE SMOOTH",
"272 1138 LINE",
"272 1078 LINE",
"632 1078 LINE SMOOTH",
"818 1078 OFFCURVE",
"960 950 OFFCURVE",
"960 742 CURVE SMOOTH",
"960 532 OFFCURVE",
"818 388 OFFCURVE",
"632 388 CURVE SMOOTH",
"272 388 LINE",
"272 328 LINE"
);
},
{
closed = 1;
nodes = (
"292 0 LINE",
"292 1474 LINE",
"228 1474 LINE",
"228 0 LINE"
);
}
);
width = 1152;
},
{
layerId = "2D8F7115-C311-411E-929D-56333CF7FFB2";
paths = (
{
closed = 1;
nodes = (
"618 230 LINE SMOOTH",
"910 230 OFFCURVE",
"1108 444 OFFCURVE",
"1108 752 CURVE SMOOTH",
"1108 1060 OFFCURVE",
"912 1250 OFFCURVE",
"610 1250 CURVE SMOOTH",
"404 1250 LINE",
"404 930 LINE",
"586 930 LINE SMOOTH",
"690 930 OFFCURVE",
"760 856 OFFCURVE",
"760 742 CURVE SMOOTH",
"760 634 OFFCURVE",
"696 550 OFFCURVE",
"600 550 CURVE SMOOTH",
"404 550 LINE",
"404 230 LINE"
);
},
{
closed = 1;
nodes = (
"480 0 LINE",
"480 1474 LINE",
"116 1474 LINE",
"116 0 LINE"
);
}
);
width = 1152;
},
{
layerId = "FD1CEFBD-BAB1-4C2A-A598-30E93F9A29F6";
paths = (
{
closed = 1;
nodes = (
"624 290 LINE SMOOTH",
"882 290 OFFCURVE",
"1060 480 OFFCURVE",
"1060 746 CURVE SMOOTH",
"1060 1016 OFFCURVE",
"878 1180 OFFCURVE",
"620 1180 CURVE SMOOTH",
"308 1180 LINE",
"308 1016 LINE",
"618 1016 LINE SMOOTH",
"778 1016 OFFCURVE",
"880 918 OFFCURVE",
"880 742 CURVE SMOOTH",
"880 570 OFFCURVE",
"778 454 OFFCURVE",
"622 454 CURVE SMOOTH",
"308 454 LINE",
"308 290 LINE"
);
},
{
closed = 1;
nodes = (
"360 0 LINE",
"360 1474 LINE",
"180 1474 LINE",
"180 0 LINE"
);
}
);
width = 1152;
}
);
unicode = 00DE;
},
{
glyphname = Q;
lastChange = "2022-02-07 23:13:35 +0000";
layers = (
{
anchors = (
{
name = bottom;
position = "{570, 0}";
},
{
name = center;
position = "{570, 738}";
},
{
name = horn;
position = "{816, 1410}";
},
{
name = ogonek;
position = "{670, 0}";
},
{
name = top;
position = "{566, 1474}";
},
{
name = topleft;
position = "{0, 1474}";
},
{
name = topright;
position = "{1136, 1474}";
}
);
layerId = "AB099EFE-E788-4EFC-8633-CF147CB782A6";
paths = (
{
closed = 1;
nodes = (
"1010 0 LINE",
"912 162 LINE",
"894 176 LINE",
"704 520 LINE",
"634 520 LINE",
"848 142 LINE",
"862 130 LINE",
"938 0 LINE"
);
},
{
closed = 1;
nodes = (
"698 -16 OFFCURVE",
"806 36 OFFCURVE",
"890 130 CURVE",
"899 141 LINE",
"1009 273 OFFCURVE",
"1072 481 OFFCURVE",
"1072 738 CURVE SMOOTH",
"1072 1192 OFFCURVE",
"876 1490 OFFCURVE",
"570 1490 CURVE SMOOTH",
"270 1490 OFFCURVE",
"76 1194 OFFCURVE",
"76 738 CURVE SMOOTH",
"76 282 OFFCURVE",
"270 -16 OFFCURVE",
"570 -16 CURVE SMOOTH"
);
},
{
closed = 1;
nodes = (
"308 44 OFFCURVE",
"140 320 OFFCURVE",
"140 738 CURVE SMOOTH",
"140 1154 OFFCURVE",
"308 1430 OFFCURVE",
"570 1430 CURVE SMOOTH",
"836 1430 OFFCURVE",
"1008 1154 OFFCURVE",
"1008 738 CURVE SMOOTH",
"1008 320 OFFCURVE",
"836 44 OFFCURVE",
"570 44 CURVE SMOOTH"
);
}
);
width = 1152;
},
{
anchors = (
{
name = bottom;
position = "{524, 0}";
},
{
name = center;
position = "{528, 738}";
},
{
name = horn;
position = "{760, 1426}";
},
{
name = ogonek;
position = "{648, 0}";
},
{
name = top;
position = "{526, 1474}";
},
{
name = topleft;
position = "{-86, 1474}";
},
{
name = topright;
position = "{1146, 1474}";
}
);
layerId = "2D8F7115-C311-411E-929D-56333CF7FFB2";
paths = (
{
closed = 1;
nodes = (
"1148 0 LINE",
"956 300 LINE",
"774 368 LINE",
"688 544 LINE",
"430 544 LINE",
"578 276 LINE",
"786 172 LINE",
"874 0 LINE"
);
},
{
closed = 1;
nodes = (
"700 -16 OFFCURVE",
"810 42 OFFCURVE",
"848 144 CURVE",
"937 165 LINE",
"1034 295 OFFCURVE",
"1086 493 OFFCURVE",
"1086 752 CURVE SMOOTH",
"1086 1224 OFFCURVE",
"914 1492 OFFCURVE",
"576 1492 CURVE SMOOTH",
"242 1492 OFFCURVE",
"56 1226 OFFCURVE",
"56 736 CURVE SMOOTH",
"56 250 OFFCURVE",
"240 -16 OFFCURVE",
"568 -16 CURVE SMOOTH"
);
},
{
closed = 1;
nodes = (
"428 308 OFFCURVE",
"376 456 OFFCURVE",
"376 726 CURVE SMOOTH",
"376 1016 OFFCURVE",
"434 1156 OFFCURVE",
"574 1156 CURVE SMOOTH",
"722 1156 OFFCURVE",
"766 1003 OFFCURVE",
"766 726 CURVE SMOOTH",
"766 405 OFFCURVE",
"722 308 OFFCURVE",
"574 308 CURVE SMOOTH"
);
}
);
width = 1152;
},
{
anchors = (
{
name = bottom;
position = "{564, 0}";
},
{
name = center;
position = "{566, 738}";
},
{
name = horn;
position = "{804, 1422}";
},
{
name = ogonek;
position = "{672, 0}";
},
{
name = top;
position = "{564, 1474}";
},
{
name = topleft;
position = "{-36, 1470}";
},
{
name = topright;
position = "{1160, 1470}";
}
);
layerId = "FD1CEFBD-BAB1-4C2A-A598-30E93F9A29F6";
paths = (
{
closed = 1;
nodes = (
"1114 0 LINE",
"958 204 LINE",
"880 266 LINE",
"696 540 LINE",
"498 540 LINE",
"750 196 LINE",
"816 144 LINE",
"924 0 LINE"
);
},
{
closed = 1;
nodes = (
"706 -16 OFFCURVE",
"814 31 OFFCURVE",
"896 117 CURVE",
"933 161 LINE",
"1031 292 OFFCURVE",
"1084 489 OFFCURVE",
"1084 738 CURVE SMOOTH",
"1084 1204 OFFCURVE",
"896 1490 OFFCURVE",
"578 1490 CURVE SMOOTH",
"262 1490 OFFCURVE",
"68 1204 OFFCURVE",
"68 738 CURVE SMOOTH",
"68 270 OFFCURVE",
"262 -16 OFFCURVE",
"578 -16 CURVE SMOOTH"
);
},
{
closed = 1;
nodes = (
"372 148 OFFCURVE",
"244 370 OFFCURVE",
"244 738 CURVE SMOOTH",
"244 1104 OFFCURVE",
"372 1326 OFFCURVE",
"578 1326 CURVE SMOOTH",
"788 1326 OFFCURVE",
"906 1100 OFFCURVE",
"908 738 CURVE SMOOTH",
"910 378 OFFCURVE",
"794 148 OFFCURVE",
"578 148 CURVE SMOOTH"
);
}
);
width = 1152;
}
);
unicode = 0051;
},
{
glyphname = R;
lastChange = "2022-02-02 00:56:30 +0000";
layers = (
{
anchors = (
{
name = bottom;
position = "{622, 0}";
},
{
name = top;
position = "{554, 1474}";
}
);
guideLines = (
{
angle = 120;
position = "{528, 0}";
},
{
angle = 67.5;
position = "{116, 2}";
}
);
layerId = "AB099EFE-E788-4EFC-8633-CF147CB782A6";
paths = (
{
closed = 1;
nodes = (
"242 1414 LINE",
"542 1414 LINE SMOOTH",
"744 1414 OFFCURVE",
"890 1286 OFFCURVE",
"890 1078 CURVE SMOOTH",
"890 868 OFFCURVE",
"746 726 OFFCURVE",
"550 726 CURVE SMOOTH",
"242 726 LINE",
"242 666 LINE",
"562 666 LINE SMOOTH",
"796 666 OFFCURVE",
"954 854 OFFCURVE",
"954 1078 CURVE SMOOTH",
"954 1320 OFFCURVE",
"776 1474 OFFCURVE",
"552 1474 CURVE SMOOTH",
"242 1474 LINE"
);
},
{
closed = 1;
nodes = (
"274 1474 LINE",
"210 1474 LINE",
"210 0 LINE",
"274 0 LINE"
);
},
{
closed = 1;
nodes = (
"544 672 LINE",
"960 0 LINE",
"1032 0 LINE",
"588 716 LINE"
);
}
);
width = 1152;
},
{
anchors = (
{
name = bottom;
position = "{574, 0}";
},
{
name = top;
position = "{520, 1474}";
}
);
guideLines = (
{
angle = 120;
position = "{672, 0}";
}
);
layerId = "2D8F7115-C311-411E-929D-56333CF7FFB2";
paths = (
{
closed = 1;
nodes = (
"348 1146 LINE",
"544 1146 LINE SMOOTH",
"646 1146 OFFCURVE",
"722 1074 OFFCURVE",
"722 962 CURVE SMOOTH",
"722 856 OFFCURVE",
"650 782 OFFCURVE",
"554 782 CURVE SMOOTH",
"348 782 LINE",
"348 484 LINE",
"500 484 LINE SMOOTH",
"852 484 OFFCURVE",
"1068 714 OFFCURVE",
"1068 1012 CURVE SMOOTH",
"1068 1312 OFFCURVE",
"858 1474 OFFCURVE",
"598 1474 CURVE SMOOTH",
"348 1474 LINE"
);
},
{
closed = 1;
nodes = (
"418 1474 LINE",
"68 1474 LINE",
"68 0 LINE",
"418 0 LINE"
);
},
{
closed = 1;
nodes = (
"510 536 LINE",
"752 0 LINE",
"1148 0 LINE",
"770 754 LINE"
);
}
);
width = 1152;
},
{
anchors = (
{
name = bottom;
position = "{586, 0}";
},
{
name = top;
position = "{528, 1474}";
}
);
hints = (
{
horizontal = 1;
origin = "{0, 10}";
type = Delta;
settings = {
deltaV = {
"{100, 88, 0, 0, 0, 0}" = {
"12" = 3;
};
};
};
},
{
horizontal = 1;
origin = "{0, 9}";
type = Delta;
settings = {
deltaV = {
"{100, 88, 0, 0, 0, 0}" = {
"12" = 3;
};
};
};
},
{
horizontal = 1;
origin = "{0, 8}";
type = Delta;
settings = {
deltaV = {
"{100, 88, 0, 0, 0, 0}" = {
"12" = 3;
};
};
};
},
{
horizontal = 1;
origin = "{0, 7}";
type = Delta;
settings = {
deltaV = {
"{100, 88, 0, 0, 0, 0}" = {
"12" = 3;
};
};
};
},
{
horizontal = 1;
origin = "{0, 8, 1, 0}";
type = Delta;
settings = {
deltaV = {
"{100, 88, 0, 0, 0, 0}" = {
"12" = 3;
};
};
};
},
{
horizontal = 1;
origin = "{0, 10, 1, 0}";
type = Delta;
settings = {
deltaV = {
"{100, 88, 0, 0, 0, 0}" = {
"12" = 3;
};
};
};
},
{
horizontal = 1;
origin = "{0, 13, 2, 1}";
type = Delta;
settings = {
deltaV = {
"{100, 88, 0, 0, 0, 0}" = {
"12" = 3;
};
};
};
},
{
horizontal = 1;
origin = "{0, 13, 2, 3}";
type = Delta;
settings = {
deltaV = {
"{100, 88, 0, 0, 0, 0}" = {
"12" = 3;
};
};
};
}
);
layerId = "FD1CEFBD-BAB1-4C2A-A598-30E93F9A29F6";
paths = (
{
closed = 1;
nodes = (
"262 1310 LINE",
"534 1310 LINE SMOOTH",
"702 1310 OFFCURVE",
"820 1210 OFFCURVE",
"820 1038 CURVE SMOOTH",
"820 866 OFFCURVE",
"704 754 OFFCURVE",
"544 754 CURVE SMOOTH",
"262 754 LINE",
"262 598 LINE",
"530 598 LINE SMOOTH",
"816 598 OFFCURVE",
"1000 800 OFFCURVE",
"1000 1052 CURVE SMOOTH",
"1000 1316 OFFCURVE",
"806 1474 OFFCURVE",
"562 1474 CURVE SMOOTH",
"262 1474 LINE"
);
},
{
closed = 1;
nodes = (
"324 1474 LINE",
"144 1474 LINE",
"144 0 LINE",
"324 0 LINE"
);
},
{
closed = 1;
nodes = (
"518 626 LINE",
"880 0 LINE",
"1084 0 LINE",
"652 734 LINE"
);
}
);
width = 1152;
}
);
leftMetricsKey = H;
unicode = 0052;
},
{
glyphname = S;
lastChange = "2022-02-10 02:36:09 +0000";
layers = (
{
anchors = (
{
name = bottom;
position = "{594, 0}";
},
{
name = cedilla;
position = "{574, 0}";
},
{
name = top;
position = "{562, 1474}";
}
);
background = {
paths = (
{
closed = 1;
nodes = (
"784 -16 OFFCURVE",
"984 128 OFFCURVE",
"984 366 CURVE SMOOTH",
"984 660 OFFCURVE",
"680 746 OFFCURVE",
"548 798 CURVE SMOOTH",
"416 850 OFFCURVE",
"236 942 OFFCURVE",
"236 1144 CURVE SMOOTH",
"236 1308 OFFCURVE",
"354 1430 OFFCURVE",
"544 1430 CURVE SMOOTH",
"724 1430 OFFCURVE",
"824 1322 OFFCURVE",
"868 1234 CURVE",
"924 1258 LINE",
"874 1364 OFFCURVE",
"752 1490 OFFCURVE",
"544 1490 CURVE SMOOTH",
"322 1490 OFFCURVE",
"172 1348 OFFCURVE",
"172 1140 CURVE SMOOTH",
"172 918 OFFCURVE",
"340 818 OFFCURVE",
"562 730 CURVE SMOOTH",
"700 676 OFFCURVE",
"920 596 OFFCURVE",
"920 366 CURVE SMOOTH",
"920 168 OFFCURVE",
"756 44 OFFCURVE",
"570 44 CURVE SMOOTH",
"406 44 OFFCURVE",
"252 138 OFFCURVE",
"194 288 CURVE",
"130 262 LINE",
"192 128 OFFCURVE",
"332 -16 OFFCURVE",
"560 -16 CURVE SMOOTH"
);
},
{
closed = 1;
nodes = (
"784 -16 OFFCURVE",
"984 128 OFFCURVE",
"984 366 CURVE SMOOTH",
"984 865 OFFCURVE",
"236 697 OFFCURVE",
"236 1144 CURVE SMOOTH",
"236 1308 OFFCURVE",
"354 1430 OFFCURVE",
"544 1430 CURVE SMOOTH",
"724 1430 OFFCURVE",
"824 1322 OFFCURVE",
"868 1234 CURVE",
"924 1258 LINE",
"874 1364 OFFCURVE",
"752 1490 OFFCURVE",
"544 1490 CURVE SMOOTH",
"322 1490 OFFCURVE",
"172 1348 OFFCURVE",
"172 1140 CURVE SMOOTH",
"172 660 OFFCURVE",
"920 806 OFFCURVE",
"920 366 CURVE SMOOTH",
"920 168 OFFCURVE",
"756 44 OFFCURVE",
"570 44 CURVE SMOOTH",
"406 44 OFFCURVE",
"252 138 OFFCURVE",
"194 288 CURVE",
"130 262 LINE",
"192 128 OFFCURVE",
"332 -16 OFFCURVE",
"560 -16 CURVE SMOOTH"
);
}
);
};
layerId = "AB099EFE-E788-4EFC-8633-CF147CB782A6";
paths = (
{
closed = 1;
nodes = (
"784 -16 OFFCURVE",
"984 128 OFFCURVE",
"984 366 CURVE SMOOTH",
"984 865 OFFCURVE",
"236 697 OFFCURVE",
"236 1144 CURVE SMOOTH",
"236 1308 OFFCURVE",
"354 1430 OFFCURVE",
"544 1430 CURVE SMOOTH",
"724 1430 OFFCURVE",
"824 1322 OFFCURVE",
"868 1234 CURVE",
"924 1258 LINE",
"874 1364 OFFCURVE",
"752 1490 OFFCURVE",
"544 1490 CURVE SMOOTH",
"322 1490 OFFCURVE",
"172 1348 OFFCURVE",
"172 1140 CURVE SMOOTH",
"172 660 OFFCURVE",
"920 806 OFFCURVE",
"920 366 CURVE SMOOTH",
"920 168 OFFCURVE",
"756 44 OFFCURVE",
"570 44 CURVE SMOOTH",
"406 44 OFFCURVE",
"252 138 OFFCURVE",
"194 288 CURVE",
"130 262 LINE",
"192 128 OFFCURVE",
"332 -16 OFFCURVE",
"560 -16 CURVE SMOOTH"
);
}
);
userData = {
RMXScaler = {
height = 139;
width = 140;
};
};
width = 1152;
},
{
anchors = (
{
name = bottom;
position = "{616, 0}";
},
{
name = cedilla;
position = "{644, 0}";
},
{
name = top;
position = "{580, 1474}";
}
);
background = {
paths = (
{
closed = 1;
nodes = (
"879 -16 OFFCURVE",
"1086 198 OFFCURVE",
"1084 454 CURVE SMOOTH",
"1082 730 OFFCURVE",
"845 828 OFFCURVE",
"736 860 CURVE SMOOTH",
"664 882 OFFCURVE",
"449 934 OFFCURVE",
"450 1054 CURVE SMOOTH",
"449 1116 OFFCURVE",
"506 1164 OFFCURVE",
"572 1164 CURVE SMOOTH",
"653 1164 OFFCURVE",
"712 1094 OFFCURVE",
"730 1036 CURVE",
"1054 1176 LINE",
"985 1356 OFFCURVE",
"820 1490 OFFCURVE",
"570 1490 CURVE SMOOTH",
"282 1490 OFFCURVE",
"99 1312 OFFCURVE",
"100 1062 CURVE SMOOTH",
"99 812 OFFCURVE",
"280 688 OFFCURVE",
"466 626 CURVE SMOOTH",
"565 592 OFFCURVE",
"734 558 OFFCURVE",
"734 444 CURVE SMOOTH",
"734 376 OFFCURVE",
"672 320 OFFCURVE",
"594 320 CURVE SMOOTH",
"489 320 OFFCURVE",
"415 414 OFFCURVE",
"384 504 CURVE",
"50 356 LINE",
"113 148 OFFCURVE",
"345 -16 OFFCURVE",
"590 -16 CURVE SMOOTH"
);
}
);
};
guideLines = (
{
angle = 22.5;
position = "{316, 288}";
},
{
angle = 90;
position = "{84, -108}";
},
{
angle = 90;
position = "{536, -108}";
}
);
layerId = "2D8F7115-C311-411E-929D-56333CF7FFB2";
paths = (
{
closed = 1;
nodes = (
"868 -16 OFFCURVE",
"1084 190 OFFCURVE",
"1084 462 CURVE SMOOTH",
"1084 922 OFFCURVE",
"470 828 OFFCURVE",
"470 1060 CURVE SMOOTH",
"470 1120 OFFCURVE",
"512 1164 OFFCURVE",
"574 1164 CURVE SMOOTH",
"642 1164 OFFCURVE",
"700 1110 OFFCURVE",
"716 1036 CURVE",
"1054 1176 LINE",
"990 1356 OFFCURVE",
"820 1490 OFFCURVE",
"572 1490 CURVE SMOOTH",
"288 1490 OFFCURVE",
"102 1314 OFFCURVE",
"102 1054 CURVE SMOOTH",
"102 584 OFFCURVE",
"716 668 OFFCURVE",
"716 444 CURVE SMOOTH",
"716 378 OFFCURVE",
"662 320 OFFCURVE",
"594 320 CURVE SMOOTH",
"504 320 OFFCURVE",
"436 418 OFFCURVE",
"408 504 CURVE",
"54 356 LINE",
"122 146 OFFCURVE",
"354 -16 OFFCURVE",
"596 -16 CURVE SMOOTH"
);
}
);
userData = {
RMXScaler = {
height = 137;
weight = 160;
width = 140;
};
};
width = 1152;
},
{
anchors = (
{
name = bottom;
position = "{578, 0}";
},
{
name = cedilla;
position = "{578, 0}";
},
{
name = top;
position = "{572, 1474}";
}
);
background = {
paths = (
{
closed = 1;
nodes = (
"816 -16 OFFCURVE",
"1028 150 OFFCURVE",
"1028 402 CURVE SMOOTH",
"1028 700 OFFCURVE",
"730 792 OFFCURVE",
"606 836 CURVE SMOOTH",
"494 876 OFFCURVE",
"324 946 OFFCURVE",
"324 1116 CURVE SMOOTH",
"324 1254 OFFCURVE",
"434 1326 OFFCURVE",
"558 1326 CURVE SMOOTH",
"696 1326 OFFCURVE",
"786 1234 OFFCURVE",
"824 1164 CURVE",
"984 1228 LINE",
"922 1364 OFFCURVE",
"782 1490 OFFCURVE",
"556 1490 CURVE SMOOTH",
"312 1490 OFFCURVE",
"148 1344 OFFCURVE",
"148 1120 CURVE SMOOTH",
"148 884 OFFCURVE",
"330 760 OFFCURVE",
"524 692 CURVE SMOOTH",
"614 660 OFFCURVE",
"852 592 OFFCURVE",
"852 394 CURVE SMOOTH",
"852 250 OFFCURVE",
"724 148 OFFCURVE",
"580 148 CURVE SMOOTH",
"426 148 OFFCURVE",
"312 262 OFFCURVE",
"270 390 CURVE",
"102 320 LINE",
"160 148 OFFCURVE",
"348 -16 OFFCURVE",
"582 -16 CURVE SMOOTH"
);
}
);
};
layerId = "FD1CEFBD-BAB1-4C2A-A598-30E93F9A29F6";
paths = (
{
closed = 1;
nodes = (
"840 -16 OFFCURVE",
"1028 158 OFFCURVE",
"1028 410 CURVE SMOOTH",
"1028 904 OFFCURVE",
"326 744 OFFCURVE",
"326 1112 CURVE SMOOTH",
"326 1256 OFFCURVE",
"438 1326 OFFCURVE",
"556 1326 CURVE SMOOTH",
"666 1326 OFFCURVE",
"764 1268 OFFCURVE",
"820 1162 CURVE",
"984 1228 LINE",
"920 1380 OFFCURVE",
"764 1490 OFFCURVE",
"560 1490 CURVE SMOOTH",
"326 1490 OFFCURVE",
"146 1348 OFFCURVE",
"146 1106 CURVE SMOOTH",
"146 622 OFFCURVE",
"848 768 OFFCURVE",
"848 396 CURVE SMOOTH",
"848 250 OFFCURVE",
"734 148 OFFCURVE",
"590 148 CURVE SMOOTH",
"454 148 OFFCURVE",
"324 242 OFFCURVE",
"272 390 CURVE",
"104 320 LINE",
"170 122 OFFCURVE",
"366 -16 OFFCURVE",
"588 -16 CURVE SMOOTH"
);
}
);
userData = {
RMXScaler = {
height = 139;
width = 140;
};
};
width = 1152;
}
);
unicode = 0053;
userData = {
RMXScaler = {
source = s;
};
};
},
{
glyphname = Germandbls;
lastChange = "2021-12-20 06:18:11 +0000";
layers = (
{
layerId = "AB099EFE-E788-4EFC-8633-CF147CB782A6";
paths = (
{
closed = 1;
nodes = (
"848 -16 OFFCURVE",
"1032 190 OFFCURVE",
"1032 458 CURVE SMOOTH",
"1032 706 OFFCURVE",
"874 906 OFFCURVE",
"598 892 CURVE",
"624 860 LINE",
"834 1414 LINE",
"834 1430 LINE",
"732 1476 OFFCURVE",
"612 1490 OFFCURVE",
"528 1490 CURVE SMOOTH",
"168 1490 OFFCURVE",
"168 1222 OFFCURVE",
"168 1126 CURVE SMOOTH",
"168 0 LINE",
"232 0 LINE",
"232 1132 LINE SMOOTH",
"232 1212 OFFCURVE",
"230 1430 OFFCURVE",
"512 1430 CURVE SMOOTH",
"594 1430 OFFCURVE",
"714 1414 OFFCURVE",
"772 1386 CURVE",
"768 1420 LINE",
"562 864 LINE",
"562 836 LINE",
"598 836 LINE SMOOTH",
"828 836 OFFCURVE",
"968 688 OFFCURVE",
"968 460 CURVE SMOOTH",
"968 210 OFFCURVE",
"800 44 OFFCURVE",
"616 44 CURVE SMOOTH",
"566 44 OFFCURVE",
"494 60 OFFCURVE",
"446 80 CURVE",
"446 16 LINE",
"486 -4 OFFCURVE",
"554 -16 OFFCURVE",
"610 -16 CURVE SMOOTH"
);
}
);
width = 1152;
},
{
layerId = "2D8F7115-C311-411E-929D-56333CF7FFB2";
paths = (
{
closed = 1;
nodes = (
"972 -16 OFFCURVE",
"1152 182 OFFCURVE",
"1152 480 CURVE SMOOTH",
"1152 714 OFFCURVE",
"1056 902 OFFCURVE",
"870 934 CURVE",
"878 766 LINE",
"1076 1340 LINE",
"1076 1376 LINE",
"988 1438 OFFCURVE",
"778 1490 OFFCURVE",
"598 1490 CURVE SMOOTH",
"302 1490 OFFCURVE",
"64 1324 OFFCURVE",
"64 1020 CURVE SMOOTH",
"64 0 LINE",
"410 0 LINE",
"410 974 LINE SMOOTH",
"410 1018 OFFCURVE",
"418 1170 OFFCURVE",
"614 1170 CURVE SMOOTH",
"678 1170 OFFCURVE",
"720 1152 OFFCURVE",
"726 1126 CURVE",
"706 1216 LINE",
"574 738 LINE",
"574 676 LINE",
"674 676 LINE SMOOTH",
"778 676 OFFCURVE",
"816 586 OFFCURVE",
"814 484 CURVE SMOOTH",
"812 370 OFFCURVE",
"768 312 OFFCURVE",
"658 312 CURVE SMOOTH",
"646 312 OFFCURVE",
"632 314 OFFCURVE",
"578 324 CURVE",
"578 -12 LINE",
"616 -12 OFFCURVE",
"634 -16 OFFCURVE",
"674 -16 CURVE SMOOTH"
);
}
);
width = 1152;
},
{
layerId = "FD1CEFBD-BAB1-4C2A-A598-30E93F9A29F6";
paths = (
{
closed = 1;
nodes = (
"890 -16 OFFCURVE",
"1074 176 OFFCURVE",
"1074 466 CURVE SMOOTH",
"1074 710 OFFCURVE",
"944 902 OFFCURVE",
"708 910 CURVE",
"730 828 LINE",
"932 1384 LINE",
"932 1410 LINE",
"832 1462 OFFCURVE",
"676 1490 OFFCURVE",
"554 1490 CURVE SMOOTH",
"276 1490 OFFCURVE",
"130 1352 OFFCURVE",
"130 1086 CURVE SMOOTH",
"130 0 LINE",
"308 0 LINE",
"308 1074 LINE SMOOTH",
"308 1238 OFFCURVE",
"368 1326 OFFCURVE",
"560 1326 CURVE SMOOTH",
"636 1326 OFFCURVE",
"722 1304 OFFCURVE",
"752 1282 CURVE",
"742 1344 LINE",
"566 820 LINE",
"566 774 LINE",
"628 774 LINE SMOOTH",
"802 774 OFFCURVE",
"898 656 OFFCURVE",
"898 472 CURVE SMOOTH",
"898 286 OFFCURVE",
"790 148 OFFCURVE",
"632 148 CURVE SMOOTH",
"602 148 OFFCURVE",
"568 152 OFFCURVE",
"500 176 CURVE",
"500 8 LINE",
"538 -8 OFFCURVE",
"590 -16 OFFCURVE",
"638 -16 CURVE SMOOTH"
);
}
);
width = 1152;
}
);
rightMetricsKey = B;
unicode = 1E9E;
},
{
glyphname = Schwa;
lastChange = "2022-02-02 00:20:27 +0000";
layers = (
{
anchors = (
{
name = bottom;
position = "{560, 0}";
},
{
name = top;
position = "{564, 1474}";
}
);
layerId = "AB099EFE-E788-4EFC-8633-CF147CB782A6";
paths = (
{
closed = 1;
nodes = (
"842 -16 OFFCURVE",
"1068 312 OFFCURVE",
"1068 742 CURVE SMOOTH",
"1068 1168 OFFCURVE",
"846 1490 OFFCURVE",
"542 1490 CURVE SMOOTH",
"408 1490 OFFCURVE",
"264 1428 OFFCURVE",
"174 1336 CURVE",
"202 1272 LINE",
"270 1360 OFFCURVE",
"402 1430 OFFCURVE",
"532 1430 CURVE SMOOTH",
"806 1430 OFFCURVE",
"1006 1124 OFFCURVE",
"1006 736 CURVE SMOOTH",
"1006 332 OFFCURVE",
"798 44 OFFCURVE",
"542 44 CURVE SMOOTH",
"282 44 OFFCURVE",
"148 344 OFFCURVE",
"148 698 CURVE",
"1038 698 LINE",
"1038 758 LINE",
"84 758 LINE",
"84 704 LINE SMOOTH",
"84 278 OFFCURVE",
"258 -16 OFFCURVE",
"542 -16 CURVE SMOOTH"
);
}
);
width = 1152;
},
{
anchors = (
{
name = bottom;
position = "{536, 0}";
},
{
name = top;
position = "{540, 1474}";
}
);
layerId = "2D8F7115-C311-411E-929D-56333CF7FFB2";
paths = (
{
closed = 1;
nodes = (
"906 -16 OFFCURVE",
"1100 312 OFFCURVE",
"1100 718 CURVE SMOOTH",
"1100 1188 OFFCURVE",
"840 1490 OFFCURVE",
"508 1490 CURVE SMOOTH",
"370 1490 OFFCURVE",
"230 1438 OFFCURVE",
"132 1372 CURVE",
"268 1044 LINE",
"314 1108 OFFCURVE",
"428 1156 OFFCURVE",
"514 1156 CURVE SMOOTH",
"666 1156 OFFCURVE",
"746 1008 OFFCURVE",
"746 712 CURVE SMOOTH",
"746 530 OFFCURVE",
"714 312 OFFCURVE",
"560 312 CURVE SMOOTH",
"454 312 OFFCURVE",
"372 416 OFFCURVE",
"374 562 CURVE",
"794 562 LINE",
"794 866 LINE",
"52 866 LINE",
"52 638 LINE SMOOTH",
"52 248 OFFCURVE",
"252 -16 OFFCURVE",
"560 -16 CURVE SMOOTH"
);
}
);
width = 1152;
},
{
anchors = (
{
name = bottom;
position = "{570, 0}";
},
{
name = top;
position = "{580, 1474}";
}
);
layerId = "FD1CEFBD-BAB1-4C2A-A598-30E93F9A29F6";
paths = (
{
closed = 1;
nodes = (
"878 -16 OFFCURVE",
"1084 298 OFFCURVE",
"1084 724 CURVE SMOOTH",
"1084 1142 OFFCURVE",
"888 1490 OFFCURVE",
"538 1490 CURVE SMOOTH",
"404 1490 OFFCURVE",
"266 1438 OFFCURVE",
"164 1352 CURVE",
"230 1192 LINE",
"290 1266 OFFCURVE",
"412 1326 OFFCURVE",
"534 1326 CURVE SMOOTH",
"782 1326 OFFCURVE",
"904 1078 OFFCURVE",
"904 738 CURVE SMOOTH",
"904 394 OFFCURVE",
"778 148 OFFCURVE",
"570 148 CURVE SMOOTH",
"370 148 OFFCURVE",
"254 376 OFFCURVE",
"254 638 CURVE",
"974 638 LINE",
"974 802 LINE",
"84 802 LINE",
"84 672 LINE SMOOTH",
"84 286 OFFCURVE",
"268 -16 OFFCURVE",
"570 -16 CURVE SMOOTH"
);
}
);
width = 1152;
}
);
rightMetricsKey = O;
unicode = 018F;
},
{
glyphname = T;
lastChange = "2021-12-21 05:14:02 +0000";
layers = (
{
anchors = (
{
name = bottom;
position = "{576, 0}";
},
{
name = cedilla;
position = "{576, 0}";
},
{
name = center;
position = "{576, 738}";
},
{
name = top;
position = "{576, 1474}";
}
);
layerId = "AB099EFE-E788-4EFC-8633-CF147CB782A6";
paths = (
{
closed = 1;
nodes = (
"608 0 LINE",
"608 1432 LINE",
"544 1432 LINE",
"544 0 LINE"
);
},
{
closed = 1;
nodes = (
"1040 1414 LINE",
"1040 1474 LINE",
"108 1474 LINE",
"108 1414 LINE"
);
}
);
width = 1152;
},
{
anchors = (
{
name = bottom;
position = "{576, 0}";
},
{
name = cedilla;
position = "{576, 0}";
},
{
name = center;
position = "{576, 672}";
},
{
name = top;
position = "{576, 1474}";
}
);
layerId = "2D8F7115-C311-411E-929D-56333CF7FFB2";
paths = (
{
closed = 1;
nodes = (
"760 0 LINE",
"760 1196 LINE",
"392 1196 LINE",
"392 0 LINE"
);
},
{
closed = 1;
nodes = (
"1102 1146 LINE",
"1102 1474 LINE",
"50 1474 LINE",
"50 1146 LINE"
);
}
);
width = 1152;
},
{
anchors = (
{
name = bottom;
position = "{576, 0}";
},
{
name = cedilla;
position = "{570, 0}";
},
{
name = center;
position = "{576, 712}";
},
{
name = top;
position = "{576, 1474}";
}
);
layerId = "FD1CEFBD-BAB1-4C2A-A598-30E93F9A29F6";
paths = (
{
closed = 1;
nodes = (
"666 0 LINE",
"666 1344 LINE",
"486 1344 LINE",
"486 0 LINE"
);
},
{
closed = 1;
nodes = (
"1064 1310 LINE",
"1064 1474 LINE",
"88 1474 LINE",
"88 1310 LINE"
);
}
);
width = 1152;
}
);
unicode = 0054;
},
{
glyphname = U;
lastChange = "2021-12-20 06:21:56 +0000";
layers = (
{
anchors = (
{
name = bottom;
position = "{578, 0}";
},
{
name = horn;
position = "{960, 1474}";
},
{
name = ogonek;
position = "{690, 0}";
},
{
name = top;
position = "{578, 1474}";
}
);
layerId = "AB099EFE-E788-4EFC-8633-CF147CB782A6";
paths = (
{
closed = 1;
nodes = (
"160 163 OFFCURVE",
"317 -16 OFFCURVE",
"574 -16 CURVE SMOOTH",
"834 -16 OFFCURVE",
"992 163 OFFCURVE",
"992 456 CURVE SMOOTH",
"992 1474 LINE",
"928 1474 LINE",
"928 472 LINE SMOOTH",
"928 206 OFFCURVE",
"794 44 OFFCURVE",
"574 44 CURVE SMOOTH",
"357 44 OFFCURVE",
"224 206 OFFCURVE",
"224 472 CURVE SMOOTH",
"224 1474 LINE",
"160 1474 LINE",
"160 456 LINE SMOOTH"
);
}
);
width = 1152;
},
{
anchors = (
{
name = bottom;
position = "{576, 0}";
},
{
name = horn;
position = "{1006, 1474}";
},
{
name = ogonek;
position = "{694, 0}";
},
{
name = top;
position = "{576, 1474}";
}
);
layerId = "2D8F7115-C311-411E-929D-56333CF7FFB2";
paths = (
{
closed = 1;
nodes = (
"64 206 OFFCURVE",
"266 -16 OFFCURVE",
"576 -16 CURVE SMOOTH",
"888 -16 OFFCURVE",
"1088 206 OFFCURVE",
"1088 548 CURVE SMOOTH",
"1088 1474 LINE",
"736 1474 LINE",
"736 514 LINE SMOOTH",
"736 392 OFFCURVE",
"678 312 OFFCURVE",
"576 312 CURVE SMOOTH",
"476 312 OFFCURVE",
"416 392 OFFCURVE",
"416 514 CURVE SMOOTH",
"416 1474 LINE",
"64 1474 LINE",
"64 548 LINE SMOOTH"
);
}
);
width = 1152;
},
{
anchors = (
{
name = bottom;
position = "{578, 0}";
},
{
name = horn;
position = "{980, 1474}";
},
{
name = ogonek;
position = "{692, 0}";
},
{
name = top;
position = "{578, 1474}";
}
);
layerId = "FD1CEFBD-BAB1-4C2A-A598-30E93F9A29F6";
paths = (
{
closed = 1;
nodes = (
"124 178 OFFCURVE",
"295 -16 OFFCURVE",
"576 -16 CURVE SMOOTH",
"857 -16 OFFCURVE",
"1028 178 OFFCURVE",
"1028 496 CURVE SMOOTH",
"1028 1474 LINE",
"848 1474 LINE",
"848 496 LINE SMOOTH",
"848 280 OFFCURVE",
"746 148 OFFCURVE",
"576 148 CURVE SMOOTH",
"406 148 OFFCURVE",
"304 280 OFFCURVE",
"304 496 CURVE SMOOTH",
"304 1474 LINE",
"124 1474 LINE",
"124 496 LINE SMOOTH"
);
}
);
width = 1152;
}
);
leftMetricsKey = H;
rightMetricsKey = H;
unicode = 0055;
},
{
glyphname = V;
lastChange = "2021-12-20 06:18:11 +0000";
layers = (
{
anchors = (
{
name = bottom;
position = "{578, 0}";
},
{
name = top;
position = "{572, 1474}";
}
);
layerId = "AB099EFE-E788-4EFC-8633-CF147CB782A6";
paths = (
{
closed = 1;
nodes = (
"612 0 LINE",
"1120 1474 LINE",
"1052 1474 LINE",
"754 600 LINE",
"578 78 LINE",
"572 78 LINE",
"398 600 LINE",
"96 1474 LINE",
"28 1474 LINE",
"540 0 LINE"
);
}
);
width = 1152;
},
{
anchors = (
{
name = bottom;
position = "{580, 0}";
},
{
name = top;
position = "{578, 1474}";
}
);
layerId = "2D8F7115-C311-411E-929D-56333CF7FFB2";
paths = (
{
closed = 1;
nodes = (
"756 0 LINE",
"1160 1474 LINE",
"780 1474 LINE",
"660 858 LINE",
"580 496 LINE",
"572 496 LINE",
"492 858 LINE",
"368 1474 LINE",
"-8 1474 LINE",
"396 0 LINE"
);
}
);
width = 1152;
},
{
anchors = (
{
name = bottom;
position = "{580, 0}";
},
{
name = top;
position = "{576, 1474}";
}
);
layerId = "FD1CEFBD-BAB1-4C2A-A598-30E93F9A29F6";
paths = (
{
closed = 1;
nodes = (
"668 0 LINE",
"1140 1474 LINE",
"950 1474 LINE",
"722 712 LINE",
"580 258 LINE",
"572 258 LINE",
"432 712 LINE",
"202 1474 LINE",
"12 1474 LINE",
"488 0 LINE"
);
}
);
width = 1152;
}
);
unicode = 0056;
},
{
glyphname = W;
lastChange = "2022-02-07 00:50:30 +0000";
layers = (
{
anchors = (
{
name = bottom;
position = "{576, 0}";
},
{
name = top;
position = "{576, 1474}";
}
);
background = {
anchors = (
{
name = bottom;
position = "{574, 0}";
},
{
name = top;
position = "{574, 1474}";
}
);
paths = (
{
closed = 1;
nodes = (
"358 0 LINE",
"572 884 LINE",
"580 884 LINE",
"794 0 LINE",
"874 0 LINE",
"1128 1474 LINE",
"1062 1474 LINE",
"866 264 LINE",
"838 96 LINE",
"830 96 LINE",
"596 1048 LINE",
"556 1048 LINE",
"322 96 LINE",
"314 96 LINE",
"286 264 LINE",
"90 1474 LINE",
"24 1474 LINE",
"278 0 LINE"
);
}
);
};
layerId = "AB099EFE-E788-4EFC-8633-CF147CB782A6";
paths = (
{
closed = 1;
nodes = (
"340 0 LINE",
"572 790 LINE",
"580 790 LINE",
"812 0 LINE",
"890 0 LINE",
"967 325 OFFCURVE",
"1088 704 OFFCURVE",
"1088 1050 CURVE SMOOTH",
"1088 1474 LINE",
"1024 1474 LINE",
"1024 1052 LINE SMOOTH",
"1024 699 OFFCURVE",
"915 317 OFFCURVE",
"854 92 CURVE",
"846 92 LINE",
"596 940 LINE",
"556 940 LINE",
"306 92 LINE",
"298 92 LINE",
"235 370 OFFCURVE",
"128 707 OFFCURVE",
"128 1050 CURVE SMOOTH",
"128 1474 LINE",
"64 1474 LINE",
"64 1050 LINE SMOOTH",
"64 698 OFFCURVE",
"188 323 OFFCURVE",
"262 0 CURVE"
);
}
);
width = 1152;
},
{
anchors = (
{
name = bottom;
position = "{576, 0}";
},
{
name = top;
position = "{576, 1474}";
}
);
background = {
anchors = (
{
name = bottom;
position = "{576, 0}";
},
{
name = top;
position = "{576, 1474}";
}
);
paths = (
{
closed = 1;
nodes = (
"436 0 LINE",
"572 578 LINE",
"580 578 LINE",
"714 0 LINE",
"986 0 LINE",
"1148 1474 LINE",
"842 1474 LINE",
"816 848 LINE",
"796 496 LINE",
"788 496 LINE",
"642 1080 LINE",
"510 1080 LINE",
"364 496 LINE",
"356 496 LINE",
"340 848 LINE",
"314 1474 LINE",
"4 1474 LINE",
"170 0 LINE"
);
}
);
};
layerId = "2D8F7115-C311-411E-929D-56333CF7FFB2";
paths = (
{
closed = 1;
nodes = (
"420 0 LINE",
"572 498 LINE",
"580 498 LINE",
"730 0 LINE",
"1002 0 LINE",
"1070 344 OFFCURVE",
"1122 620 OFFCURVE",
"1122 960 CURVE SMOOTH",
"1122 1474 LINE",
"834 1474 LINE",
"834 960 LINE SMOOTH",
"834 768 OFFCURVE",
"817 593 OFFCURVE",
"802 462 CURVE",
"794 462 LINE",
"642 928 LINE",
"510 928 LINE",
"358 462 LINE",
"350 462 LINE",
"335 593 OFFCURVE",
"320 769 OFFCURVE",
"320 960 CURVE SMOOTH",
"320 1474 LINE",
"32 1474 LINE",
"32 960 LINE SMOOTH",
"32 623 OFFCURVE",
"83 344 OFFCURVE",
"154 0 CURVE"
);
}
);
width = 1152;
},
{
anchors = (
{
name = bottom;
position = "{576, 0}";
},
{
name = top;
position = "{576, 1474}";
}
);
background = {
anchors = (
{
name = bottom;
position = "{576, 0}";
},
{
name = top;
position = "{576, 1474}";
}
);
paths = (
{
closed = 1;
nodes = (
"368 0 LINE",
"572 660 LINE",
"580 660 LINE",
"784 0 LINE",
"952 0 LINE",
"1136 1474 LINE",
"936 1474 LINE",
"858 616 LINE",
"840 344 LINE",
"832 344 LINE",
"618 1060 LINE",
"532 1060 LINE",
"320 344 LINE",
"312 344 LINE",
"294 616 LINE",
"216 1474 LINE",
"16 1474 LINE",
"200 0 LINE"
);
}
);
};
layerId = "FD1CEFBD-BAB1-4C2A-A598-30E93F9A29F6";
paths = (
{
closed = 1;
nodes = (
"396 0 LINE",
"572 584 LINE",
"580 584 LINE",
"756 0 LINE",
"940 0 LINE",
"1029 334 OFFCURVE",
"1094 653 OFFCURVE",
"1094 966 CURVE SMOOTH",
"1094 1474 LINE",
"914 1474 LINE",
"914 966 LINE SMOOTH",
"914 717 OFFCURVE",
"886 469 OFFCURVE",
"840 260 CURVE",
"832 260 LINE",
"624 936 LINE",
"528 936 LINE",
"320 260 LINE",
"312 260 LINE",
"266 469 OFFCURVE",
"240 717 OFFCURVE",
"240 966 CURVE SMOOTH",
"240 1474 LINE",
"60 1474 LINE",
"60 966 LINE SMOOTH",
"60 651 OFFCURVE",
"123 334 OFFCURVE",
"212 0 CURVE"
);
}
);
width = 1152;
}
);
unicode = 0057;
},
{
color = 9;
glyphname = W.ss03;
lastChange = "2022-02-07 00:51:47 +0000";
layers = (
{
anchors = (
{
name = bottom;
position = "{574, 0}";
},
{
name = top;
position = "{574, 1474}";
}
);
background = {
anchors = (
{
name = bottom;
position = "{574, 0}";
},
{
name = top;
position = "{574, 1474}";
}
);
paths = (
{
closed = 1;
nodes = (
"358 0 LINE",
"570 1250 LINE",
"578 1250 LINE",
"794 0 LINE",
"874 0 LINE",
"1128 1474 LINE",
"1062 1474 LINE",
"866 276 LINE",
"838 106 LINE",
"830 106 LINE",
"598 1474 LINE",
"550 1474 LINE",
"322 106 LINE",
"314 106 LINE",
"286 276 LINE",
"90 1474 LINE",
"24 1474 LINE",
"278 0 LINE"
);
}
);
};
layerId = "AB099EFE-E788-4EFC-8633-CF147CB782A6";
paths = (
{
closed = 1;
nodes = (
"358 0 LINE",
"572 1006 LINE",
"580 1006 LINE",
"794 0 LINE",
"874 0 LINE",
"1128 1474 LINE",
"1062 1474 LINE",
"866 290 LINE",
"838 96 LINE",
"830 96 LINE",
"596 1224 LINE",
"556 1224 LINE",
"322 96 LINE",
"314 96 LINE",
"286 290 LINE",
"90 1474 LINE",
"24 1474 LINE",
"278 0 LINE"
);
}
);
width = 1152;
},
{
anchors = (
{
name = bottom;
position = "{576, 0}";
},
{
name = top;
position = "{576, 1474}";
}
);
background = {
anchors = (
{
name = bottom;
position = "{576, 0}";
},
{
name = top;
position = "{576, 1474}";
}
);
paths = (
{
closed = 1;
nodes = (
"436 0 LINE",
"572 932 LINE",
"580 932 LINE",
"716 0 LINE",
"984 0 LINE",
"1148 1474 LINE",
"886 1474 LINE",
"842 848 LINE",
"834 496 LINE",
"824 496 LINE",
"662 1474 LINE",
"490 1474 LINE",
"326 496 LINE",
"318 496 LINE",
"310 848 LINE",
"270 1474 LINE",
"4 1474 LINE",
"168 0 LINE"
);
}
);
};
layerId = "2D8F7115-C311-411E-929D-56333CF7FFB2";
paths = (
{
closed = 1;
nodes = (
"436 0 LINE",
"572 586 LINE",
"580 586 LINE",
"714 0 LINE",
"986 0 LINE",
"1148 1474 LINE",
"842 1474 LINE",
"816 882 LINE",
"804 496 LINE",
"796 496 LINE",
"642 1156 LINE",
"510 1156 LINE",
"356 496 LINE",
"348 496 LINE",
"340 882 LINE",
"314 1474 LINE",
"4 1474 LINE",
"170 0 LINE"
);
}
);
width = 1152;
},
{
anchors = (
{
name = bottom;
position = "{576, 0}";
},
{
name = top;
position = "{576, 1474}";
}
);
background = {
anchors = (
{
name = bottom;
position = "{576, 0}";
},
{
name = top;
position = "{576, 1474}";
}
);
paths = (
{
closed = 1;
nodes = (
"376 0 LINE",
"572 934 LINE",
"580 934 LINE",
"776 0 LINE",
"952 0 LINE",
"1136 1474 LINE",
"936 1474 LINE",
"858 616 LINE",
"840 344 LINE",
"832 344 LINE",
"626 1474 LINE",
"526 1474 LINE",
"320 344 LINE",
"312 344 LINE",
"294 616 LINE",
"216 1474 LINE",
"16 1474 LINE",
"200 0 LINE"
);
}
);
};
layerId = "FD1CEFBD-BAB1-4C2A-A598-30E93F9A29F6";
paths = (
{
closed = 1;
nodes = (
"368 0 LINE",
"572 752 LINE",
"580 752 LINE",
"784 0 LINE",
"952 0 LINE",
"1136 1474 LINE",
"936 1474 LINE",
"858 664 LINE",
"840 344 LINE",
"832 344 LINE",
"624 1184 LINE",
"528 1184 LINE",
"320 344 LINE",
"312 344 LINE",
"294 664 LINE",
"216 1474 LINE",
"16 1474 LINE",
"200 0 LINE"
);
}
);
width = 1152;
}
);
leftKerningGroup = LAT_W_UC;
rightKerningGroup = LAT_W_UC;
},
{
glyphname = X;
lastChange = "2021-12-20 06:18:11 +0000";
layers = (
{
anchors = (
{
name = bottom;
position = "{576, 0}";
},
{
name = top;
position = "{576, 1474}";
}
);
layerId = "AB099EFE-E788-4EFC-8633-CF147CB782A6";
paths = (
{
closed = 1;
nodes = (
"164 0 LINE",
"572 690 LINE",
"582 690 LINE",
"616 730 LINE",
"616 738 LINE",
"1062 1474 LINE",
"990 1474 LINE",
"578 784 LINE",
"568 784 LINE",
"534 742 LINE",
"534 734 LINE",
"88 0 LINE"
);
},
{
closed = 1;
nodes = (
"1062 0 LINE",
"616 734 LINE",
"616 742 LINE",
"582 784 LINE",
"572 784 LINE",
"160 1474 LINE",
"88 1474 LINE",
"534 738 LINE",
"534 730 LINE",
"568 690 LINE",
"578 690 LINE",
"986 0 LINE"
);
}
);
width = 1152;
},
{
anchors = (
{
name = bottom;
position = "{576, 0}";
},
{
name = top;
position = "{576, 1474}";
}
);
layerId = "2D8F7115-C311-411E-929D-56333CF7FFB2";
paths = (
{
closed = 1;
nodes = (
"370 0 LINE",
"574 462 LINE",
"580 462 LINE",
"816 738 LINE",
"816 742 LINE",
"1182 1474 LINE",
"778 1474 LINE",
"576 974 LINE",
"570 974 LINE",
"338 738 LINE",
"338 734 LINE",
"-38 0 LINE"
);
},
{
closed = 1;
nodes = (
"1190 0 LINE",
"816 734 LINE",
"816 738 LINE",
"580 974 LINE",
"574 974 LINE",
"370 1474 LINE",
"-30 1474 LINE",
"338 742 LINE",
"338 738 LINE",
"570 462 LINE",
"576 462 LINE",
"778 0 LINE"
);
}
);
width = 1152;
},
{
anchors = (
{
name = bottom;
position = "{576, 0}";
},
{
name = top;
position = "{576, 1474}";
}
);
layerId = "FD1CEFBD-BAB1-4C2A-A598-30E93F9A29F6";
paths = (
{
closed = 1;
nodes = (
"250 0 LINE",
"572 602 LINE",
"582 602 LINE",
"696 734 LINE",
"696 742 LINE",
"1106 1474 LINE",
"904 1474 LINE",
"580 860 LINE",
"568 860 LINE",
"456 742 LINE",
"456 734 LINE",
"38 0 LINE"
);
},
{
closed = 1;
nodes = (
"1114 0 LINE",
"696 734 LINE",
"696 742 LINE",
"582 860 LINE",
"572 860 LINE",
"248 1474 LINE",
"46 1474 LINE",
"456 742 LINE",
"456 734 LINE",
"568 602 LINE",
"580 602 LINE",
"900 0 LINE"
);
}
);
width = 1152;
}
);
unicode = 0058;
},
{
glyphname = Y;
lastChange = "2021-12-20 06:18:11 +0000";
layers = (
{
anchors = (
{
name = bottom;
position = "{574, 0}";
},
{
name = top;
position = "{574, 1474}";
}
);
layerId = "AB099EFE-E788-4EFC-8633-CF147CB782A6";
paths = (
{
closed = 1;
nodes = (
"542 0 LINE",
"606 0 LINE",
"606 680 LINE",
"1082 1474 LINE",
"1010 1474 LINE",
"756 1042 LINE",
"578 748 LINE",
"570 748 LINE",
"392 1042 LINE",
"138 1474 LINE",
"66 1474 LINE",
"542 680 LINE"
);
}
);
width = 1152;
},
{
anchors = (
{
name = bottom;
position = "{576, 0}";
},
{
name = top;
position = "{576, 1474}";
}
);
layerId = "2D8F7115-C311-411E-929D-56333CF7FFB2";
paths = (
{
closed = 1;
nodes = (
"398 0 LINE",
"754 0 LINE",
"754 552 LINE",
"1194 1474 LINE",
"786 1474 LINE",
"690 1208 LINE",
"580 906 LINE",
"572 906 LINE",
"462 1208 LINE",
"366 1474 LINE",
"-42 1474 LINE",
"398 552 LINE"
);
}
);
width = 1152;
},
{
anchors = (
{
name = bottom;
position = "{576, 0}";
},
{
name = top;
position = "{576, 1474}";
}
);
layerId = "FD1CEFBD-BAB1-4C2A-A598-30E93F9A29F6";
paths = (
{
closed = 1;
nodes = (
"486 0 LINE",
"666 0 LINE",
"666 634 LINE",
"1128 1474 LINE",
"924 1474 LINE",
"732 1106 LINE",
"580 812 LINE",
"572 812 LINE",
"420 1106 LINE",
"228 1474 LINE",
"24 1474 LINE",
"486 634 LINE"
);
}
);
width = 1152;
}
);
unicode = 0059;
},
{
glyphname = Z;
lastChange = "2021-12-20 06:18:11 +0000";
layers = (
{
anchors = (
{
name = bottom;
position = "{602, 0}";
},
{
name = top;
position = "{596, 1474}";
}
);
guideLines = (
{
angle = 58;
position = "{178, 112}";
}
);
layerId = "AB099EFE-E788-4EFC-8633-CF147CB782A6";
paths = (
{
closed = 1;
nodes = (
"136 0 LINE",
"1012 0 LINE",
"1012 60 LINE",
"226 60 LINE",
"226 64 LINE",
"992 1438 LINE",
"992 1474 LINE",
"184 1474 LINE",
"184 1414 LINE",
"904 1414 LINE",
"904 1410 LINE",
"136 36 LINE"
);
}
);
width = 1152;
},
{
anchors = (
{
name = bottom;
position = "{574, 0}";
},
{
name = top;
position = "{574, 1474}";
}
);
guideLines = (
{
angle = 63;
position = "{198, 112}";
}
);
layerId = "2D8F7115-C311-411E-929D-56333CF7FFB2";
paths = (
{
closed = 1;
nodes = (
"48 0 LINE",
"1108 0 LINE",
"1108 324 LINE",
"586 324 LINE",
"586 328 LINE",
"1094 1422 LINE",
"1094 1474 LINE",
"72 1474 LINE",
"72 1150 LINE",
"560 1150 LINE",
"560 1146 LINE",
"48 50 LINE"
);
}
);
width = 1152;
},
{
anchors = (
{
name = bottom;
position = "{590, 0}";
},
{
name = top;
position = "{586, 1474}";
}
);
layerId = "FD1CEFBD-BAB1-4C2A-A598-30E93F9A29F6";
paths = (
{
closed = 1;
nodes = (
"102 0 LINE",
"1048 0 LINE",
"1048 164 LINE",
"374 164 LINE",
"374 168 LINE",
"1036 1434 LINE",
"1036 1474 LINE",
"142 1474 LINE",
"142 1310 LINE",
"766 1310 LINE",
"766 1306 LINE",
"102 40 LINE"
);
}
);
width = 1152;
}
);
unicode = 005A;
},
{
glyphname = a;
lastChange = "2022-02-06 08:11:00 +0000";
layers = (
{
anchors = (
{
name = bottom;
position = "{550, 0}";
},
{
name = ogonek;
position = "{986, -16}";
},
{
name = top;
position = "{566, 1048}";
}
);
guideLines = (
{
angle = 67.5;
position = "{986, -16}";
},
{
angle = 112.5;
position = "{240, 898}";
}
);
layerId = "AB099EFE-E788-4EFC-8633-CF147CB782A6";
paths = (
{
closed = 1;
nodes = (
"650 -16 OFFCURVE",
"782 78 OFFCURVE",
"850 188 CURVE",
"834 180 LINE",
"858 180 LINE",
"850 188 LINE",
"864 96 OFFCURVE",
"890 32 OFFCURVE",
"962 -4 CURVE SMOOTH",
"986 -16 LINE",
"1008 38 LINE",
"1000 42 LINE SMOOTH",
"948 68 OFFCURVE",
"910 132 OFFCURVE",
"910 232 CURVE SMOOTH",
"910 684 LINE SMOOTH",
"910 896 OFFCURVE",
"846 1064 OFFCURVE",
"566 1064 CURVE SMOOTH",
"462 1064 OFFCURVE",
"300 1016 OFFCURVE",
"218 952 CURVE",
"240 898 LINE",
"320 958 OFFCURVE",
"472 1008 OFFCURVE",
"562 1008 CURVE SMOOTH",
"796 1008 OFFCURVE",
"850 878 OFFCURVE",
"850 692 CURVE SMOOTH",
"850 562 LINE",
"850 552 LINE",
"850 360 LINE SMOOTH",
"850 194 OFFCURVE",
"662 40 OFFCURVE",
"482 40 CURVE SMOOTH",
"328 40 OFFCURVE",
"204 148 OFFCURVE",
"204 286 CURVE SMOOTH",
"204 452 OFFCURVE",
"362 564 OFFCURVE",
"668 564 CURVE SMOOTH",
"874 564 LINE",
"874 620 LINE",
"670 620 LINE SMOOTH",
"330 620 OFFCURVE",
"144 490 OFFCURVE",
"144 286 CURVE SMOOTH",
"144 112 OFFCURVE",
"292 -16 OFFCURVE",
"482 -16 CURVE SMOOTH"
);
}
);
width = 1152;
},
{
anchors = (
{
name = bottom;
position = "{564, 0}";
},
{
name = ogonek;
position = "{982, -16}";
},
{
name = top;
position = "{590, 1080}";
}
);
guideLines = (
{
angle = 67.5;
position = "{986, -16}";
},
{
angle = 112.5;
position = "{174, 898}";
}
);
layerId = "2D8F7115-C311-411E-929D-56333CF7FFB2";
paths = (
{
closed = 1;
nodes = (
"590 -16 OFFCURVE",
"726 58 OFFCURVE",
"762 140 CURVE",
"656 118 LINE",
"816 118 LINE",
"728 180 LINE",
"748 100 OFFCURVE",
"822 30 OFFCURVE",
"940 -4 CURVE SMOOTH",
"982 -16 LINE",
"1104 278 LINE",
"1080 286 LINE SMOOTH",
"1042 299 OFFCURVE",
"1024 334 OFFCURVE",
"1024 398 CURVE SMOOTH",
"1024 712 LINE SMOOTH",
"1024 946 OFFCURVE",
"846 1098 OFFCURVE",
"566 1098 CURVE SMOOTH",
"420 1098 OFFCURVE",
"248 1060 OFFCURVE",
"146 998 CURVE",
"258 730 LINE",
"334 780 OFFCURVE",
"444 816 OFFCURVE",
"546 816 CURVE SMOOTH",
"630 816 OFFCURVE",
"688 792 OFFCURVE",
"688 708 CURVE SMOOTH",
"688 552 LINE",
"708 512 LINE",
"708 374 LINE SMOOTH",
"708 294 OFFCURVE",
"628 240 OFFCURVE",
"544 240 CURVE SMOOTH",
"468 240 OFFCURVE",
"426 286 OFFCURVE",
"426 344 CURVE SMOOTH",
"426 408 OFFCURVE",
"476 448 OFFCURVE",
"550 448 CURVE SMOOTH",
"742 448 LINE",
"742 656 LINE",
"474 656 LINE SMOOTH",
"240 656 OFFCURVE",
"88 514 OFFCURVE",
"88 320 CURVE SMOOTH",
"88 138 OFFCURVE",
"220 -16 OFFCURVE",
"438 -16 CURVE SMOOTH"
);
}
);
width = 1152;
},
{
anchors = (
{
name = bottom;
position = "{576, 0}";
},
{
name = ogonek;
position = "{980, -16}";
},
{
name = top;
position = "{584, 1060}";
}
);
background = {
anchors = (
{
name = bottom;
position = "{554, 0}";
},
{
name = ogonek;
position = "{960, -16}";
},
{
name = top;
position = "{562, 1060}";
}
);
paths = (
{
closed = 1;
nodes = (
"630 -16 OFFCURVE",
"762 70 OFFCURVE",
"814 176 CURVE",
"770 148 LINE",
"836 148 LINE",
"802 160 LINE",
"802 98 OFFCURVE",
"863 28 OFFCURVE",
"938 -4 CURVE SMOOTH",
"966 -16 LINE",
"1032 140 LINE",
"1012 148 LINE SMOOTH",
"962 168 OFFCURVE",
"946 218 OFFCURVE",
"946 308 CURVE SMOOTH",
"946 680 LINE SMOOTH",
"946 890 OFFCURVE",
"864 1078 OFFCURVE",
"576 1078 CURVE SMOOTH",
"442 1078 OFFCURVE",
"290 1036 OFFCURVE",
"184 974 CURVE",
"250 820 LINE",
"332 878 OFFCURVE",
"462 918 OFFCURVE",
"560 918 CURVE SMOOTH",
"782 918 OFFCURVE",
"782 746 OFFCURVE",
"782 676 CURVE SMOOTH",
"782 558 LINE",
"786 496 LINE",
"786 386 LINE SMOOTH",
"786 222 OFFCURVE",
"614 132 OFFCURVE",
"482 132 CURVE SMOOTH",
"372 132 OFFCURVE",
"282 194 OFFCURVE",
"282 300 CURVE SMOOTH",
"282 456 OFFCURVE",
"454 492 OFFCURVE",
"610 492 CURVE SMOOTH",
"818 492 LINE",
"818 630 LINE",
"598 630 LINE SMOOTH",
"266 630 OFFCURVE",
"114 492 OFFCURVE",
"114 300 CURVE SMOOTH",
"114 102 OFFCURVE",
"266 -16 OFFCURVE",
"462 -16 CURVE SMOOTH"
);
}
);
};
guideLines = (
{
angle = 67.5;
position = "{980, -16}";
},
{
angle = 112.5;
position = "{230, 898}";
}
);
layerId = "FD1CEFBD-BAB1-4C2A-A598-30E93F9A29F6";
paths = (
{
closed = 1;
nodes = (
"644 -16 OFFCURVE",
"776 70 OFFCURVE",
"828 176 CURVE",
"784 148 LINE",
"850 148 LINE",
"816 160 LINE",
"816 98 OFFCURVE",
"877 28 OFFCURVE",
"952 -4 CURVE SMOOTH",
"980 -16 LINE",
"1044 140 LINE",
"1024 148 LINE SMOOTH",
"974 168 OFFCURVE",
"960 218 OFFCURVE",
"960 308 CURVE SMOOTH",
"960 680 LINE SMOOTH",
"960 890 OFFCURVE",
"878 1078 OFFCURVE",
"590 1078 CURVE SMOOTH",
"456 1078 OFFCURVE",
"304 1036 OFFCURVE",
"198 974 CURVE",
"262 820 LINE",
"344 878 OFFCURVE",
"476 918 OFFCURVE",
"574 918 CURVE SMOOTH",
"796 918 OFFCURVE",
"796 746 OFFCURVE",
"796 676 CURVE SMOOTH",
"796 558 LINE",
"800 496 LINE",
"800 386 LINE SMOOTH",
"800 222 OFFCURVE",
"628 132 OFFCURVE",
"496 132 CURVE SMOOTH",
"386 132 OFFCURVE",
"296 194 OFFCURVE",
"296 300 CURVE SMOOTH",
"296 456 OFFCURVE",
"468 506 OFFCURVE",
"624 506 CURVE SMOOTH",
"832 506 LINE",
"832 644 LINE",
"612 644 LINE SMOOTH",
"280 644 OFFCURVE",
"128 492 OFFCURVE",
"128 300 CURVE SMOOTH",
"128 102 OFFCURVE",
"280 -16 OFFCURVE",
"476 -16 CURVE SMOOTH"
);
}
);
width = 1152;
}
);
unicode = 0061;
},
{
color = 4;
glyphname = a.ss01;
lastChange = "2022-02-07 00:06:16 +0000";
layers = (
{
anchors = (
{
name = bottom;
position = "{556, 0}";
},
{
name = center;
position = "{576, 524}";
},
{
name = ogonek;
position = "{980, 0}";
},
{
name = top;
position = "{576, 1048}";
}
);
layerId = "AB099EFE-E788-4EFC-8633-CF147CB782A6";
paths = (
{
closed = 1;
nodes = (
"980 0 LINE",
"980 1048 LINE",
"920 1048 LINE",
"920 810 LINE",
"900 810 LINE",
"924 760 LINE",
"924 288 LINE",
"896 240 LINE",
"920 240 LINE",
"920 0 LINE"
);
},
{
closed = 1;
nodes = (
"786 -16 OFFCURVE",
"976 204 OFFCURVE",
"976 524 CURVE SMOOTH",
"976 848 OFFCURVE",
"784 1064 OFFCURVE",
"548 1064 CURVE SMOOTH",
"312 1064 OFFCURVE",
"124 846 OFFCURVE",
"124 524 CURVE SMOOTH",
"124 204 OFFCURVE",
"312 -16 OFFCURVE",
"548 -16 CURVE SMOOTH"
);
},
{
closed = 1;
nodes = (
"346 40 OFFCURVE",
"184 238 OFFCURVE",
"184 524 CURVE SMOOTH",
"184 818 OFFCURVE",
"346 1008 OFFCURVE",
"552 1008 CURVE SMOOTH",
"760 1008 OFFCURVE",
"922 816 OFFCURVE",
"922 524 CURVE SMOOTH",
"922 240 OFFCURVE",
"760 40 OFFCURVE",
"552 40 CURVE SMOOTH"
);
}
);
width = 1152;
},
{
anchors = (
{
name = bottom;
position = "{598, 0}";
},
{
name = center;
position = "{592, 540}";
},
{
name = ogonek;
position = "{1056, 0}";
},
{
name = top;
position = "{608, 1080}";
}
);
layerId = "2D8F7115-C311-411E-929D-56333CF7FFB2";
paths = (
{
closed = 1;
nodes = (
"1056 0 LINE",
"1056 1080 LINE",
"724 1080 LINE",
"724 966 LINE",
"688 966 LINE",
"730 860 LINE",
"730 180 LINE",
"698 128 LINE",
"724 128 LINE",
"724 0 LINE"
);
},
{
closed = 1;
nodes = (
"685 -16 OFFCURVE",
"832 232 OFFCURVE",
"832 540 CURVE SMOOTH",
"832 864 OFFCURVE",
"695 1096 OFFCURVE",
"464 1096 CURVE SMOOTH",
"218 1096 OFFCURVE",
"40 860 OFFCURVE",
"40 540 CURVE SMOOTH",
"40 220 OFFCURVE",
"212 -16 OFFCURVE",
"450 -16 CURVE SMOOTH"
);
},
{
closed = 1;
nodes = (
"444 286 OFFCURVE",
"374 396 OFFCURVE",
"374 540 CURVE SMOOTH",
"374 690 OFFCURVE",
"446 792 OFFCURVE",
"546 792 CURVE SMOOTH",
"648 792 OFFCURVE",
"722 688 OFFCURVE",
"722 540 CURVE SMOOTH",
"722 394 OFFCURVE",
"648 286 OFFCURVE",
"546 286 CURVE SMOOTH"
);
}
);
width = 1152;
},
{
anchors = (
{
name = bottom;
position = "{570, 0}";
},
{
name = center;
position = "{580, 536}";
},
{
name = ogonek;
position = "{1012, 0}";
},
{
name = top;
position = "{588, 1060}";
}
);
layerId = "FD1CEFBD-BAB1-4C2A-A598-30E93F9A29F6";
paths = (
{
closed = 1;
nodes = (
"1012 0 LINE",
"1012 1060 LINE",
"842 1060 LINE",
"842 910 LINE",
"818 910 LINE",
"856 852 LINE",
"856 208 LINE",
"818 152 LINE",
"842 152 LINE",
"842 0 LINE"
);
},
{
closed = 1;
nodes = (
"782 -16 OFFCURVE",
"940 238 OFFCURVE",
"940 532 CURVE SMOOTH",
"940 852 OFFCURVE",
"774 1076 OFFCURVE",
"524 1076 CURVE SMOOTH",
"276 1076 OFFCURVE",
"80 854 OFFCURVE",
"80 532 CURVE SMOOTH",
"80 210 OFFCURVE",
"274 -16 OFFCURVE",
"522 -16 CURVE SMOOTH"
);
},
{
closed = 1;
nodes = (
"378 144 OFFCURVE",
"254 318 OFFCURVE",
"254 532 CURVE SMOOTH",
"254 754 OFFCURVE",
"386 916 OFFCURVE",
"552 916 CURVE SMOOTH",
"720 916 OFFCURVE",
"848 758 OFFCURVE",
"848 530 CURVE SMOOTH",
"848 294 OFFCURVE",
"714 144 OFFCURVE",
"550 144 CURVE SMOOTH"
);
}
);
width = 1152;
}
);
},
{
color = 6;
glyphname = a.ss02;
lastChange = "2021-12-20 06:18:11 +0000";
layers = (
{
anchors = (
{
name = bottom;
position = "{550, 0}";
},
{
name = ogonek;
position = "{1020, -16}";
},
{
name = top;
position = "{552, 1048}";
},
{
name = topright;
position = "{1076, 1048}";
}
);
layerId = "AB099EFE-E788-4EFC-8633-CF147CB782A6";
paths = (
{
closed = 1;
nodes = (
"1044 38 LINE",
"988 70 OFFCURVE",
"958 106 OFFCURVE",
"958 220 CURVE SMOOTH",
"958 1048 LINE",
"898 1048 LINE",
"898 834 LINE",
"876 834 LINE",
"902 748 LINE",
"902 294 LINE",
"880 222 LINE",
"906 222 LINE",
"900 234 LINE",
"902 84 OFFCURVE",
"936 40 OFFCURVE",
"1020 -16 CURVE"
);
},
{
closed = 1;
nodes = (
"758 -16 OFFCURVE",
"954 160 OFFCURVE",
"954 528 CURVE SMOOTH",
"954 898 OFFCURVE",
"762 1064 OFFCURVE",
"534 1064 CURVE SMOOTH",
"282 1064 OFFCURVE",
"112 862 OFFCURVE",
"112 524 CURVE SMOOTH",
"112 190 OFFCURVE",
"284 -16 OFFCURVE",
"534 -16 CURVE SMOOTH"
);
},
{
closed = 1;
nodes = (
"328 38 OFFCURVE",
"172 232 OFFCURVE",
"172 524 CURVE SMOOTH",
"172 826 OFFCURVE",
"324 1010 OFFCURVE",
"532 1010 CURVE SMOOTH",
"724 1010 OFFCURVE",
"898 850 OFFCURVE",
"898 524 CURVE SMOOTH",
"898 246 OFFCURVE",
"746 38 OFFCURVE",
"532 38 CURVE SMOOTH"
);
}
);
width = 1152;
},
{
anchors = (
{
name = bottom;
position = "{554, 0}";
},
{
name = ogonek;
position = "{1002, -16}";
},
{
name = top;
position = "{554, 1080}";
},
{
name = topright;
position = "{1106, 1080}";
}
);
layerId = "2D8F7115-C311-411E-929D-56333CF7FFB2";
paths = (
{
closed = 1;
nodes = (
"1124 278 LINE",
"1062 304 OFFCURVE",
"1048 318 OFFCURVE",
"1048 418 CURVE SMOOTH",
"1048 1080 LINE",
"718 1080 LINE",
"718 982 LINE",
"672 982 LINE",
"716 886 LINE",
"716 274 LINE",
"678 144 LINE",
"762 144 LINE",
"746 160 LINE",
"778 80 OFFCURVE",
"860 22 OFFCURVE",
"1002 -16 CURVE"
);
},
{
closed = 1;
nodes = (
"692 -16 OFFCURVE",
"884 246 OFFCURVE",
"884 552 CURVE SMOOTH",
"884 848 OFFCURVE",
"706 1098 OFFCURVE",
"458 1098 CURVE SMOOTH",
"250 1098 OFFCURVE",
"28 914 OFFCURVE",
"28 536 CURVE SMOOTH",
"28 152 OFFCURVE",
"254 -16 OFFCURVE",
"446 -16 CURVE SMOOTH"
);
},
{
closed = 1;
nodes = (
"434 278 OFFCURVE",
"366 382 OFFCURVE",
"366 544 CURVE SMOOTH",
"366 706 OFFCURVE",
"438 802 OFFCURVE",
"540 802 CURVE SMOOTH",
"640 802 OFFCURVE",
"710 704 OFFCURVE",
"710 544 CURVE SMOOTH",
"710 382 OFFCURVE",
"634 278 OFFCURVE",
"532 278 CURVE SMOOTH"
);
}
);
width = 1152;
},
{
anchors = (
{
name = bottom;
position = "{566, 0}";
},
{
name = ogonek;
position = "{1014, -16}";
},
{
name = top;
position = "{576, 1060}";
},
{
name = topright;
position = "{1102, 1060}";
}
);
layerId = "FD1CEFBD-BAB1-4C2A-A598-30E93F9A29F6";
paths = (
{
closed = 1;
nodes = (
"1078 140 LINE",
"1014 168 OFFCURVE",
"1000 208 OFFCURVE",
"1000 300 CURVE SMOOTH",
"1000 1060 LINE",
"830 1060 LINE",
"830 928 LINE",
"780 928 LINE",
"848 824 LINE",
"848 290 LINE",
"804 164 LINE",
"886 164 LINE",
"848 196 LINE",
"858 90 OFFCURVE",
"906 38 OFFCURVE",
"1014 -16 CURVE"
);
},
{
closed = 1;
nodes = (
"758 -16 OFFCURVE",
"942 214 OFFCURVE",
"942 532 CURVE SMOOTH",
"942 856 OFFCURVE",
"760 1078 OFFCURVE",
"516 1078 CURVE SMOOTH",
"280 1078 OFFCURVE",
"78 866 OFFCURVE",
"78 532 CURVE SMOOTH",
"78 202 OFFCURVE",
"282 -16 OFFCURVE",
"516 -16 CURVE SMOOTH"
);
},
{
closed = 1;
nodes = (
"376 140 OFFCURVE",
"252 308 OFFCURVE",
"252 532 CURVE SMOOTH",
"252 762 OFFCURVE",
"376 922 OFFCURVE",
"548 922 CURVE SMOOTH",
"708 922 OFFCURVE",
"840 770 OFFCURVE",
"840 532 CURVE SMOOTH",
"840 308 OFFCURVE",
"714 140 OFFCURVE",
"548 140 CURVE SMOOTH"
);
}
);
width = 1152;
}
);
leftMetricsKey = o;
rightMetricsKey = u;
},
{
glyphname = ae;
lastChange = "2022-02-01 08:24:18 +0000";
layers = (
{
anchors = (
{
name = bottom;
position = "{552, 0}";
},
{
name = top;
position = "{544, 1048}";
}
);
layerId = "AB099EFE-E788-4EFC-8633-CF147CB782A6";
paths = (
{
closed = 1;
nodes = (
"426 -16 OFFCURVE",
"542 100 OFFCURVE",
"564 294 CURVE",
"552 294 LINE",
"580 110 OFFCURVE",
"688 -16 OFFCURVE",
"836 -16 CURVE SMOOTH",
"930 -16 OFFCURVE",
"1030 40 OFFCURVE",
"1084 94 CURVE",
"1060 150 LINE",
"1014 96 OFFCURVE",
"922 40 OFFCURVE",
"834 40 CURVE SMOOTH",
"674 40 OFFCURVE",
"578 240 OFFCURVE",
"578 528 CURVE SMOOTH",
"578 814 OFFCURVE",
"674 1008 OFFCURVE",
"822 1008 CURVE SMOOTH",
"964 1008 OFFCURVE",
"1056 830 OFFCURVE",
"1056 570 CURVE",
"566 570 LINE",
"568 514 LINE",
"1112 514 LINE",
"1114 546 OFFCURVE",
"1116 562 OFFCURVE",
"1116 596 CURVE SMOOTH",
"1116 868 OFFCURVE",
"998 1064 OFFCURVE",
"828 1064 CURVE SMOOTH",
"698 1064 OFFCURVE",
"592 948 OFFCURVE",
"556 780 CURVE",
"572 780 LINE",
"556 946 OFFCURVE",
"464 1064 OFFCURVE",
"328 1064 CURVE SMOOTH",
"256 1064 OFFCURVE",
"144 1032 OFFCURVE",
"66 976 CURVE",
"92 926 LINE",
"160 978 OFFCURVE",
"262 1008 OFFCURVE",
"320 1008 CURVE SMOOTH",
"436 1008 OFFCURVE",
"520 884 OFFCURVE",
"520 694 CURVE SMOOTH",
"520 398 LINE SMOOTH",
"520 186 OFFCURVE",
"428 40 OFFCURVE",
"294 40 CURVE SMOOTH",
"188 40 OFFCURVE",
"100 136 OFFCURVE",
"100 270 CURVE SMOOTH",
"100 418 OFFCURVE",
"210 514 OFFCURVE",
"410 514 CURVE SMOOTH",
"534 514 LINE",
"534 570 LINE",
"412 570 LINE SMOOTH",
"178 570 OFFCURVE",
"40 452 OFFCURVE",
"40 270 CURVE SMOOTH",
"40 102 OFFCURVE",
"158 -16 OFFCURVE",
"290 -16 CURVE SMOOTH"
);
}
);
width = 1152;
},
{
anchors = (
{
name = bottom;
position = "{582, 0}";
},
{
name = top;
position = "{590, 1078}";
}
);
background = {
components = (
{
name = a;
transform = "{0.99782, 0, 0, 1, 0, 0}";
},
{
name = e;
transform = "{0.94969, 0, 0, 1, 678, 0}";
}
);
};
layerId = "2D8F7115-C311-411E-929D-56333CF7FFB2";
paths = (
{
closed = 1;
nodes = (
"468 -16 OFFCURVE",
"592 84 OFFCURVE",
"600 222 CURVE",
"518 222 LINE",
"568 82 OFFCURVE",
"712 -16 OFFCURVE",
"862 -16 CURVE SMOOTH",
"966 -16 OFFCURVE",
"1084 28 OFFCURVE",
"1114 66 CURVE",
"1024 318 LINE",
"972 266 OFFCURVE",
"912 246 OFFCURVE",
"870 246 CURVE SMOOTH",
"760 246 OFFCURVE",
"676 382 OFFCURVE",
"676 580 CURVE SMOOTH",
"676 734 OFFCURVE",
"726 830 OFFCURVE",
"792 830 CURVE SMOOTH",
"850 830 OFFCURVE",
"870 756 OFFCURVE",
"870 644 CURVE",
"642 644 LINE",
"656 442 LINE",
"1114 442 LINE",
"1120 472 OFFCURVE",
"1126 560 OFFCURVE",
"1126 618 CURVE SMOOTH",
"1126 912 OFFCURVE",
"1002 1096 OFFCURVE",
"814 1096 CURVE SMOOTH",
"686 1096 OFFCURVE",
"570 1016 OFFCURVE",
"554 908 CURVE",
"644 908 LINE",
"604 1030 OFFCURVE",
"514 1096 OFFCURVE",
"364 1096 CURVE SMOOTH",
"246 1096 OFFCURVE",
"140 1060 OFFCURVE",
"74 1014 CURVE",
"166 762 LINE",
"204 794 OFFCURVE",
"280 830 OFFCURVE",
"344 830 CURVE SMOOTH",
"394 830 OFFCURVE",
"444 802 OFFCURVE",
"444 694 CURVE SMOOTH",
"444 410 LINE SMOOTH",
"444 308 OFFCURVE",
"418 236 OFFCURVE",
"364 236 CURVE SMOOTH",
"328 236 OFFCURVE",
"296 274 OFFCURVE",
"296 328 CURVE SMOOTH",
"296 396 OFFCURVE",
"348 442 OFFCURVE",
"420 442 CURVE SMOOTH",
"480 442 LINE",
"480 644 LINE",
"342 644 LINE SMOOTH",
"160 644 OFFCURVE",
"24 524 OFFCURVE",
"24 322 CURVE SMOOTH",
"24 140 OFFCURVE",
"130 -16 OFFCURVE",
"314 -16 CURVE SMOOTH"
);
}
);
width = 1152;
},
{
anchors = (
{
name = bottom;
position = "{572, 0}";
},
{
name = top;
position = "{572, 1060}";
}
);
layerId = "FD1CEFBD-BAB1-4C2A-A598-30E93F9A29F6";
paths = (
{
closed = 1;
nodes = (
"454 -16 OFFCURVE",
"558 120 OFFCURVE",
"580 246 CURVE",
"540 246 LINE",
"598 82 OFFCURVE",
"686 -16 OFFCURVE",
"848 -16 CURVE SMOOTH",
"926 -16 OFFCURVE",
"1018 18 OFFCURVE",
"1086 72 CURVE",
"1022 226 LINE",
"965 174 OFFCURVE",
"897 142 OFFCURVE",
"848 142 CURVE SMOOTH",
"694 142 OFFCURVE",
"620 290 OFFCURVE",
"620 534 CURVE SMOOTH",
"620 776 OFFCURVE",
"700 920 OFFCURVE",
"818 920 CURVE SMOOTH",
"926 920 OFFCURVE",
"970 796 OFFCURVE",
"968 610 CURVE",
"600 610 LINE",
"606 470 LINE",
"1108 470 LINE",
"1114 494 OFFCURVE",
"1116 534 OFFCURVE",
"1116 574 CURVE SMOOTH",
"1116 884 OFFCURVE",
"1014 1076 OFFCURVE",
"826 1076 CURVE SMOOTH",
"698 1076 OFFCURVE",
"592 988 OFFCURVE",
"554 864 CURVE",
"602 864 LINE",
"576 990 OFFCURVE",
"504 1076 OFFCURVE",
"350 1076 CURVE SMOOTH",
"242 1076 OFFCURVE",
"138 1032 OFFCURVE",
"80 994 CURVE",
"134 848 LINE",
"176 880 OFFCURVE",
"264 920 OFFCURVE",
"344 920 CURVE SMOOTH",
"492 920 OFFCURVE",
"488 788 OFFCURVE",
"488 614 CURVE SMOOTH",
"488 390 LINE SMOOTH",
"488 240 OFFCURVE",
"406 140 OFFCURVE",
"320 140 CURVE SMOOTH",
"252 140 OFFCURVE",
"198 204 OFFCURVE",
"198 296 CURVE SMOOTH",
"198 414 OFFCURVE",
"288 470 OFFCURVE",
"412 470 CURVE SMOOTH",
"512 470 LINE",
"512 610 LINE",
"390 610 LINE SMOOTH",
"170 610 OFFCURVE",
"36 502 OFFCURVE",
"36 294 CURVE SMOOTH",
"36 108 OFFCURVE",
"142 -16 OFFCURVE",
"294 -16 CURVE SMOOTH"
);
}
);
width = 1152;
},
{
anchors = (
{
name = bottom;
position = "{576, 0}";
},
{
name = top;
position = "{580, 1068}";
}
);
associatedMasterId = "FD1CEFBD-BAB1-4C2A-A598-30E93F9A29F6";
layerId = "8DFE1C2D-345E-4B3A-9448-FEAF072D91AD";
name = "{120}";
paths = (
{
closed = 1;
nodes = (
"460 -16 OFFCURVE",
"574 102 OFFCURVE",
"590 234 CURVE",
"528 234 LINE",
"584 82 OFFCURVE",
"698 -16 OFFCURVE",
"854 -16 CURVE SMOOTH",
"944 -16 OFFCURVE",
"1050 22 OFFCURVE",
"1100 70 CURVE",
"1022 270 LINE",
"968 218 OFFCURVE",
"902 192 OFFCURVE",
"858 192 CURVE SMOOTH",
"726 192 OFFCURVE",
"646 334 OFFCURVE",
"646 556 CURVE SMOOTH",
"646 754 OFFCURVE",
"712 878 OFFCURVE",
"806 878 CURVE SMOOTH",
"888 878 OFFCURVE",
"922 776 OFFCURVE",
"920 626 CURVE",
"620 626 LINE",
"630 456 LINE",
"1110 456 LINE",
"1116 484 OFFCURVE",
"1120 538 OFFCURVE",
"1120 594 CURVE SMOOTH",
"1120 896 OFFCURVE",
"1008 1086 OFFCURVE",
"820 1086 CURVE SMOOTH",
"694 1086 OFFCURVE",
"580 1002 OFFCURVE",
"554 884 CURVE",
"622 884 LINE",
"588 1012 OFFCURVE",
"506 1086 OFFCURVE",
"356 1086 CURVE SMOOTH",
"246 1086 OFFCURVE",
"138 1046 OFFCURVE",
"76 1004 CURVE",
"148 806 LINE",
"196 844 OFFCURVE",
"278 878 OFFCURVE",
"344 878 CURVE SMOOTH",
"444 878 OFFCURVE",
"466 796 OFFCURVE",
"466 652 CURVE SMOOTH",
"466 400 LINE SMOOTH",
"466 274 OFFCURVE",
"412 186 OFFCURVE",
"340 186 CURVE SMOOTH",
"288 186 OFFCURVE",
"244 238 OFFCURVE",
"244 312 CURVE SMOOTH",
"244 406 OFFCURVE",
"318 456 OFFCURVE",
"416 456 CURVE SMOOTH",
"496 456 LINE",
"496 626 LINE",
"366 626 LINE SMOOTH",
"166 626 OFFCURVE",
"30 512 OFFCURVE",
"30 308 CURVE SMOOTH",
"30 124 OFFCURVE",
"136 -16 OFFCURVE",
"304 -16 CURVE SMOOTH"
);
}
);
width = 1152;
}
);
unicode = 00E6;
},
{
glyphname = b;
lastChange = "2021-12-20 07:46:09 +0000";
layers = (
{
anchors = (
{
name = bottom;
position = "{586, 0}";
},
{
name = center;
position = "{226, 1262}";
},
{
name = top;
position = "{632, 1156}";
}
);
components = (
{
name = _part.bowl;
}
);
layerId = "AB099EFE-E788-4EFC-8633-CF147CB782A6";
paths = (
{
closed = 1;
nodes = (
"200 0 LINE",
"260 0 LINE",
"260 224 LINE",
"288 224 LINE",
"250 312 LINE",
"250 728 LINE",
"280 834 LINE",
"260 834 LINE",
"260 1540 LINE",
"200 1540 LINE"
);
}
);
width = 1152;
},
{
anchors = (
{
name = bottom;
position = "{578, 0}";
},
{
name = center;
position = "{272, 1298}";
},
{
name = top;
position = "{728, 1164}";
}
);
components = (
{
name = _part.bowl;
}
);
layerId = "2D8F7115-C311-411E-929D-56333CF7FFB2";
paths = (
{
closed = 1;
nodes = (
"96 0 LINE",
"428 0 LINE",
"428 114 LINE",
"470 114 LINE",
"428 226 LINE",
"428 816 LINE",
"472 1000 LINE",
"448 1000 LINE",
"448 1540 LINE",
"96 1540 LINE"
);
}
);
width = 1152;
},
{
anchors = (
{
name = bottom;
position = "{584, 0}";
},
{
name = center;
position = "{242, 1278}";
},
{
name = top;
position = "{670, 1160}";
}
);
components = (
{
name = _part.bowl;
}
);
layerId = "FD1CEFBD-BAB1-4C2A-A598-30E93F9A29F6";
paths = (
{
closed = 1;
nodes = (
"156 0 LINE",
"326 0 LINE",
"326 144 LINE",
"354 144 LINE",
"306 246 LINE",
"306 816 LINE",
"346 926 LINE",
"328 926 LINE",
"328 1540 LINE",
"156 1540 LINE"
);
}
);
width = 1152;
}
);
leftMetricsKey = h;
unicode = 0062;
},
{
color = 4;
glyphname = b.ss01;
lastChange = "2022-02-01 23:59:56 +0000";
layers = (
{
anchors = (
{
name = bottom;
position = "{552, 0}";
},
{
name = center;
position = "{194, 1262}";
},
{
name = top;
position = "{596, 1156}";
}
);
layerId = "AB099EFE-E788-4EFC-8633-CF147CB782A6";
paths = (
{
closed = 1;
nodes = (
"164 0 LINE",
"224 0 LINE",
"224 240 LINE",
"242 240 LINE",
"220 272 LINE",
"220 744 LINE",
"236 804 LINE",
"224 804 LINE",
"224 1540 LINE",
"164 1540 LINE"
);
},
{
closed = 1;
nodes = (
"844 -16 OFFCURVE",
"1036 202 OFFCURVE",
"1036 524 CURVE SMOOTH",
"1036 848 OFFCURVE",
"844 1064 OFFCURVE",
"604 1064 CURVE SMOOTH",
"362 1064 OFFCURVE",
"168 848 OFFCURVE",
"168 524 CURVE SMOOTH",
"168 200 OFFCURVE",
"362 -16 OFFCURVE",
"604 -16 CURVE SMOOTH"
);
},
{
closed = 1;
nodes = (
"388 40 OFFCURVE",
"222 238 OFFCURVE",
"222 524 CURVE SMOOTH",
"222 818 OFFCURVE",
"388 1008 OFFCURVE",
"600 1008 CURVE SMOOTH",
"810 1008 OFFCURVE",
"976 818 OFFCURVE",
"976 524 CURVE SMOOTH",
"976 236 OFFCURVE",
"810 40 OFFCURVE",
"600 40 CURVE SMOOTH"
);
}
);
width = 1152;
},
{
anchors = (
{
name = bottom;
position = "{572, 0}";
},
{
name = center;
position = "{256, 1298}";
},
{
name = top;
position = "{720, 1164}";
}
);
layerId = "2D8F7115-C311-411E-929D-56333CF7FFB2";
paths = (
{
closed = 1;
nodes = (
"84 0 LINE",
"416 0 LINE",
"416 120 LINE",
"460 120 LINE",
"406 226 LINE",
"406 816 LINE",
"458 1002 LINE",
"436 1002 LINE",
"436 1540 LINE",
"84 1540 LINE"
);
},
{
closed = 1;
nodes = (
"932 -16 OFFCURVE",
"1112 220 OFFCURVE",
"1112 540 CURVE SMOOTH",
"1112 860 OFFCURVE",
"926 1096 OFFCURVE",
"670 1096 CURVE SMOOTH",
"432 1096 OFFCURVE",
"302 868 OFFCURVE",
"302 540 CURVE SMOOTH",
"302 228 OFFCURVE",
"440 -16 OFFCURVE",
"684 -16 CURVE SMOOTH"
);
},
{
closed = 1;
nodes = (
"490 286 OFFCURVE",
"414 396 OFFCURVE",
"414 540 CURVE SMOOTH",
"414 688 OFFCURVE",
"492 792 OFFCURVE",
"596 792 CURVE SMOOTH",
"704 792 OFFCURVE",
"778 686 OFFCURVE",
"778 540 CURVE SMOOTH",
"778 394 OFFCURVE",
"702 286 OFFCURVE",
"596 286 CURVE SMOOTH"
);
}
);
width = 1152;
},
{
anchors = (
{
name = bottom;
position = "{560, 0}";
},
{
name = center;
position = "{214, 1278}";
},
{
name = top;
position = "{642, 1160}";
}
);
layerId = "FD1CEFBD-BAB1-4C2A-A598-30E93F9A29F6";
paths = (
{
closed = 1;
nodes = (
"128 0 LINE",
"298 0 LINE",
"298 156 LINE",
"322 156 LINE",
"294 212 LINE",
"294 806 LINE",
"318 910 LINE",
"300 910 LINE",
"300 1540 LINE",
"128 1540 LINE"
);
},
{
closed = 1;
nodes = (
"882 -16 OFFCURVE",
"1080 210 OFFCURVE",
"1080 532 CURVE SMOOTH",
"1080 856 OFFCURVE",
"878 1076 OFFCURVE",
"628 1076 CURVE SMOOTH",
"374 1076 OFFCURVE",
"198 854 OFFCURVE",
"198 532 CURVE SMOOTH",
"198 236 OFFCURVE",
"364 -16 OFFCURVE",
"628 -16 CURVE SMOOTH"
);
},
{
closed = 1;
nodes = (
"430 144 OFFCURVE",
"294 296 OFFCURVE",
"294 530 CURVE SMOOTH",
"294 760 OFFCURVE",
"428 916 OFFCURVE",
"598 916 CURVE SMOOTH",
"770 916 OFFCURVE",
"906 754 OFFCURVE",
"906 532 CURVE SMOOTH",
"906 318 OFFCURVE",
"778 144 OFFCURVE",
"598 144 CURVE SMOOTH"
);
}
);
width = 1152;
}
);
leftMetricsKey = h;
rightMetricsKey = o;
},
{
glyphname = c;
lastChange = "2021-12-21 03:21:46 +0000";
layers = (
{
anchors = (
{
name = bottom;
position = "{660, 0}";
},
{
name = cedilla;
position = "{674, 0}";
},
{
name = top;
position = "{660, 1048}";
}
);
background = {
paths = (
{
closed = 1;
nodes = (
"762 -12 OFFCURVE",
"932 28 OFFCURVE",
"1020 146 CURVE",
"992 206 LINE",
"926 100 OFFCURVE",
"776 44 OFFCURVE",
"638 44 CURVE SMOOTH",
"374 44 OFFCURVE",
"192 254 OFFCURVE",
"192 528 CURVE SMOOTH",
"192 808 OFFCURVE",
"382 1008 OFFCURVE",
"654 1008 CURVE SMOOTH",
"802 1008 OFFCURVE",
"920 946 OFFCURVE",
"988 860 CURVE",
"1016 918 LINE",
"948 998 OFFCURVE",
"824 1064 OFFCURVE",
"658 1064 CURVE SMOOTH",
"350 1064 OFFCURVE",
"132 842 OFFCURVE",
"132 526 CURVE SMOOTH",
"132 218 OFFCURVE",
"338 -12 OFFCURVE",
"640 -12 CURVE SMOOTH"
);
}
);
};
layerId = "AB099EFE-E788-4EFC-8633-CF147CB782A6";
paths = (
{
closed = 1;
nodes = (
"780 -12 OFFCURVE",
"904 46 OFFCURVE",
"984 122 CURVE",
"956 180 LINE",
"890 100 OFFCURVE",
"778 44 OFFCURVE",
"646 44 CURVE SMOOTH",
"400 44 OFFCURVE",
"216 240 OFFCURVE",
"216 528 CURVE SMOOTH",
"216 814 OFFCURVE",
"398 1008 OFFCURVE",
"648 1008 CURVE SMOOTH",
"778 1008 OFFCURVE",
"886 954 OFFCURVE",
"950 886 CURVE",
"978 942 LINE",
"882 1024 OFFCURVE",
"764 1064 OFFCURVE",
"646 1064 CURVE SMOOTH",
"368 1064 OFFCURVE",
"156 846 OFFCURVE",
"156 528 CURVE SMOOTH",
"156 208 OFFCURVE",
"368 -12 OFFCURVE",
"640 -12 CURVE SMOOTH"
);
}
);
userData = {
RMXScaler = {
height = 71.5;
weight = 20;
width = 77;
};
};
width = 1152;
},
{
anchors = (
{
name = bottom;
position = "{662, 0}";
},
{
name = cedilla;
position = "{676, 0}";
},
{
name = top;
position = "{674, 1080}";
}
);
background = {
paths = (
{
closed = 1;
nodes = (
"848 -12 OFFCURVE",
"998 34 OFFCURVE",
"1078 110 CURVE",
"938 420 LINE",
"906 364 OFFCURVE",
"802 292 OFFCURVE",
"684 292 CURVE SMOOTH",
"538 292 OFFCURVE",
"440 394 OFFCURVE",
"440 544 CURVE SMOOTH",
"440 708 OFFCURVE",
"566 792 OFFCURVE",
"690 792 CURVE SMOOTH",
"804 792 OFFCURVE",
"894 712 OFFCURVE",
"944 656 CURVE",
"1088 958 LINE",
"988 1038 OFFCURVE",
"842 1096 OFFCURVE",
"672 1096 CURVE SMOOTH",
"340 1096 OFFCURVE",
"80 872 OFFCURVE",
"80 544 CURVE SMOOTH",
"80 214 OFFCURVE",
"330 -12 OFFCURVE",
"686 -12 CURVE SMOOTH"
);
}
);
};
layerId = "2D8F7115-C311-411E-929D-56333CF7FFB2";
paths = (
{
closed = 1;
nodes = (
"796 -12 OFFCURVE",
"932 24 OFFCURVE",
"1028 78 CURVE",
"902 364 LINE",
"852 320 OFFCURVE",
"764 288 OFFCURVE",
"686 288 CURVE SMOOTH",
"546 288 OFFCURVE",
"448 392 OFFCURVE",
"448 544 CURVE SMOOTH",
"448 694 OFFCURVE",
"550 796 OFFCURVE",
"696 796 CURVE SMOOTH",
"758 796 OFFCURVE",
"842 762 OFFCURVE",
"898 710 CURVE",
"1028 990 LINE",
"938 1050 OFFCURVE",
"792 1096 OFFCURVE",
"672 1096 CURVE SMOOTH",
"340 1096 OFFCURVE",
"112 870 OFFCURVE",
"112 544 CURVE SMOOTH",
"112 214 OFFCURVE",
"346 -12 OFFCURVE",
"688 -12 CURVE SMOOTH"
);
}
);
userData = {
RMXScaler = {
height = 73.5;
weight = -50;
width = 73;
};
};
width = 1152;
},
{
anchors = (
{
name = bottom;
position = "{654, 0}";
},
{
name = cedilla;
position = "{670, 0}";
},
{
name = top;
position = "{658, 1060}";
}
);
background = {
paths = (
{
closed = 1;
nodes = (
"800 -12 OFFCURVE",
"974 56 OFFCURVE",
"1054 154 CURVE",
"980 312 LINE",
"926 222 OFFCURVE",
"794 148 OFFCURVE",
"652 148 CURVE SMOOTH",
"440 148 OFFCURVE",
"292 306 OFFCURVE",
"292 534 CURVE SMOOTH",
"292 762 OFFCURVE",
"438 918 OFFCURVE",
"648 918 CURVE SMOOTH",
"784 918 OFFCURVE",
"914 848 OFFCURVE",
"974 758 CURVE",
"1050 914 LINE",
"968 1010 OFFCURVE",
"800 1078 OFFCURVE",
"632 1078 CURVE SMOOTH",
"328 1078 OFFCURVE",
"116 858 OFFCURVE",
"116 536 CURVE SMOOTH",
"116 212 OFFCURVE",
"328 -12 OFFCURVE",
"636 -12 CURVE SMOOTH"
);
}
);
};
layerId = "FD1CEFBD-BAB1-4C2A-A598-30E93F9A29F6";
paths = (
{
closed = 1;
nodes = (
"782 -12 OFFCURVE",
"918 38 OFFCURVE",
"1000 110 CURVE",
"934 258 LINE",
"882 198 OFFCURVE",
"774 148 OFFCURVE",
"666 148 CURVE SMOOTH",
"458 148 OFFCURVE",
"316 306 OFFCURVE",
"316 534 CURVE SMOOTH",
"316 762 OFFCURVE",
"456 918 OFFCURVE",
"658 918 CURVE SMOOTH",
"762 918 OFFCURVE",
"872 872 OFFCURVE",
"930 812 CURVE",
"996 958 LINE",
"906 1032 OFFCURVE",
"768 1078 OFFCURVE",
"654 1078 CURVE SMOOTH",
"350 1078 OFFCURVE",
"140 856 OFFCURVE",
"140 536 CURVE SMOOTH",
"140 212 OFFCURVE",
"352 -12 OFFCURVE",
"660 -12 CURVE SMOOTH"
);
}
);
userData = {
RMXScaler = {
height = 71.5;
weight = 20;
width = 77;
};
};
width = 1152;
}
);
unicode = 0063;
userData = {
RMXScaler = {
source = C;
};
};
},
{
glyphname = d;
lastChange = "2021-12-20 07:47:28 +0000";
layers = (
{
anchors = (
{
name = bottom;
position = "{574, 0}";
},
{
name = center;
position = "{928, 1262}";
},
{
name = leghookretroflex;
position = "{928, 0}";
},
{
name = top;
position = "{926, 1540}";
},
{
name = topright;
position = "{964, 1540}";
}
);
components = (
{
name = _part.bowl;
transform = "{-1, 0, 0, 1, 1152, 0}";
}
);
layerId = "AB099EFE-E788-4EFC-8633-CF147CB782A6";
paths = (
{
closed = 1;
nodes = (
"1036 38 LINE",
"988 64 OFFCURVE",
"952 138 OFFCURVE",
"952 232 CURVE SMOOTH",
"952 1540 LINE",
"890 1540 LINE",
"890 834 LINE",
"868 834 LINE",
"902 756 LINE",
"902 294 LINE",
"874 222 LINE",
"902 222 LINE",
"894 234 LINE",
"896 132 OFFCURVE",
"938 30 OFFCURVE",
"1008 -16 CURVE"
);
}
);
width = 1152;
},
{
anchors = (
{
name = bottom;
position = "{576, 0}";
},
{
name = center;
position = "{880, 1298}";
},
{
name = leghookretroflex;
position = "{884, 0}";
},
{
name = top;
position = "{884, 1540}";
},
{
name = topright;
position = "{1050, 1540}";
}
);
components = (
{
name = _part.bowl;
transform = "{-1, 0, 0, 1, 1152, 0}";
}
);
layerId = "2D8F7115-C311-411E-929D-56333CF7FFB2";
paths = (
{
closed = 1;
nodes = (
"1130 278 LINE",
"1085 295 OFFCURVE",
"1056 341 OFFCURVE",
"1056 394 CURVE SMOOTH",
"1056 1540 LINE",
"704 1540 LINE",
"704 1004 LINE",
"680 1004 LINE",
"724 892 LINE",
"724 274 LINE",
"686 144 LINE",
"770 144 LINE",
"754 160 LINE",
"779 92 OFFCURVE",
"879 23 OFFCURVE",
"1010 -16 CURVE"
);
}
);
width = 1152;
},
{
anchors = (
{
name = bottom;
position = "{568, 0}";
},
{
name = center;
position = "{910, 1274}";
},
{
name = leghookretroflex;
position = "{910, 0}";
},
{
name = top;
position = "{910, 1540}";
},
{
name = topright;
position = "{1070, 1540}";
}
);
components = (
{
name = _part.bowl;
transform = "{-1, 0, 0, 1, 1152, 0}";
}
);
layerId = "FD1CEFBD-BAB1-4C2A-A598-30E93F9A29F6";
paths = (
{
closed = 1;
nodes = (
"1072 140 LINE",
"1026 164 OFFCURVE",
"996 226 OFFCURVE",
"996 294 CURVE SMOOTH",
"996 1540 LINE",
"824 1540 LINE",
"824 930 LINE",
"802 930 LINE",
"846 824 LINE",
"846 290 LINE",
"802 172 LINE",
"880 172 LINE",
"848 196 LINE",
"850 122 OFFCURVE",
"908 40 OFFCURVE",
"1008 -16 CURVE"
);
}
);
width = 1152;
}
);
unicode = 0064;
},
{
color = 4;
glyphname = d.ss01;
lastChange = "2022-02-04 06:38:41 +0000";
layers = (
{
anchors = (
{
name = bottom;
position = "{578, 0}";
},
{
name = center;
position = "{946, 1262}";
},
{
name = leghookretroflex;
position = "{944, 0}";
},
{
name = top;
position = "{940, 1540}";
},
{
name = topright;
position = "{976, 1540}";
}
);
layerId = "AB099EFE-E788-4EFC-8633-CF147CB782A6";
paths = (
{
closed = 1;
nodes = (
"924 1540 LINE",
"924 804 LINE",
"912 804 LINE",
"928 744 LINE",
"928 272 LINE",
"906 240 LINE",
"924 240 LINE",
"924 0 LINE",
"984 0 LINE",
"984 1540 LINE"
);
},
{
closed = 1;
nodes = (
"786 -16 OFFCURVE",
"980 200 OFFCURVE",
"980 524 CURVE SMOOTH",
"980 848 OFFCURVE",
"786 1064 OFFCURVE",
"544 1064 CURVE SMOOTH",
"304 1064 OFFCURVE",
"112 848 OFFCURVE",
"112 524 CURVE SMOOTH",
"112 202 OFFCURVE",
"304 -16 OFFCURVE",
"544 -16 CURVE SMOOTH"
);
},
{
closed = 1;
nodes = (
"338 40 OFFCURVE",
"172 236 OFFCURVE",
"172 524 CURVE SMOOTH",
"172 818 OFFCURVE",
"338 1008 OFFCURVE",
"548 1008 CURVE SMOOTH",
"760 1008 OFFCURVE",
"926 818 OFFCURVE",
"926 524 CURVE SMOOTH",
"926 238 OFFCURVE",
"760 40 OFFCURVE",
"548 40 CURVE SMOOTH"
);
}
);
width = 1152;
},
{
anchors = (
{
name = bottom;
position = "{602, 0}";
},
{
name = center;
position = "{900, 1298}";
},
{
name = leghookretroflex;
position = "{930, 0}";
},
{
name = top;
position = "{900, 1540}";
},
{
name = topright;
position = "{1070, 1540}";
}
);
layerId = "2D8F7115-C311-411E-929D-56333CF7FFB2";
paths = (
{
closed = 1;
nodes = (
"716 1540 LINE",
"716 1000 LINE",
"694 1000 LINE",
"746 816 LINE",
"746 226 LINE",
"692 120 LINE",
"736 120 LINE",
"736 0 LINE",
"1068 0 LINE",
"1068 1540 LINE"
);
},
{
closed = 1;
nodes = (
"712 -16 OFFCURVE",
"850 228 OFFCURVE",
"850 540 CURVE SMOOTH",
"850 868 OFFCURVE",
"720 1096 OFFCURVE",
"482 1096 CURVE SMOOTH",
"226 1096 OFFCURVE",
"40 860 OFFCURVE",
"40 540 CURVE SMOOTH",
"40 220 OFFCURVE",
"220 -16 OFFCURVE",
"468 -16 CURVE SMOOTH"
);
},
{
closed = 1;
nodes = (
"450 286 OFFCURVE",
"374 394 OFFCURVE",
"374 540 CURVE SMOOTH",
"374 686 OFFCURVE",
"448 792 OFFCURVE",
"556 792 CURVE SMOOTH",
"660 792 OFFCURVE",
"738 688 OFFCURVE",
"738 540 CURVE SMOOTH",
"738 396 OFFCURVE",
"662 286 OFFCURVE",
"556 286 CURVE SMOOTH"
);
}
);
width = 1152;
},
{
anchors = (
{
name = bottom;
position = "{578, 0}";
},
{
name = center;
position = "{932, 1278}";
},
{
name = leghookretroflex;
position = "{938, 0}";
},
{
name = top;
position = "{928, 1540}";
},
{
name = topright;
position = "{1018, 1540}";
}
);
layerId = "FD1CEFBD-BAB1-4C2A-A598-30E93F9A29F6";
paths = (
{
closed = 1;
nodes = (
"852 1540 LINE",
"852 910 LINE",
"834 910 LINE",
"858 806 LINE",
"858 212 LINE",
"830 156 LINE",
"854 156 LINE",
"854 0 LINE",
"1024 0 LINE",
"1024 1540 LINE"
);
},
{
closed = 1;
nodes = (
"788 -16 OFFCURVE",
"954 236 OFFCURVE",
"954 532 CURVE SMOOTH",
"954 854 OFFCURVE",
"778 1076 OFFCURVE",
"524 1076 CURVE SMOOTH",
"274 1076 OFFCURVE",
"72 856 OFFCURVE",
"72 532 CURVE SMOOTH",
"72 210 OFFCURVE",
"270 -16 OFFCURVE",
"524 -16 CURVE SMOOTH"
);
},
{
closed = 1;
nodes = (
"374 144 OFFCURVE",
"246 318 OFFCURVE",
"246 532 CURVE SMOOTH",
"246 754 OFFCURVE",
"382 916 OFFCURVE",
"554 916 CURVE SMOOTH",
"724 916 OFFCURVE",
"858 760 OFFCURVE",
"858 530 CURVE SMOOTH",
"858 296 OFFCURVE",
"722 144 OFFCURVE",
"554 144 CURVE SMOOTH"
);
}
);
width = 1152;
}
);
},
{
glyphname = eth;
lastChange = "2021-12-20 06:18:11 +0000";
layers = (
{
layerId = "AB099EFE-E788-4EFC-8633-CF147CB782A6";
paths = (
{
closed = 1;
nodes = (
"846 -16 OFFCURVE",
"1026 218 OFFCURVE",
"1026 596 CURVE SMOOTH",
"1026 1124 OFFCURVE",
"676 1450 OFFCURVE",
"334 1558 CURVE",
"314 1508 LINE",
"546 1432 OFFCURVE",
"844 1224 OFFCURVE",
"950 818 CURVE",
"964 834 LINE",
"934 834 LINE",
"968 796 LINE",
"898 946 OFFCURVE",
"736 1024 OFFCURVE",
"584 1024 CURVE SMOOTH",
"320 1024 OFFCURVE",
"122 794 OFFCURVE",
"122 504 CURVE SMOOTH",
"122 210 OFFCURVE",
"324 -16 OFFCURVE",
"580 -16 CURVE SMOOTH"
);
},
{
closed = 1;
nodes = (
"376 40 OFFCURVE",
"182 224 OFFCURVE",
"182 506 CURVE SMOOTH",
"182 772 OFFCURVE",
"358 968 OFFCURVE",
"592 968 CURVE SMOOTH",
"772 968 OFFCURVE",
"968 850 OFFCURVE",
"968 546 CURVE SMOOTH",
"968 276 OFFCURVE",
"810 40 OFFCURVE",
"580 40 CURVE SMOOTH"
);
},
{
closed = 1;
nodes = (
"886 1512 LINE",
"868 1554 LINE",
"302 1220 LINE",
"328 1172 LINE"
);
}
);
width = 1152;
},
{
layerId = "2D8F7115-C311-411E-929D-56333CF7FFB2";
paths = (
{
closed = 1;
nodes = (
"888 -16 OFFCURVE",
"1116 254 OFFCURVE",
"1116 652 CURVE SMOOTH",
"1116 1086 OFFCURVE",
"850 1454 OFFCURVE",
"330 1700 CURVE",
"194 1426 LINE",
"490 1314 OFFCURVE",
"686 1126 OFFCURVE",
"776 898 CURVE",
"820 946 LINE",
"732 946 LINE",
"792 876 LINE",
"766 992 OFFCURVE",
"618 1028 OFFCURVE",
"518 1028 CURVE SMOOTH",
"246 1028 OFFCURVE",
"34 794 OFFCURVE",
"34 514 CURVE SMOOTH",
"34 210 OFFCURVE",
"276 -16 OFFCURVE",
"564 -16 CURVE SMOOTH"
);
},
{
closed = 1;
nodes = (
"458 294 OFFCURVE",
"374 398 OFFCURVE",
"374 532 CURVE SMOOTH",
"374 664 OFFCURVE",
"460 754 OFFCURVE",
"572 754 CURVE SMOOTH",
"694 754 OFFCURVE",
"776 664 OFFCURVE",
"776 532 CURVE SMOOTH",
"776 400 OFFCURVE",
"692 294 OFFCURVE",
"572 294 CURVE SMOOTH"
);
},
{
closed = 1;
nodes = (
"994 1512 LINE",
"872 1692 LINE",
"198 1212 LINE",
"290 1082 LINE"
);
}
);
width = 1152;
},
{
layerId = "FD1CEFBD-BAB1-4C2A-A598-30E93F9A29F6";
paths = (
{
closed = 1;
nodes = (
"860 -16 OFFCURVE",
"1060 222 OFFCURVE",
"1060 622 CURVE SMOOTH",
"1060 1136 OFFCURVE",
"732 1448 OFFCURVE",
"340 1614 CURVE",
"274 1474 LINE",
"542 1366 OFFCURVE",
"790 1170 OFFCURVE",
"880 872 CURVE",
"906 902 LINE",
"858 902 LINE",
"890 864 LINE",
"848 958 OFFCURVE",
"706 1032 OFFCURVE",
"564 1032 CURVE SMOOTH",
"304 1032 OFFCURVE",
"96 820 OFFCURVE",
"96 512 CURVE SMOOTH",
"96 202 OFFCURVE",
"314 -16 OFFCURVE",
"580 -16 CURVE SMOOTH"
);
},
{
closed = 1;
nodes = (
"412 140 OFFCURVE",
"266 294 OFFCURVE",
"266 516 CURVE SMOOTH",
"266 730 OFFCURVE",
"404 872 OFFCURVE",
"582 872 CURVE SMOOTH",
"750 872 OFFCURVE",
"892 746 OFFCURVE",
"892 528 CURVE SMOOTH",
"892 310 OFFCURVE",
"758 148 OFFCURVE",
"584 144 CURVE SMOOTH"
);
},
{
closed = 1;
nodes = (
"938 1520 LINE",
"876 1618 LINE",
"270 1236 LINE",
"328 1138 LINE"
);
}
);
width = 1152;
}
);
unicode = 00F0;
},
{
glyphname = dcaron;
lastChange = "2022-01-28 06:20:33 +0000";
layers = (
{
components = (
{
name = caroncomb.alt;
transform = "{1, 0, 0, 1, 452, 0}";
}
);
layerId = "AB099EFE-E788-4EFC-8633-CF147CB782A6";
paths = (
{
closed = 1;
nodes = (
"982 38 LINE",
"924 64 OFFCURVE",
"876 140 OFFCURVE",
"876 232 CURVE SMOOTH",
"876 1540 LINE",
"814 1540 LINE",
"814 834 LINE",
"794 834 LINE",
"826 756 LINE",
"826 294 LINE",
"798 222 LINE",
"826 222 LINE",
"818 234 LINE",
"820 132 OFFCURVE",
"876 30 OFFCURVE",
"954 -16 CURVE"
);
},
{
closed = 1;
nodes = (
"714 -16 OFFCURVE",
"868 198 OFFCURVE",
"868 528 CURVE SMOOTH",
"868 852 OFFCURVE",
"714 1064 OFFCURVE",
"482 1064 CURVE SMOOTH",
"244 1064 OFFCURVE",
"88 850 OFFCURVE",
"88 524 CURVE SMOOTH",
"88 198 OFFCURVE",
"244 -16 OFFCURVE",
"482 -16 CURVE SMOOTH"
);
},
{
closed = 1;
nodes = (
"282 38 OFFCURVE",
"148 230 OFFCURVE",
"148 524 CURVE SMOOTH",
"148 818 OFFCURVE",
"282 1010 OFFCURVE",
"482 1010 CURVE SMOOTH",
"682 1010 OFFCURVE",
"814 816 OFFCURVE",
"814 524 CURVE SMOOTH",
"814 232 OFFCURVE",
"682 38 OFFCURVE",
"480 38 CURVE SMOOTH"
);
}
);
width = 1152;
},
{
components = (
{
name = caroncomb.alt;
transform = "{1, 0, 0, 1, 432, 0}";
}
);
layerId = "2D8F7115-C311-411E-929D-56333CF7FFB2";
paths = (
{
closed = 1;
nodes = (
"930 278 LINE",
"872 299 OFFCURVE",
"832 340 OFFCURVE",
"832 394 CURVE SMOOTH",
"832 1540 LINE",
"480 1540 LINE",
"480 1004 LINE",
"462 1004 LINE",
"498 892 LINE",
"498 274 LINE",
"494 144 LINE",
"570 144 LINE",
"560 160 LINE",
"589 89 OFFCURVE",
"667 27 OFFCURVE",
"812 -16 CURVE"
);
},
{
closed = 1;
nodes = (
"541 -16 OFFCURVE",
"628 179 OFFCURVE",
"628 540 CURVE SMOOTH",
"628 901 OFFCURVE",
"519 1096 OFFCURVE",
"318 1096 CURVE SMOOTH",
"119 1096 OFFCURVE",
"12 901 OFFCURVE",
"12 540 CURVE SMOOTH",
"12 179 OFFCURVE",
"115 -16 OFFCURVE",
"346 -16 CURVE SMOOTH"
);
},
{
closed = 1;
nodes = (
"370 278 OFFCURVE",
"346 370 OFFCURVE",
"346 540 CURVE SMOOTH",
"346 709 OFFCURVE",
"373 800 OFFCURVE",
"422 800 CURVE SMOOTH",
"467 800 OFFCURVE",
"492 709 OFFCURVE",
"492 540 CURVE SMOOTH",
"492 370 OFFCURVE",
"465 278 OFFCURVE",
"414 278 CURVE SMOOTH"
);
}
);
width = 1152;
},
{
components = (
{
name = caroncomb.alt;
transform = "{1, 0, 0, 1, 492, 0}";
}
);
layerId = "FD1CEFBD-BAB1-4C2A-A598-30E93F9A29F6";
paths = (
{
closed = 1;
nodes = (
"1010 140 LINE",
"951 164 OFFCURVE",
"904 224 OFFCURVE",
"904 294 CURVE SMOOTH",
"904 1540 LINE",
"732 1540 LINE",
"732 930 LINE",
"710 930 LINE",
"750 824 LINE",
"750 290 LINE",
"712 172 LINE",
"782 172 LINE",
"756 196 LINE",
"760 121 OFFCURVE",
"840 38 OFFCURVE",
"946 -16 CURVE"
);
},
{
closed = 1;
nodes = (
"689 -16 OFFCURVE",
"836 199 OFFCURVE",
"836 532 CURVE SMOOTH",
"836 863 OFFCURVE",
"690 1078 OFFCURVE",
"464 1078 CURVE SMOOTH",
"231 1078 OFFCURVE",
"80 863 OFFCURVE",
"80 532 CURVE SMOOTH",
"80 199 OFFCURVE",
"230 -16 OFFCURVE",
"462 -16 CURVE SMOOTH"
);
},
{
closed = 1;
nodes = (
"349 140 OFFCURVE",
"252 294 OFFCURVE",
"252 532 CURVE SMOOTH",
"252 769 OFFCURVE",
"349 922 OFFCURVE",
"500 922 CURVE SMOOTH",
"648 922 OFFCURVE",
"744 769 OFFCURVE",
"744 532 CURVE SMOOTH",
"744 294 OFFCURVE",
"647 140 OFFCURVE",
"498 140 CURVE SMOOTH"
);
}
);
width = 1152;
}
);
leftKerningGroup = LAT_O_LC;
leftMetricsKey = d;
rightKerningGroup = LAT_LCARON_LC;
unicode = 010F;
},
{
color = 4;
glyphname = dcaron.ss01;
lastChange = "2022-01-28 06:21:52 +0000";
layers = (
{
components = (
{
name = caroncomb.alt;
transform = "{1, 0, 0, 1, 478, 0}";
}
);
layerId = "AB099EFE-E788-4EFC-8633-CF147CB782A6";
paths = (
{
closed = 1;
nodes = (
"870 1540 LINE",
"870 804 LINE",
"858 804 LINE",
"874 744 LINE",
"874 272 LINE",
"852 240 LINE",
"870 240 LINE",
"870 0 LINE",
"930 0 LINE",
"930 1540 LINE"
);
},
{
closed = 1;
nodes = (
"738 -16 OFFCURVE",
"924 200 OFFCURVE",
"924 524 CURVE SMOOTH",
"924 848 OFFCURVE",
"738 1064 OFFCURVE",
"506 1064 CURVE SMOOTH",
"274 1064 OFFCURVE",
"88 848 OFFCURVE",
"88 524 CURVE SMOOTH",
"88 202 OFFCURVE",
"274 -16 OFFCURVE",
"506 -16 CURVE SMOOTH"
);
},
{
closed = 1;
nodes = (
"308 40 OFFCURVE",
"148 236 OFFCURVE",
"148 524 CURVE SMOOTH",
"148 818 OFFCURVE",
"308 1008 OFFCURVE",
"508 1008 CURVE SMOOTH",
"712 1008 OFFCURVE",
"872 818 OFFCURVE",
"872 524 CURVE SMOOTH",
"872 238 OFFCURVE",
"712 40 OFFCURVE",
"508 40 CURVE SMOOTH"
);
}
);
width = 1152;
},
{
components = (
{
name = caroncomb.alt;
transform = "{1, 0, 0, 1, 460, 0}";
}
);
layerId = "2D8F7115-C311-411E-929D-56333CF7FFB2";
paths = (
{
closed = 1;
nodes = (
"510 1540 LINE",
"510 992 LINE",
"488 992 LINE",
"540 816 LINE",
"540 226 LINE",
"488 122 LINE",
"532 122 LINE",
"532 0 LINE",
"860 0 LINE",
"860 1540 LINE"
);
},
{
closed = 1;
nodes = (
"540 -16 OFFCURVE",
"652 187 OFFCURVE",
"652 540 CURVE SMOOTH",
"652 893 OFFCURVE",
"545 1096 OFFCURVE",
"358 1096 CURVE SMOOTH",
"136 1096 OFFCURVE",
"8 893 OFFCURVE",
"8 540 CURVE SMOOTH",
"8 187 OFFCURVE",
"130 -16 OFFCURVE",
"344 -16 CURVE SMOOTH"
);
},
{
closed = 1;
nodes = (
"375 286 OFFCURVE",
"340 379 OFFCURVE",
"340 540 CURVE SMOOTH",
"340 700 OFFCURVE",
"375 792 OFFCURVE",
"436 792 CURVE SMOOTH",
"496 792 OFFCURVE",
"530 700 OFFCURVE",
"530 540 CURVE SMOOTH",
"530 379 OFFCURVE",
"496 286 OFFCURVE",
"436 286 CURVE SMOOTH"
);
}
);
width = 1152;
},
{
components = (
{
name = caroncomb.alt;
transform = "{1, 0, 0, 1, 490, 0}";
}
);
layerId = "FD1CEFBD-BAB1-4C2A-A598-30E93F9A29F6";
paths = (
{
closed = 1;
nodes = (
"756 1540 LINE",
"756 910 LINE",
"740 910 LINE",
"764 806 LINE",
"764 212 LINE",
"736 156 LINE",
"760 156 LINE",
"760 0 LINE",
"928 0 LINE",
"928 1540 LINE"
);
},
{
closed = 1;
nodes = (
"702 -16 OFFCURVE",
"854 236 OFFCURVE",
"854 532 CURVE SMOOTH",
"854 852 OFFCURVE",
"696 1076 OFFCURVE",
"464 1076 CURVE SMOOTH",
"234 1076 OFFCURVE",
"52 854 OFFCURVE",
"52 532 CURVE SMOOTH",
"52 212 OFFCURVE",
"230 -16 OFFCURVE",
"462 -16 CURVE SMOOTH"
);
},
{
closed = 1;
nodes = (
"336 144 OFFCURVE",
"224 318 OFFCURVE",
"224 532 CURVE SMOOTH",
"224 752 OFFCURVE",
"342 916 OFFCURVE",
"496 916 CURVE SMOOTH",
"646 916 OFFCURVE",
"762 758 OFFCURVE",
"762 530 CURVE SMOOTH",
"762 296 OFFCURVE",
"644 144 OFFCURVE",
"496 144 CURVE SMOOTH"
);
}
);
width = 1152;
}
);
leftKerningGroup = LAT_O_LC;
rightKerningGroup = LAT_LCARON_LC;
},
{
glyphname = dzcaron;
lastChange = "2022-02-04 04:40:45 +0000";
layers = (
{
layerId = "AB099EFE-E788-4EFC-8633-CF147CB782A6";
paths = (
{
closed = 1;
nodes = (
"590 38 LINE",
"562 62 OFFCURVE",
"532 90 OFFCURVE",
"532 192 CURVE SMOOTH",
"532 1540 LINE",
"476 1540 LINE",
"476 900 LINE",
"460 900 LINE",
"486 756 LINE",
"486 294 LINE",
"462 162 LINE",
"490 162 LINE",
"480 208 LINE",
"480 78 OFFCURVE",
"510 30 OFFCURVE",
"564 -16 CURVE"
);
},
{
closed = 1;
nodes = (
"446 -16 OFFCURVE",
"522 182 OFFCURVE",
"522 526 CURVE SMOOTH",
"522 870 OFFCURVE",
"446 1064 OFFCURVE",
"296 1064 CURVE SMOOTH",
"144 1064 OFFCURVE",
"60 868 OFFCURVE",
"60 524 CURVE SMOOTH",
"60 182 OFFCURVE",
"144 -16 OFFCURVE",
"296 -16 CURVE SMOOTH"
);
},
{
closed = 1;
nodes = (
"184 40 OFFCURVE",
"116 216 OFFCURVE",
"116 524 CURVE SMOOTH",
"116 834 OFFCURVE",
"186 1008 OFFCURVE",
"302 1008 CURVE SMOOTH",
"418 1008 OFFCURVE",
"478 836 OFFCURVE",
"478 524 CURVE SMOOTH",
"478 214 OFFCURVE",
"418 40 OFFCURVE",
"302 40 CURVE SMOOTH"
);
},
{
closed = 1;
nodes = (
"1096 0 LINE",
"1096 56 LINE",
"714 56 LINE",
"714 60 LINE",
"1086 1014 LINE",
"1086 1048 LINE",
"662 1048 LINE",
"662 992 LINE",
"1020 992 LINE",
"1020 988 LINE",
"646 30 LINE",
"646 0 LINE"
);
},
{
closed = 1;
nodes = (
"894 1264 LINE",
"1096 1474 LINE",
"1056 1512 LINE",
"882 1326 LINE",
"876 1326 LINE",
"700 1512 LINE",
"664 1474 LINE",
"864 1264 LINE"
);
}
);
width = 1152;
},
{
layerId = "2D8F7115-C311-411E-929D-56333CF7FFB2";
paths = (
{
closed = 1;
nodes = (
"628 272 LINE",
"597 285 OFFCURVE",
"580 305 OFFCURVE",
"580 330 CURVE SMOOTH",
"580 1540 LINE",
"340 1540 LINE",
"340 1000 LINE",
"288 1000 LINE",
"364 864 LINE",
"364 214 LINE",
"344 148 LINE",
"396 148 LINE",
"370 176 LINE",
"372 102 OFFCURVE",
"427 35 OFFCURVE",
"526 -16 CURVE"
);
},
{
closed = 1;
nodes = (
"348 -16 OFFCURVE",
"410 179 OFFCURVE",
"410 540 CURVE SMOOTH",
"410 901 OFFCURVE",
"339 1096 OFFCURVE",
"206 1096 CURVE SMOOTH",
"85 1096 OFFCURVE",
"20 902 OFFCURVE",
"20 542 CURVE SMOOTH",
"20 179 OFFCURVE",
"95 -16 OFFCURVE",
"234 -16 CURVE SMOOTH"
);
},
{
closed = 1;
nodes = (
"275 268 OFFCURVE",
"256 364 OFFCURVE",
"256 542 CURVE SMOOTH",
"256 717 OFFCURVE",
"275 812 OFFCURVE",
"310 812 CURVE SMOOTH",
"343 812 OFFCURVE",
"362 717 OFFCURVE",
"362 542 CURVE SMOOTH",
"362 364 OFFCURVE",
"343 268 OFFCURVE",
"310 268 CURVE SMOOTH"
);
},
{
closed = 1;
nodes = (
"1114 0 LINE",
"1114 240 LINE",
"892 240 LINE",
"892 246 LINE",
"1122 1028 LINE",
"1122 1080 LINE",
"660 1080 LINE",
"660 840 LINE",
"840 840 LINE",
"840 834 LINE",
"608 52 LINE",
"608 0 LINE"
);
},
{
closed = 1;
nodes = (
"900 1142 LINE",
"1144 1406 LINE",
"1032 1556 LINE",
"876 1362 LINE",
"872 1362 LINE",
"716 1556 LINE",
"604 1406 LINE",
"848 1142 LINE"
);
}
);
width = 1152;
},
{
layerId = "FD1CEFBD-BAB1-4C2A-A598-30E93F9A29F6";
paths = (
{
closed = 1;
nodes = (
"602 140 LINE",
"567 162 OFFCURVE",
"548 201 OFFCURVE",
"548 252 CURVE SMOOTH",
"548 1540 LINE",
"408 1540 LINE",
"408 968 LINE",
"370 968 LINE",
"418 824 LINE",
"418 290 LINE",
"372 124 LINE",
"424 124 LINE",
"408 162 LINE",
"418 104 OFFCURVE",
"465 29 OFFCURVE",
"542 -16 CURVE"
);
},
{
closed = 1;
nodes = (
"407 -16 OFFCURVE",
"458 176 OFFCURVE",
"458 532 CURVE SMOOTH",
"458 887 OFFCURVE",
"408 1078 OFFCURVE",
"264 1078 CURVE SMOOTH",
"112 1078 OFFCURVE",
"32 887 OFFCURVE",
"32 532 CURVE SMOOTH",
"32 176 OFFCURVE",
"111 -16 OFFCURVE",
"260 -16 CURVE SMOOTH"
);
},
{
closed = 1;
nodes = (
"211 140 OFFCURVE",
"172 277 OFFCURVE",
"172 532 CURVE SMOOTH",
"172 785 OFFCURVE",
"212 922 OFFCURVE",
"292 922 CURVE SMOOTH",
"373 922 OFFCURVE",
"406 785 OFFCURVE",
"406 532 CURVE SMOOTH",
"406 277 OFFCURVE",
"372 140 OFFCURVE",
"288 140 CURVE SMOOTH"
);
},
{
closed = 1;
nodes = (
"1096 0 LINE",
"1096 142 LINE",
"798 142 LINE",
"798 146 LINE",
"1108 1008 LINE",
"1108 1058 LINE",
"666 1058 LINE",
"666 916 LINE",
"932 916 LINE",
"932 912 LINE",
"620 42 LINE",
"620 0 LINE"
);
},
{
closed = 1;
nodes = (
"892 1244 LINE",
"1116 1472 LINE",
"1046 1550 LINE",
"874 1368 LINE",
"870 1368 LINE",
"698 1550 LINE",
"628 1472 LINE",
"852 1244 LINE"
);
}
);
width = 1152;
}
);
leftKerningGroup = LAT_O_LC;
rightKerningGroup = LAT_Z_LC;
unicode = 01C6;
},
{
color = 4;
glyphname = dzcaron.ss01;
lastChange = "2022-02-04 04:40:49 +0000";
layers = (
{
background = {
paths = (
{
closed = 1;
nodes = (
"424 1540 LINE",
"424 804 LINE",
"414 804 LINE",
"426 744 LINE",
"426 272 LINE",
"412 240 LINE",
"424 240 LINE",
"424 0 LINE",
"486 0 LINE",
"486 1540 LINE"
);
},
{
closed = 1;
nodes = (
"358 -16 OFFCURVE",
"468 200 OFFCURVE",
"468 524 CURVE SMOOTH",
"468 846 OFFCURVE",
"356 1064 OFFCURVE",
"208 1064 CURVE SMOOTH",
"62 1064 OFFCURVE",
"-54 846 OFFCURVE",
"-54 524 CURVE SMOOTH",
"-54 202 OFFCURVE",
"62 -16 OFFCURVE",
"208 -16 CURVE SMOOTH"
);
},
{
closed = 1;
nodes = (
"98 40 OFFCURVE",
"8 238 OFFCURVE",
"8 524 CURVE SMOOTH",
"8 816 OFFCURVE",
"100 1008 OFFCURVE",
"216 1008 CURVE SMOOTH",
"334 1008 OFFCURVE",
"426 816 OFFCURVE",
"426 524 CURVE SMOOTH",
"426 240 OFFCURVE",
"334 40 OFFCURVE",
"216 40 CURVE SMOOTH"
);
},
{
closed = 1;
nodes = (
"670 0 LINE",
"1170 0 LINE",
"1170 56 LINE",
"766 56 LINE",
"766 64 LINE",
"1162 1020 LINE",
"1162 1048 LINE",
"688 1048 LINE",
"688 992 LINE",
"1062 992 LINE",
"1062 984 LINE",
"670 36 LINE"
);
},
{
closed = 1;
nodes = (
"748 1474 LINE",
"908 1212 LINE",
"930 1212 LINE",
"1090 1474 LINE",
"1058 1516 LINE",
"922 1278 LINE",
"918 1278 LINE",
"782 1516 LINE"
);
}
);
};
layerId = "AB099EFE-E788-4EFC-8633-CF147CB782A6";
paths = (
{
closed = 1;
nodes = (
"446 -16 OFFCURVE",
"522 184 OFFCURVE",
"522 526 CURVE SMOOTH",
"522 868 OFFCURVE",
"446 1064 OFFCURVE",
"294 1064 CURVE SMOOTH",
"140 1064 OFFCURVE",
"54 870 OFFCURVE",
"54 524 CURVE SMOOTH",
"54 180 OFFCURVE",
"140 -16 OFFCURVE",
"294 -16 CURVE SMOOTH"
);
},
{
closed = 1;
nodes = (
"180 40 OFFCURVE",
"110 214 OFFCURVE",
"110 524 CURVE SMOOTH",
"110 836 OFFCURVE",
"182 1008 OFFCURVE",
"298 1008 CURVE SMOOTH",
"416 1008 OFFCURVE",
"478 838 OFFCURVE",
"478 524 CURVE SMOOTH",
"478 212 OFFCURVE",
"416 40 OFFCURVE",
"298 40 CURVE SMOOTH"
);
},
{
closed = 1;
nodes = (
"532 0 LINE",
"532 1540 LINE",
"476 1540 LINE",
"476 900 LINE",
"460 900 LINE",
"486 756 LINE",
"486 294 LINE",
"462 162 LINE",
"478 162 LINE",
"478 0 LINE"
);
},
{
closed = 1;
nodes = (
"1096 0 LINE",
"1096 56 LINE",
"714 56 LINE",
"714 60 LINE",
"1086 1014 LINE",
"1086 1048 LINE",
"662 1048 LINE",
"662 992 LINE",
"1020 992 LINE",
"1020 988 LINE",
"646 30 LINE",
"646 0 LINE"
);
},
{
closed = 1;
nodes = (
"894 1264 LINE",
"1096 1474 LINE",
"1056 1512 LINE",
"882 1326 LINE",
"876 1326 LINE",
"700 1512 LINE",
"664 1474 LINE",
"864 1264 LINE"
);
}
);
width = 1152;
},
{
layerId = "2D8F7115-C311-411E-929D-56333CF7FFB2";
paths = (
{
closed = 1;
nodes = (
"348 -16 OFFCURVE",
"410 179 OFFCURVE",
"410 540 CURVE SMOOTH",
"410 901 OFFCURVE",
"339 1096 OFFCURVE",
"206 1096 CURVE SMOOTH",
"85 1096 OFFCURVE",
"20 902 OFFCURVE",
"20 542 CURVE SMOOTH",
"20 179 OFFCURVE",
"95 -16 OFFCURVE",
"234 -16 CURVE SMOOTH"
);
},
{
closed = 1;
nodes = (
"275 268 OFFCURVE",
"256 364 OFFCURVE",
"256 542 CURVE SMOOTH",
"256 717 OFFCURVE",
"275 812 OFFCURVE",
"310 812 CURVE SMOOTH",
"343 812 OFFCURVE",
"362 717 OFFCURVE",
"362 542 CURVE SMOOTH",
"362 364 OFFCURVE",
"343 268 OFFCURVE",
"310 268 CURVE SMOOTH"
);
},
{
closed = 1;
nodes = (
"580 0 LINE",
"580 1540 LINE",
"340 1540 LINE",
"340 1000 LINE",
"288 1000 LINE",
"364 864 LINE",
"364 214 LINE",
"344 148 LINE",
"376 148 LINE",
"376 0 LINE"
);
},
{
closed = 1;
nodes = (
"1114 0 LINE",
"1114 240 LINE",
"892 240 LINE",
"892 246 LINE",
"1122 1028 LINE",
"1122 1080 LINE",
"660 1080 LINE",
"660 840 LINE",
"840 840 LINE",
"840 834 LINE",
"608 52 LINE",
"608 0 LINE"
);
},
{
closed = 1;
nodes = (
"900 1142 LINE",
"1144 1406 LINE",
"1032 1556 LINE",
"876 1362 LINE",
"872 1362 LINE",
"716 1556 LINE",
"604 1406 LINE",
"848 1142 LINE"
);
}
);
width = 1152;
},
{
layerId = "FD1CEFBD-BAB1-4C2A-A598-30E93F9A29F6";
paths = (
{
closed = 1;
nodes = (
"409 -16 OFFCURVE",
"460 176 OFFCURVE",
"460 532 CURVE SMOOTH",
"460 887 OFFCURVE",
"410 1078 OFFCURVE",
"264 1078 CURVE SMOOTH",
"112 1078 OFFCURVE",
"28 887 OFFCURVE",
"28 532 CURVE SMOOTH",
"28 176 OFFCURVE",
"111 -16 OFFCURVE",
"260 -16 CURVE SMOOTH"
);
},
{
closed = 1;
nodes = (
"213 140 OFFCURVE",
"168 277 OFFCURVE",
"168 532 CURVE SMOOTH",
"168 785 OFFCURVE",
"214 922 OFFCURVE",
"294 922 CURVE SMOOTH",
"375 922 OFFCURVE",
"408 785 OFFCURVE",
"408 532 CURVE SMOOTH",
"408 277 OFFCURVE",
"374 140 OFFCURVE",
"290 140 CURVE SMOOTH"
);
},
{
closed = 1;
nodes = (
"550 0 LINE",
"550 1540 LINE",
"410 1540 LINE",
"410 968 LINE",
"372 968 LINE",
"420 824 LINE",
"420 290 LINE",
"374 124 LINE",
"418 124 LINE",
"418 0 LINE"
);
},
{
closed = 1;
nodes = (
"1096 0 LINE",
"1096 142 LINE",
"798 142 LINE",
"798 146 LINE",
"1108 1008 LINE",
"1108 1058 LINE",
"666 1058 LINE",
"666 916 LINE",
"932 916 LINE",
"932 912 LINE",
"620 42 LINE",
"620 0 LINE"
);
},
{
closed = 1;
nodes = (
"892 1244 LINE",
"1116 1472 LINE",
"1046 1550 LINE",
"874 1368 LINE",
"870 1368 LINE",
"698 1550 LINE",
"628 1472 LINE",
"852 1244 LINE"
);
}
);
width = 1152;
}
);
leftKerningGroup = LAT_O_LC;
rightKerningGroup = LAT_Z_LC;
},
{
glyphname = e;
lastChange = "2022-01-18 03:59:46 +0000";
layers = (
{
anchors = (
{
name = bottom;
position = "{588, 0}";
},
{
name = cedilla;
position = "{590, 0}";
},
{
name = ogonek;
position = "{946, 116}";
},
{
name = top;
position = "{594, 1048}";
}
);
guideLines = (
{
angle = 112.5;
position = "{922, 174}";
}
);
layerId = "AB099EFE-E788-4EFC-8633-CF147CB782A6";
paths = (
{
closed = 1;
nodes = (
"736 -16 OFFCURVE",
"852 30 OFFCURVE",
"946 116 CURVE",
"922 174 LINE",
"828 90 OFFCURVE",
"720 40 OFFCURVE",
"596 40 CURVE SMOOTH",
"352 40 OFFCURVE",
"192 236 OFFCURVE",
"192 522 CURVE SMOOTH",
"192 808 OFFCURVE",
"356 1008 OFFCURVE",
"594 1008 CURVE SMOOTH",
"818 1008 OFFCURVE",
"966 826 OFFCURVE",
"958 562 CURVE",
"180 562 LINE",
"180 506 LINE",
"1018 506 LINE",
"1020 524 OFFCURVE",
"1020 558 OFFCURVE",
"1020 564 CURVE SMOOTH",
"1020 866 OFFCURVE",
"850 1064 OFFCURVE",
"594 1064 CURVE SMOOTH",
"320 1064 OFFCURVE",
"132 844 OFFCURVE",
"132 526 CURVE SMOOTH",
"132 204 OFFCURVE",
"320 -16 OFFCURVE",
"606 -16 CURVE SMOOTH"
);
}
);
width = 1152;
},
{
anchors = (
{
name = bottom;
position = "{602, 0}";
},
{
name = cedilla;
position = "{632, 0}";
},
{
name = ogonek;
position = "{972, 70}";
},
{
name = top;
position = "{592, 1080}";
}
);
guideLines = (
{
angle = 112.5;
position = "{738, 626}";
}
);
layerId = "2D8F7115-C311-411E-929D-56333CF7FFB2";
paths = (
{
closed = 1;
nodes = (
"758 -16 OFFCURVE",
"890 18 OFFCURVE",
"968 70 CURVE",
"862 326 LINE",
"818 288 OFFCURVE",
"728 262 OFFCURVE",
"634 262 CURVE SMOOTH",
"480 262 OFFCURVE",
"380 374 OFFCURVE",
"380 548 CURVE SMOOTH",
"380 717 OFFCURVE",
"462 826 OFFCURVE",
"588 826 CURVE SMOOTH",
"684 826 OFFCURVE",
"746 752 OFFCURVE",
"746 638 CURVE",
"356 638 LINE",
"356 426 LINE",
"1064 426 LINE",
"1074 465 OFFCURVE",
"1080 528 OFFCURVE",
"1080 586 CURVE SMOOTH",
"1080 896 OFFCURVE",
"891 1096 OFFCURVE",
"598 1096 CURVE SMOOTH",
"279 1096 OFFCURVE",
"72 876 OFFCURVE",
"72 536 CURVE SMOOTH",
"72 201 OFFCURVE",
"293 -16 OFFCURVE",
"634 -16 CURVE SMOOTH"
);
}
);
width = 1152;
},
{
anchors = (
{
name = bottom;
position = "{590, 0}";
},
{
name = cedilla;
position = "{600, 0}";
},
{
name = ogonek;
position = "{950, 96}";
},
{
name = top;
position = "{590, 1060}";
}
);
guideLines = (
{
angle = 112.5;
position = "{618, 898}";
}
);
layerId = "FD1CEFBD-BAB1-4C2A-A598-30E93F9A29F6";
paths = (
{
closed = 1;
nodes = (
"730 -16 OFFCURVE",
"866 32 OFFCURVE",
"950 96 CURVE",
"886 250 LINE",
"810 184 OFFCURVE",
"704 144 OFFCURVE",
"614 144 CURVE SMOOTH",
"418 144 OFFCURVE",
"280 302 OFFCURVE",
"280 532 CURVE SMOOTH",
"280 760 OFFCURVE",
"408 916 OFFCURVE",
"588 916 CURVE SMOOTH",
"752 916 OFFCURVE",
"868 788 OFFCURVE",
"868 602 CURVE",
"248 602 LINE",
"248 462 LINE",
"1024 462 LINE",
"1032 496 OFFCURVE",
"1036 550 OFFCURVE",
"1036 590 CURVE SMOOTH",
"1036 878 OFFCURVE",
"852 1076 OFFCURVE",
"590 1076 CURVE SMOOTH",
"310 1076 OFFCURVE",
"116 854 OFFCURVE",
"116 532 CURVE SMOOTH",
"116 208 OFFCURVE",
"318 -16 OFFCURVE",
"610 -16 CURVE SMOOTH"
);
}
);
width = 1152;
}
);
unicode = 0065;
},
{
glyphname = schwa;
lastChange = "2021-12-20 06:18:11 +0000";
layers = (
{
anchors = (
{
name = bottom;
position = "{552, 0}";
},
{
name = cedilla;
position = "{556, 1048}";
},
{
name = ogonek;
position = "{252, 970}";
},
{
name = top;
position = "{558, 1048}";
}
);
layerId = "AB099EFE-E788-4EFC-8633-CF147CB782A6";
paths = (
{
closed = 1;
nodes = (
"404 1064 OFFCURVE",
"280 1002 OFFCURVE",
"202 930 CURVE",
"228 874 LINE",
"312 952 OFFCURVE",
"418 1008 OFFCURVE",
"550 1008 CURVE SMOOTH",
"792 1008 OFFCURVE",
"954 812 OFFCURVE",
"954 528 CURVE SMOOTH",
"954 222 OFFCURVE",
"770 40 OFFCURVE",
"552 40 CURVE SMOOTH",
"328 40 OFFCURVE",
"180 234 OFFCURVE",
"188 486 CURVE",
"966 486 LINE",
"966 542 LINE",
"128 542 LINE",
"126 514 OFFCURVE",
"126 490 OFFCURVE",
"126 466 CURVE SMOOTH",
"126 188 OFFCURVE",
"302 -16 OFFCURVE",
"554 -16 CURVE SMOOTH",
"826 -16 OFFCURVE",
"1014 216 OFFCURVE",
"1014 524 CURVE SMOOTH",
"1014 842 OFFCURVE",
"818 1064 OFFCURVE",
"544 1064 CURVE SMOOTH"
);
}
);
width = 1152;
},
{
anchors = (
{
name = bottom;
position = "{560, 0}";
},
{
name = cedilla;
position = "{522, 1080}";
},
{
name = ogonek;
position = "{170, 1010}";
},
{
name = top;
position = "{552, 1080}";
}
);
layerId = "2D8F7115-C311-411E-929D-56333CF7FFB2";
paths = (
{
closed = 1;
nodes = (
"378 1096 OFFCURVE",
"248 1060 OFFCURVE",
"174 1010 CURVE",
"280 756 LINE",
"314 784 OFFCURVE",
"430 818 OFFCURVE",
"516 818 CURVE SMOOTH",
"666 818 OFFCURVE",
"786 704 OFFCURVE",
"786 532 CURVE SMOOTH",
"786 386 OFFCURVE",
"708 254 OFFCURVE",
"564 254 CURVE SMOOTH",
"468 254 OFFCURVE",
"392 318 OFFCURVE",
"392 442 CURVE",
"810 442 LINE",
"810 654 LINE",
"74 654 LINE",
"66 624 OFFCURVE",
"58 552 OFFCURVE",
"58 494 CURVE SMOOTH",
"58 198 OFFCURVE",
"268 -16 OFFCURVE",
"554 -16 CURVE SMOOTH",
"842 -16 OFFCURVE",
"1094 202 OFFCURVE",
"1094 544 CURVE SMOOTH",
"1094 868 OFFCURVE",
"870 1096 OFFCURVE",
"518 1096 CURVE SMOOTH"
);
}
);
width = 1152;
},
{
anchors = (
{
name = bottom;
position = "{566, 0}";
},
{
name = cedilla;
position = "{556, 1060}";
},
{
name = ogonek;
position = "{204, 966}";
},
{
name = top;
position = "{564, 1060}";
}
);
layerId = "FD1CEFBD-BAB1-4C2A-A598-30E93F9A29F6";
paths = (
{
closed = 1;
nodes = (
"404 1076 OFFCURVE",
"278 1026 OFFCURVE",
"198 966 CURVE",
"262 810 LINE",
"320 858 OFFCURVE",
"416 916 OFFCURVE",
"540 916 CURVE SMOOTH",
"750 916 OFFCURVE",
"888 760 OFFCURVE",
"888 528 CURVE SMOOTH",
"888 298 OFFCURVE",
"752 144 OFFCURVE",
"568 144 CURVE SMOOTH",
"392 144 OFFCURVE",
"276 286 OFFCURVE",
"276 458 CURVE",
"920 458 LINE",
"920 598 LINE",
"120 598 LINE",
"114 570 OFFCURVE",
"108 526 OFFCURVE",
"108 470 CURVE SMOOTH",
"108 188 OFFCURVE",
"300 -16 OFFCURVE",
"566 -16 CURVE SMOOTH",
"842 -16 OFFCURVE",
"1052 196 OFFCURVE",
"1052 528 CURVE SMOOTH",
"1052 862 OFFCURVE",
"840 1076 OFFCURVE",
"544 1076 CURVE SMOOTH"
);
}
);
width = 1152;
}
);
unicode = 0259;
},
{
glyphname = f;
lastChange = "2022-02-04 08:00:07 +0000";
layers = (
{
anchors = (
{
name = bottom;
position = "{464, 0}";
},
{
name = top;
position = "{818, 1540}";
}
);
layerId = "AB099EFE-E788-4EFC-8633-CF147CB782A6";
paths = (
{
closed = 1;
nodes = (
"496 0 LINE",
"496 1198 LINE SMOOTH",
"496 1398 OFFCURVE",
"612 1500 OFFCURVE",
"774 1500 CURVE SMOOTH",
"858 1500 OFFCURVE",
"950 1472 OFFCURVE",
"1018 1424 CURVE",
"1044 1476 LINE",
"972 1522 OFFCURVE",
"882 1556 OFFCURVE",
"780 1556 CURVE SMOOTH",
"588 1556 OFFCURVE",
"436 1438 OFFCURVE",
"436 1186 CURVE SMOOTH",
"436 0 LINE"
);
},
{
closed = 1;
nodes = (
"1010 992 LINE",
"1010 1048 LINE",
"156 1048 LINE",
"156 992 LINE"
);
}
);
width = 1152;
},
{
anchors = (
{
name = bottom;
position = "{470, 0}";
},
{
name = top;
position = "{716, 1540}";
}
);
layerId = "2D8F7115-C311-411E-929D-56333CF7FFB2";
paths = (
{
closed = 1;
nodes = (
"692 0 LINE",
"692 1130 LINE SMOOTH",
"692 1210 OFFCURVE",
"756 1266 OFFCURVE",
"850 1266 CURVE SMOOTH",
"904 1266 OFFCURVE",
"966 1248 OFFCURVE",
"998 1224 CURVE",
"1128 1496 LINE",
"1040 1548 OFFCURVE",
"924 1576 OFFCURVE",
"812 1576 CURVE SMOOTH",
"546 1576 OFFCURVE",
"336 1414 OFFCURVE",
"336 1130 CURVE SMOOTH",
"336 0 LINE"
);
},
{
closed = 1;
nodes = (
"1030 780 LINE",
"1030 1080 LINE",
"100 1080 LINE",
"100 780 LINE"
);
}
);
width = 1152;
},
{
anchors = (
{
name = bottom;
position = "{498, 0}";
},
{
name = top;
position = "{794, 1540}";
}
);
layerId = "FD1CEFBD-BAB1-4C2A-A598-30E93F9A29F6";
paths = (
{
closed = 1;
nodes = (
"584 0 LINE",
"584 1172 LINE SMOOTH",
"584 1330 OFFCURVE",
"670 1408 OFFCURVE",
"794 1408 CURVE SMOOTH",
"852 1408 OFFCURVE",
"930 1384 OFFCURVE",
"1000 1336 CURVE",
"1064 1482 LINE",
"976 1534 OFFCURVE",
"864 1564 OFFCURVE",
"776 1564 CURVE SMOOTH",
"562 1564 OFFCURVE",
"412 1420 OFFCURVE",
"412 1166 CURVE SMOOTH",
"412 0 LINE"
);
},
{
closed = 1;
nodes = (
"1002 904 LINE",
"1002 1060 LINE",
"144 1060 LINE",
"144 904 LINE"
);
}
);
width = 1152;
}
);
unicode = 0066;
},
{
glyphname = g;
lastChange = "2022-02-04 06:37:36 +0000";
layers = (
{
anchors = (
{
name = bottom;
position = "{572, -420}";
},
{
name = top;
position = "{568, 1048}";
}
);
layerId = "AB099EFE-E788-4EFC-8633-CF147CB782A6";
paths = (
{
closed = 1;
nodes = (
"726 -436 OFFCURVE",
"960 -318 OFFCURVE",
"960 8 CURVE SMOOTH",
"960 1048 LINE",
"900 1048 LINE",
"900 834 LINE",
"892 834 LINE",
"904 772 LINE",
"904 282 LINE",
"892 224 LINE",
"902 224 LINE",
"902 4 LINE SMOOTH",
"902 -244 OFFCURVE",
"744 -380 OFFCURVE",
"554 -380 CURVE SMOOTH",
"450 -380 OFFCURVE",
"340 -340 OFFCURVE",
"264 -266 CURVE",
"240 -326 LINE",
"310 -388 OFFCURVE",
"450 -436 OFFCURVE",
"556 -436 CURVE SMOOTH"
);
},
{
closed = 1;
nodes = (
"768 -16 OFFCURVE",
"958 158 OFFCURVE",
"958 528 CURVE SMOOTH",
"958 896 OFFCURVE",
"772 1064 OFFCURVE",
"556 1064 CURVE SMOOTH",
"304 1064 OFFCURVE",
"140 856 OFFCURVE",
"140 528 CURVE SMOOTH",
"140 190 OFFCURVE",
"310 -16 OFFCURVE",
"554 -16 CURVE SMOOTH"
);
},
{
closed = 1;
nodes = (
"352 40 OFFCURVE",
"200 232 OFFCURVE",
"200 528 CURVE SMOOTH",
"200 816 OFFCURVE",
"338 1008 OFFCURVE",
"552 1008 CURVE SMOOTH",
"758 1008 OFFCURVE",
"904 824 OFFCURVE",
"904 538 CURVE SMOOTH",
"904 250 OFFCURVE",
"758 40 OFFCURVE",
"552 40 CURVE SMOOTH"
);
}
);
width = 1152;
},
{
anchors = (
{
name = bottom;
position = "{570, -420}";
},
{
name = top;
position = "{548, 1080}";
}
);
layerId = "2D8F7115-C311-411E-929D-56333CF7FFB2";
paths = (
{
closed = 1;
nodes = (
"846 -436 OFFCURVE",
"1044 -256 OFFCURVE",
"1044 70 CURVE SMOOTH",
"1044 1082 LINE",
"732 1082 LINE",
"732 982 LINE",
"650 982 LINE",
"736 860 LINE",
"736 250 LINE",
"686 148 LINE",
"716 148 LINE",
"716 50 LINE SMOOTH",
"716 -84 OFFCURVE",
"568 -142 OFFCURVE",
"474 -142 CURVE SMOOTH",
"410 -142 OFFCURVE",
"336 -118 OFFCURVE",
"248 -64 CURVE",
"134 -338 LINE",
"210 -384 OFFCURVE",
"356 -436 OFFCURVE",
"520 -436 CURVE SMOOTH"
);
},
{
closed = 1;
nodes = (
"698 28 OFFCURVE",
"882 286 OFFCURVE",
"882 578 CURVE SMOOTH",
"882 858 OFFCURVE",
"716 1098 OFFCURVE",
"474 1098 CURVE SMOOTH",
"284 1098 OFFCURVE",
"64 926 OFFCURVE",
"64 558 CURVE SMOOTH",
"64 184 OFFCURVE",
"288 28 OFFCURVE",
"464 28 CURVE SMOOTH"
);
},
{
closed = 1;
nodes = (
"470 312 OFFCURVE",
"406 420 OFFCURVE",
"406 570 CURVE SMOOTH",
"406 724 OFFCURVE",
"478 816 OFFCURVE",
"570 816 CURVE SMOOTH",
"664 816 OFFCURVE",
"732 722 OFFCURVE",
"732 570 CURVE SMOOTH",
"732 418 OFFCURVE",
"660 312 OFFCURVE",
"560 312 CURVE SMOOTH"
);
}
);
width = 1152;
},
{
anchors = (
{
name = bottom;
position = "{570, -420}";
},
{
name = top;
position = "{560, 1060}";
}
);
layerId = "FD1CEFBD-BAB1-4C2A-A598-30E93F9A29F6";
paths = (
{
closed = 1;
nodes = (
"772 -436 OFFCURVE",
"1000 -298 OFFCURVE",
"1000 32 CURVE SMOOTH",
"1000 1060 LINE",
"828 1060 LINE",
"828 926 LINE",
"792 926 LINE",
"838 828 LINE",
"838 258 LINE",
"804 164 LINE",
"832 164 LINE",
"832 24 LINE SMOOTH",
"832 -196 OFFCURVE",
"660 -280 OFFCURVE",
"526 -280 CURVE SMOOTH",
"424 -280 OFFCURVE",
"310 -232 OFFCURVE",
"254 -182 CURVE",
"192 -334 LINE",
"268 -388 OFFCURVE",
"406 -436 OFFCURVE",
"542 -436 CURVE SMOOTH"
);
},
{
closed = 1;
nodes = (
"766 -4 OFFCURVE",
"944 226 OFFCURVE",
"944 544 CURVE SMOOTH",
"944 860 OFFCURVE",
"774 1078 OFFCURVE",
"540 1078 CURVE SMOOTH",
"310 1078 OFFCURVE",
"100 878 OFFCURVE",
"100 540 CURVE SMOOTH",
"100 206 OFFCURVE",
"306 -4 OFFCURVE",
"532 -4 CURVE SMOOTH"
);
},
{
closed = 1;
nodes = (
"396 156 OFFCURVE",
"276 318 OFFCURVE",
"276 540 CURVE SMOOTH",
"276 762 OFFCURVE",
"394 918 OFFCURVE",
"560 918 CURVE SMOOTH",
"718 918 OFFCURVE",
"836 770 OFFCURVE",
"836 544 CURVE SMOOTH",
"836 316 OFFCURVE",
"718 156 OFFCURVE",
"560 156 CURVE SMOOTH"
);
}
);
width = 1152;
}
);
unicode = 0067;
},
{
color = 4;
glyphname = g.ss01;
lastChange = "2022-02-04 06:39:02 +0000";
layers = (
{
anchors = (
{
name = bottom;
position = "{578, -420}";
},
{
name = top;
position = "{574, 1048}";
}
);
layerId = "AB099EFE-E788-4EFC-8633-CF147CB782A6";
paths = (
{
closed = 1;
nodes = (
"746 -436 OFFCURVE",
"990 -318 OFFCURVE",
"990 8 CURVE SMOOTH",
"990 1048 LINE",
"930 1048 LINE",
"930 810 LINE",
"914 810 LINE",
"934 740 LINE",
"934 318 LINE",
"918 248 LINE",
"930 248 LINE",
"930 4 LINE SMOOTH",
"930 -268 OFFCURVE",
"732 -382 OFFCURVE",
"562 -380 CURVE SMOOTH",
"452 -378 OFFCURVE",
"314 -334 OFFCURVE",
"246 -266 CURVE",
"222 -326 LINE",
"292 -388 OFFCURVE",
"446 -436 OFFCURVE",
"562 -436 CURVE SMOOTH"
);
},
{
closed = 1;
nodes = (
"790 -16 OFFCURVE",
"986 202 OFFCURVE",
"986 524 CURVE SMOOTH",
"986 850 OFFCURVE",
"790 1064 OFFCURVE",
"546 1064 CURVE SMOOTH",
"302 1064 OFFCURVE",
"108 848 OFFCURVE",
"108 524 CURVE SMOOTH",
"108 202 OFFCURVE",
"302 -16 OFFCURVE",
"546 -16 CURVE SMOOTH"
);
},
{
closed = 1;
nodes = (
"336 40 OFFCURVE",
"168 236 OFFCURVE",
"168 524 CURVE SMOOTH",
"168 818 OFFCURVE",
"336 1008 OFFCURVE",
"548 1008 CURVE SMOOTH",
"764 1008 OFFCURVE",
"932 818 OFFCURVE",
"932 524 CURVE SMOOTH",
"932 238 OFFCURVE",
"764 40 OFFCURVE",
"548 40 CURVE SMOOTH"
);
}
);
width = 1152;
},
{
anchors = (
{
name = bottom;
position = "{586, -420}";
},
{
name = top;
position = "{564, 1080}";
}
);
layerId = "2D8F7115-C311-411E-929D-56333CF7FFB2";
paths = (
{
closed = 1;
nodes = (
"850 -436 OFFCURVE",
"1064 -256 OFFCURVE",
"1064 70 CURVE SMOOTH",
"1064 1080 LINE",
"734 1080 LINE",
"734 976 LINE",
"688 976 LINE",
"734 854 LINE",
"734 212 LINE",
"676 160 LINE",
"734 160 LINE",
"734 50 LINE SMOOTH",
"734 -92 OFFCURVE",
"578 -142 OFFCURVE",
"484 -142 CURVE SMOOTH",
"404 -142 OFFCURVE",
"316 -114 OFFCURVE",
"234 -64 CURVE",
"126 -338 LINE",
"202 -384 OFFCURVE",
"328 -436 OFFCURVE",
"516 -436 CURVE SMOOTH"
);
},
{
closed = 1;
nodes = (
"708 30 OFFCURVE",
"844 264 OFFCURVE",
"844 564 CURVE SMOOTH",
"844 878 OFFCURVE",
"718 1096 OFFCURVE",
"482 1096 CURVE SMOOTH",
"228 1096 OFFCURVE",
"44 870 OFFCURVE",
"44 564 CURVE SMOOTH",
"44 256 OFFCURVE",
"224 30 OFFCURVE",
"468 30 CURVE SMOOTH"
);
},
{
closed = 1;
nodes = (
"454 320 OFFCURVE",
"378 422 OFFCURVE",
"378 564 CURVE SMOOTH",
"378 706 OFFCURVE",
"452 804 OFFCURVE",
"556 804 CURVE SMOOTH",
"656 804 OFFCURVE",
"734 708 OFFCURVE",
"734 564 CURVE SMOOTH",
"734 422 OFFCURVE",
"656 320 OFFCURVE",
"556 320 CURVE SMOOTH"
);
}
);
width = 1152;
},
{
anchors = (
{
name = bottom;
position = "{584, -420}";
},
{
name = top;
position = "{572, 1060}";
}
);
layerId = "FD1CEFBD-BAB1-4C2A-A598-30E93F9A29F6";
paths = (
{
closed = 1;
nodes = (
"792 -434 OFFCURVE",
"1016 -284 OFFCURVE",
"1016 32 CURVE SMOOTH",
"1016 1060 LINE",
"848 1060 LINE",
"848 914 LINE",
"822 914 LINE",
"856 828 LINE",
"856 262 LINE",
"818 168 LINE",
"848 168 LINE",
"848 24 LINE SMOOTH",
"848 -202 OFFCURVE",
"666 -278 OFFCURVE",
"532 -278 CURVE SMOOTH",
"420 -278 OFFCURVE",
"308 -232 OFFCURVE",
"234 -168 CURVE",
"170 -320 LINE",
"252 -386 OFFCURVE",
"396 -434 OFFCURVE",
"538 -434 CURVE SMOOTH"
);
},
{
closed = 1;
nodes = (
"786 4 OFFCURVE",
"946 252 OFFCURVE",
"946 544 CURVE SMOOTH",
"946 860 OFFCURVE",
"776 1076 OFFCURVE",
"524 1076 CURVE SMOOTH",
"272 1076 OFFCURVE",
"80 860 OFFCURVE",
"80 544 CURVE SMOOTH",
"80 228 OFFCURVE",
"270 4 OFFCURVE",
"524 4 CURVE SMOOTH"
);
},
{
closed = 1;
nodes = (
"376 162 OFFCURVE",
"252 332 OFFCURVE",
"252 544 CURVE SMOOTH",
"252 762 OFFCURVE",
"382 918 OFFCURVE",
"554 918 CURVE SMOOTH",
"722 918 OFFCURVE",
"852 768 OFFCURVE",
"852 542 CURVE SMOOTH",
"852 312 OFFCURVE",
"718 162 OFFCURVE",
"552 162 CURVE SMOOTH"
);
}
);
width = 1152;
}
);
},
{
color = 7;
glyphname = g.ss03;
lastChange = "2021-12-20 06:18:11 +0000";
layers = (
{
anchors = (
{
name = bottom;
position = "{570, -438}";
},
{
name = top;
position = "{544, 1048}";
}
);
layerId = "AB099EFE-E788-4EFC-8633-CF147CB782A6";
paths = (
{
closed = 1;
nodes = (
"822 -438 OFFCURVE",
"1034 -298 OFFCURVE",
"1034 -106 CURVE SMOOTH",
"1034 34 OFFCURVE",
"916 126 OFFCURVE",
"728 126 CURVE SMOOTH",
"458 126 LINE SMOOTH",
"330 126 OFFCURVE",
"230 200 OFFCURVE",
"230 312 CURVE SMOOTH",
"230 362 OFFCURVE",
"250 404 OFFCURVE",
"286 438 CURVE",
"248 484 LINE",
"214 452 OFFCURVE",
"174 390 OFFCURVE",
"174 316 CURVE SMOOTH",
"174 198 OFFCURVE",
"266 70 OFFCURVE",
"460 70 CURVE SMOOTH",
"742 70 LINE SMOOTH",
"888 70 OFFCURVE",
"974 0 OFFCURVE",
"974 -106 CURVE SMOOTH",
"974 -258 OFFCURVE",
"806 -382 OFFCURVE",
"558 -382 CURVE SMOOTH",
"338 -382 OFFCURVE",
"188 -284 OFFCURVE",
"188 -140 CURVE SMOOTH",
"188 -38 OFFCURVE",
"272 74 OFFCURVE",
"350 106 CURVE",
"298 144 LINE",
"204 90 OFFCURVE",
"128 -26 OFFCURVE",
"128 -140 CURVE SMOOTH",
"128 -316 OFFCURVE",
"304 -438 OFFCURVE",
"554 -438 CURVE SMOOTH"
);
},
{
closed = 1;
nodes = (
"772 332 OFFCURVE",
"940 480 OFFCURVE",
"940 702 CURVE SMOOTH",
"940 918 OFFCURVE",
"780 1064 OFFCURVE",
"546 1064 CURVE SMOOTH",
"320 1064 OFFCURVE",
"152 922 OFFCURVE",
"152 704 CURVE SMOOTH",
"152 484 OFFCURVE",
"322 332 OFFCURVE",
"548 332 CURVE SMOOTH"
);
},
{
closed = 1;
nodes = (
"358 388 OFFCURVE",
"216 520 OFFCURVE",
"216 700 CURVE SMOOTH",
"216 876 OFFCURVE",
"350 1008 OFFCURVE",
"544 1008 CURVE SMOOTH",
"734 1008 OFFCURVE",
"880 886 OFFCURVE",
"880 700 CURVE SMOOTH",
"880 504 OFFCURVE",
"720 388 OFFCURVE",
"544 388 CURVE SMOOTH"
);
},
{
closed = 1;
nodes = (
"908 964 OFFCURVE",
"960 992 OFFCURVE",
"1054 1036 CURVE",
"1022 1094 LINE",
"956 1062 OFFCURVE",
"906 1032 OFFCURVE",
"822 966 CURVE",
"846 914 LINE"
);
}
);
width = 1152;
},
{
anchors = (
{
name = bottom;
position = "{558, -438}";
},
{
name = top;
position = "{544, 1080}";
}
);
background = {
paths = (
{
closed = 1;
nodes = (
"995 -455 OFFCURVE",
"1200 -303 OFFCURVE",
"1200 -82 CURVE SMOOTH",
"1200 98 OFFCURVE",
"1061 209 OFFCURVE",
"836 208 CURVE SMOOTH",
"586 208 LINE SMOOTH",
"471 209 OFFCURVE",
"381 246 OFFCURVE",
"380 316 CURVE SMOOTH",
"381 356 OFFCURVE",
"406 385 OFFCURVE",
"434 398 CURVE",
"316 504 LINE",
"193 446 OFFCURVE",
"147 315 OFFCURVE",
"148 242 CURVE SMOOTH",
"147 82 OFFCURVE",
"336 -4 OFFCURVE",
"610 -4 CURVE SMOOTH",
"734 -4 LINE SMOOTH",
"819 -4 OFFCURVE",
"872 -37 OFFCURVE",
"872 -82 CURVE SMOOTH",
"872 -147 OFFCURVE",
"766 -180 OFFCURVE",
"626 -180 CURVE SMOOTH",
"479 -180 OFFCURVE",
"324 -143 OFFCURVE",
"324 -58 CURVE SMOOTH",
"324 -8 OFFCURVE",
"369 41 OFFCURVE",
"426 58 CURVE",
"230 126 LINE",
"131 102 OFFCURVE",
"41 -20 OFFCURVE",
"40 -140 CURVE SMOOTH",
"41 -319 OFFCURVE",
"246 -455 OFFCURVE",
"610 -454 CURVE SMOOTH"
);
}
);
};
layerId = "2D8F7115-C311-411E-929D-56333CF7FFB2";
paths = (
{
closed = 1;
nodes = (
"986 -438 OFFCURVE",
"1138 -284 OFFCURVE",
"1138 -82 CURVE SMOOTH",
"1138 120 OFFCURVE",
"980 234 OFFCURVE",
"764 234 CURVE SMOOTH",
"534 234 LINE SMOOTH",
"432 234 OFFCURVE",
"344 234 OFFCURVE",
"344 300 CURVE SMOOTH",
"344 338 OFFCURVE",
"376 372 OFFCURVE",
"410 386 CURVE",
"204 472 LINE",
"158 450 OFFCURVE",
"82 384 OFFCURVE",
"82 282 CURVE SMOOTH",
"82 124 OFFCURVE",
"228 -4 OFFCURVE",
"490 -4 CURVE SMOOTH",
"698 -4 LINE SMOOTH",
"734 -4 OFFCURVE",
"810 -4 OFFCURVE",
"810 -70 CURVE SMOOTH",
"810 -152 OFFCURVE",
"704 -164 OFFCURVE",
"584 -164 CURVE SMOOTH",
"454 -164 OFFCURVE",
"302 -150 OFFCURVE",
"302 -54 CURVE SMOOTH",
"302 -14 OFFCURVE",
"332 46 OFFCURVE",
"396 66 CURVE",
"200 126 LINE",
"108 102 OFFCURVE",
"18 -18 OFFCURVE",
"18 -148 CURVE SMOOTH",
"18 -328 OFFCURVE",
"196 -438 OFFCURVE",
"558 -438 CURVE SMOOTH"
);
},
{
closed = 1;
nodes = (
"808 308 OFFCURVE",
"1004 476 OFFCURVE",
"1004 704 CURVE SMOOTH",
"1004 938 OFFCURVE",
"800 1098 OFFCURVE",
"542 1098 CURVE SMOOTH",
"288 1098 OFFCURVE",
"96 942 OFFCURVE",
"96 716 CURVE SMOOTH",
"96 484 OFFCURVE",
"296 308 OFFCURVE",
"554 308 CURVE SMOOTH"
);
},
{
closed = 1;
nodes = (
"466 544 OFFCURVE",
"400 614 OFFCURVE",
"400 698 CURVE SMOOTH",
"400 782 OFFCURVE",
"468 852 OFFCURVE",
"548 852 CURVE SMOOTH",
"628 852 OFFCURVE",
"696 790 OFFCURVE",
"696 696 CURVE SMOOTH",
"696 602 OFFCURVE",
"628 544 OFFCURVE",
"552 544 CURVE SMOOTH"
);
},
{
closed = 1;
nodes = (
"992 926 OFFCURVE",
"1022 938 OFFCURVE",
"1150 938 CURVE",
"1086 1192 LINE",
"972 1162 OFFCURVE",
"880 1110 OFFCURVE",
"746 1008 CURVE",
"892 888 LINE"
);
}
);
width = 1152;
},
{
anchors = (
{
name = bottom;
position = "{568, -438}";
},
{
name = top;
position = "{550, 1060}";
}
);
layerId = "FD1CEFBD-BAB1-4C2A-A598-30E93F9A29F6";
paths = (
{
closed = 1;
nodes = (
"884 -438 OFFCURVE",
"1070 -274 OFFCURVE",
"1074 -94 CURVE SMOOTH",
"1076 58 OFFCURVE",
"948 168 OFFCURVE",
"744 168 CURVE SMOOTH",
"518 168 LINE SMOOTH",
"434 168 OFFCURVE",
"326 194 OFFCURVE",
"326 300 CURVE SMOOTH",
"326 342 OFFCURVE",
"348 366 OFFCURVE",
"386 394 CURVE",
"268 488 LINE",
"218 438 OFFCURVE",
"172 372 OFFCURVE",
"172 294 CURVE SMOOTH",
"172 172 OFFCURVE",
"280 20 OFFCURVE",
"524 20 CURVE SMOOTH",
"698 20 LINE SMOOTH",
"812 20 OFFCURVE",
"902 -8 OFFCURVE",
"902 -96 CURVE SMOOTH",
"902 -206 OFFCURVE",
"770 -282 OFFCURVE",
"568 -282 CURVE SMOOTH",
"394 -282 OFFCURVE",
"258 -230 OFFCURVE",
"258 -106 CURVE SMOOTH",
"258 -18 OFFCURVE",
"330 46 OFFCURVE",
"390 66 CURVE",
"264 140 LINE",
"166 86 OFFCURVE",
"94 -14 OFFCURVE",
"94 -122 CURVE SMOOTH",
"94 -312 OFFCURVE",
"284 -438 OFFCURVE",
"570 -438 CURVE SMOOTH"
);
},
{
closed = 1;
nodes = (
"796 328 OFFCURVE",
"968 488 OFFCURVE",
"968 704 CURVE SMOOTH",
"968 926 OFFCURVE",
"796 1076 OFFCURVE",
"556 1076 CURVE SMOOTH",
"322 1076 OFFCURVE",
"146 926 OFFCURVE",
"146 704 CURVE SMOOTH",
"146 480 OFFCURVE",
"324 328 OFFCURVE",
"558 328 CURVE SMOOTH"
);
},
{
closed = 1;
nodes = (
"424 476 OFFCURVE",
"318 570 OFFCURVE",
"318 700 CURVE SMOOTH",
"318 832 OFFCURVE",
"422 928 OFFCURVE",
"560 928 CURVE SMOOTH",
"686 928 OFFCURVE",
"798 854 OFFCURVE",
"798 704 CURVE SMOOTH",
"798 570 OFFCURVE",
"696 476 OFFCURVE",
"560 476 CURVE SMOOTH"
);
},
{
closed = 1;
nodes = (
"944 942 OFFCURVE",
"990 972 OFFCURVE",
"1090 992 CURVE",
"1024 1142 LINE",
"932 1104 OFFCURVE",
"866 1068 OFFCURVE",
"766 996 CURVE",
"862 898 LINE"
);
}
);
width = 1152;
}
);
},
{
glyphname = h;
lastChange = "2021-12-20 06:18:11 +0000";
layers = (
{
anchors = (
{
name = bottom;
position = "{578, 0}";
},
{
name = center;
position = "{230, 1262}";
},
{
name = top;
position = "{230, 1474}";
}
);
layerId = "AB099EFE-E788-4EFC-8633-CF147CB782A6";
paths = (
{
closed = 1;
nodes = (
"260 0 LINE",
"260 668 LINE SMOOTH",
"260 870 OFFCURVE",
"402 1008 OFFCURVE",
"592 1008 CURVE SMOOTH",
"782 1008 OFFCURVE",
"896 882 OFFCURVE",
"896 672 CURVE SMOOTH",
"896 0 LINE",
"956 0 LINE",
"956 676 LINE SMOOTH",
"956 912 OFFCURVE",
"814 1064 OFFCURVE",
"600 1064 CURVE SMOOTH",
"418 1064 OFFCURVE",
"282 962 OFFCURVE",
"246 832 CURVE",
"290 876 LINE",
"260 876 LINE",
"260 1540 LINE",
"200 1540 LINE",
"200 0 LINE"
);
}
);
width = 1152;
},
{
anchors = (
{
name = bottom;
position = "{580, 0}";
},
{
name = center;
position = "{272, 1298}";
},
{
name = top;
position = "{272, 1540}";
}
);
layerId = "2D8F7115-C311-411E-929D-56333CF7FFB2";
paths = (
{
closed = 1;
nodes = (
"452 0 LINE",
"452 630 LINE SMOOTH",
"452 744 OFFCURVE",
"512 806 OFFCURVE",
"584 806 CURVE SMOOTH",
"658 806 OFFCURVE",
"708 750 OFFCURVE",
"708 634 CURVE SMOOTH",
"708 0 LINE",
"1064 0 LINE",
"1064 712 LINE SMOOTH",
"1064 950 OFFCURVE",
"938 1096 OFFCURVE",
"730 1096 CURVE SMOOTH",
"582 1096 OFFCURVE",
"428 1020 OFFCURVE",
"400 868 CURVE",
"514 988 LINE",
"452 988 LINE",
"452 1540 LINE",
"96 1540 LINE",
"96 0 LINE"
);
}
);
width = 1152;
},
{
anchors = (
{
name = bottom;
position = "{576, 0}";
},
{
name = center;
position = "{246, 1274}";
},
{
name = top;
position = "{242, 1516}";
}
);
layerId = "FD1CEFBD-BAB1-4C2A-A598-30E93F9A29F6";
paths = (
{
closed = 1;
nodes = (
"328 0 LINE",
"328 644 LINE SMOOTH",
"328 824 OFFCURVE",
"448 916 OFFCURVE",
"590 916 CURVE SMOOTH",
"728 916 OFFCURVE",
"828 824 OFFCURVE",
"828 644 CURVE SMOOTH",
"828 0 LINE",
"1000 0 LINE",
"1000 680 LINE SMOOTH",
"1000 864 OFFCURVE",
"888 1076 OFFCURVE",
"642 1076 CURVE SMOOTH",
"478 1076 OFFCURVE",
"338 996 OFFCURVE",
"294 860 CURVE",
"368 938 LINE",
"328 938 LINE",
"328 1540 LINE",
"156 1540 LINE",
"156 0 LINE"
);
}
);
width = 1152;
}
);
rightMetricsKey = n;
unicode = 0068;
},
{
glyphname = idotless;
lastChange = "2022-02-06 23:38:08 +0000";
layers = (
{
anchors = (
{
name = bottom;
position = "{662, 0}";
},
{
name = ogonek;
position = "{664, 0}";
},
{
name = top;
position = "{632, 1048}";
}
);
layerId = "AB099EFE-E788-4EFC-8633-CF147CB782A6";
paths = (
{
closed = 1;
nodes = (
"664 0 LINE",
"664 1048 LINE",
"604 1048 LINE",
"604 0 LINE"
);
},
{
closed = 1;
nodes = (
"664 992 LINE",
"664 1048 LINE",
"212 1048 LINE",
"212 992 LINE"
);
}
);
width = 1152;
},
{
anchors = (
{
name = bottom;
position = "{640, 0}";
},
{
name = ogonek;
position = "{818, 0}";
},
{
name = top;
position = "{640, 1080}";
}
);
layerId = "2D8F7115-C311-411E-929D-56333CF7FFB2";
paths = (
{
closed = 1;
nodes = (
"818 0 LINE",
"818 1080 LINE",
"462 1080 LINE",
"462 0 LINE"
);
},
{
closed = 1;
nodes = (
"818 780 LINE",
"818 1080 LINE",
"154 1080 LINE",
"154 780 LINE"
);
}
);
width = 1152;
},
{
anchors = (
{
name = bottom;
position = "{636, 0}";
},
{
name = ogonek;
position = "{716, 0}";
},
{
name = top;
position = "{634, 1060}";
}
);
layerId = "FD1CEFBD-BAB1-4C2A-A598-30E93F9A29F6";
paths = (
{
closed = 1;
nodes = (
"716 0 LINE",
"716 1060 LINE",
"544 1060 LINE",
"544 0 LINE"
);
},
{
closed = 1;
nodes = (
"716 904 LINE",
"716 1060 LINE",
"216 1060 LINE",
"216 904 LINE"
);
}
);
width = 1152;
}
);
unicode = 0131;
},
{
color = 8;
glyphname = idotless.ss01;
lastChange = "2022-02-14 07:49:22 +0000";
layers = (
{
anchors = (
{
name = bottom;
position = "{632, 0}";
},
{
name = ogonek;
position = "{972, 0}";
},
{
name = top;
position = "{632, 1048}";
}
);
background = {
anchors = (
{
name = bottom;
position = "{300, 0}";
},
{
name = center;
position = "{218, 570}";
},
{
name = ogonek;
position = "{438, 12}";
},
{
name = top;
position = "{218, 1048}";
}
);
paths = (
{
closed = 1;
nodes = (
"375 -8 OFFCURVE",
"418 0 OFFCURVE",
"438 12 CURVE",
"438 74 LINE",
"410 59 OFFCURVE",
"371 49 OFFCURVE",
"336 50 CURVE SMOOTH",
"248 49 OFFCURVE",
"246 119 OFFCURVE",
"246 208 CURVE SMOOTH",
"246 1048 LINE",
"184 1048 LINE",
"184 222 LINE SMOOTH",
"184 111 OFFCURVE",
"184 -8 OFFCURVE",
"340 -8 CURVE SMOOTH"
);
}
);
};
guideLines = (
{
angle = 80;
position = "{182, -8}";
}
);
layerId = "AB099EFE-E788-4EFC-8633-CF147CB782A6";
paths = (
{
closed = 1;
nodes = (
"656 0 LINE",
"656 1048 LINE",
"596 1048 LINE",
"596 0 LINE"
);
},
{
closed = 1;
nodes = (
"216 992 LINE",
"648 992 LINE",
"648 1048 LINE",
"216 1048 LINE"
);
},
{
closed = 1;
nodes = (
"216 0 LINE",
"972 0 LINE",
"972 56 LINE",
"216 56 LINE"
);
}
);
width = 1152;
},
{
anchors = (
{
name = bottom;
position = "{630, 0}";
},
{
name = ogonek;
position = "{1048, 0}";
},
{
name = top;
position = "{630, 1080}";
}
);
background = {
anchors = (
{
name = bottom;
position = "{336, 0}";
},
{
name = center;
position = "{312, 570}";
},
{
name = ogonek;
position = "{598, 8}";
},
{
name = top;
position = "{312, 1080}";
}
);
paths = (
{
closed = 1;
nodes = (
"483 -16 OFFCURVE",
"551 -10 OFFCURVE",
"598 8 CURVE",
"598 286 LINE",
"571 281 OFFCURVE",
"559 279 OFFCURVE",
"544 278 CURVE SMOOTH",
"487 279 OFFCURVE",
"483 319 OFFCURVE",
"484 376 CURVE SMOOTH",
"484 1082 LINE",
"126 1082 LINE",
"126 278 LINE SMOOTH",
"127 111 OFFCURVE",
"238 -16 OFFCURVE",
"430 -16 CURVE SMOOTH"
);
}
);
};
guideLines = (
{
angle = 80;
position = "{308, -8}";
}
);
layerId = "2D8F7115-C311-411E-929D-56333CF7FFB2";
paths = (
{
closed = 1;
nodes = (
"808 0 LINE",
"808 1080 LINE",
"452 1080 LINE",
"452 0 LINE"
);
},
{
closed = 1;
nodes = (
"172 780 LINE",
"808 780 LINE",
"808 1080 LINE",
"172 1080 LINE"
);
},
{
closed = 1;
nodes = (
"172 0 LINE",
"1048 0 LINE",
"1048 300 LINE",
"172 300 LINE"
);
}
);
width = 1152;
},
{
anchors = (
{
name = bottom;
position = "{622, 0}";
},
{
name = ogonek;
position = "{1002, 0}";
},
{
name = top;
position = "{622, 1060}";
}
);
layerId = "FD1CEFBD-BAB1-4C2A-A598-30E93F9A29F6";
paths = (
{
closed = 1;
nodes = (
"708 0 LINE",
"708 1060 LINE",
"536 1060 LINE",
"536 0 LINE"
);
},
{
closed = 1;
nodes = (
"224 904 LINE",
"708 904 LINE",
"708 1060 LINE",
"224 1060 LINE"
);
},
{
closed = 1;
nodes = (
"224 0 LINE",
"1004 0 LINE",
"1004 156 LINE",
"224 156 LINE"
);
}
);
width = 1152;
}
);
rightKerningGroup = LAT_A_LC;
},
{
glyphname = idotless.ss02;
lastChange = "2022-02-06 23:53:39 +0000";
layers = (
{
anchors = (
{
name = bottom;
position = "{620, 0}";
},
{
name = ogonek;
position = "{1076, 66}";
},
{
name = top;
position = "{590, 1048}";
}
);
layerId = "AB099EFE-E788-4EFC-8633-CF147CB782A6";
paths = (
{
closed = 1;
nodes = (
"928 -12 OFFCURVE",
"1025 20 OFFCURVE",
"1078 66 CURVE",
"1052 120 LINE",
"1007 75 OFFCURVE",
"921 44 OFFCURVE",
"842 44 CURVE SMOOTH",
"712 44 OFFCURVE",
"622 146 OFFCURVE",
"622 294 CURVE SMOOTH",
"622 1048 LINE",
"562 1048 LINE",
"562 306 LINE SMOOTH",
"562 117 OFFCURVE",
"675 -12 OFFCURVE",
"840 -12 CURVE SMOOTH"
);
},
{
closed = 1;
nodes = (
"622 992 LINE",
"622 1048 LINE",
"170 1048 LINE",
"170 992 LINE"
);
}
);
width = 1152;
},
{
anchors = (
{
name = bottom;
position = "{556, 0}";
},
{
name = ogonek;
position = "{1088, 62}";
},
{
name = top;
position = "{556, 1080}";
}
);
guideLines = (
{
angle = 60;
position = "{180, 0}";
}
);
layerId = "2D8F7115-C311-411E-929D-56333CF7FFB2";
paths = (
{
closed = 1;
nodes = (
"910 -16 OFFCURVE",
"1032 20 OFFCURVE",
"1088 62 CURVE",
"972 332 LINE",
"940 306 OFFCURVE",
"896 286 OFFCURVE",
"848 286 CURVE SMOOTH",
"782 286 OFFCURVE",
"734 318 OFFCURVE",
"734 392 CURVE SMOOTH",
"734 1080 LINE",
"376 1080 LINE",
"376 392 LINE SMOOTH",
"376 140 OFFCURVE",
"540 -16 OFFCURVE",
"794 -16 CURVE SMOOTH"
);
},
{
closed = 1;
nodes = (
"734 780 LINE",
"734 1080 LINE",
"96 1080 LINE",
"96 780 LINE"
);
}
);
width = 1152;
},
{
anchors = (
{
name = bottom;
position = "{556, 0}";
},
{
name = ogonek;
position = "{1060, 74}";
},
{
name = top;
position = "{554, 1060}";
}
);
layerId = "FD1CEFBD-BAB1-4C2A-A598-30E93F9A29F6";
paths = (
{
closed = 1;
nodes = (
"896 -16 OFFCURVE",
"990 16 OFFCURVE",
"1060 68 CURVE",
"994 220 LINE",
"950 174 OFFCURVE",
"882 144 OFFCURVE",
"818 144 CURVE SMOOTH",
"716 144 OFFCURVE",
"636 222 OFFCURVE",
"636 336 CURVE SMOOTH",
"636 1060 LINE",
"464 1060 LINE",
"464 334 LINE SMOOTH",
"464 126 OFFCURVE",
"610 -16 OFFCURVE",
"802 -16 CURVE SMOOTH"
);
},
{
closed = 1;
nodes = (
"636 904 LINE",
"636 1060 LINE",
"136 1060 LINE",
"136 904 LINE"
);
}
);
width = 1152;
}
);
},
{
glyphname = jdotless;
lastChange = "2022-01-30 23:40:40 +0000";
layers = (
{
anchors = (
{
name = center;
position = "{732, 570}";
},
{
name = top;
position = "{732, 1048}";
}
);
guideLines = (
{
angle = 67.5;
position = "{174, -238}";
}
);
layerId = "AB099EFE-E788-4EFC-8633-CF147CB782A6";
paths = (
{
closed = 1;
nodes = (
"762 -436 OFFCURVE",
"762 -168 OFFCURVE",
"762 -98 CURVE SMOOTH",
"762 1048 LINE",
"702 1048 LINE",
"702 -110 LINE SMOOTH",
"702 -268 OFFCURVE",
"610 -380 OFFCURVE",
"420 -380 CURVE SMOOTH",
"326 -380 OFFCURVE",
"232 -352 OFFCURVE",
"146 -304 CURVE",
"124 -360 LINE",
"218 -412 OFFCURVE",
"308 -436 OFFCURVE",
"412 -436 CURVE SMOOTH"
);
},
{
closed = 1;
nodes = (
"282 992 LINE",
"762 992 LINE",
"762 1048 LINE",
"282 1048 LINE"
);
}
);
width = 1152;
},
{
anchors = (
{
name = center;
position = "{734, 570}";
},
{
name = top;
position = "{734, 1080}";
}
);
guideLines = (
{
angle = 67.5;
position = "{150, -68}";
}
);
layerId = "2D8F7115-C311-411E-929D-56333CF7FFB2";
paths = (
{
closed = 1;
nodes = (
"722 -436 OFFCURVE",
"912 -260 OFFCURVE",
"912 10 CURVE SMOOTH",
"912 1080 LINE",
"556 1080 LINE",
"556 10 LINE SMOOTH",
"556 -108 OFFCURVE",
"454 -134 OFFCURVE",
"382 -134 CURVE SMOOTH",
"308 -134 OFFCURVE",
"216 -108 OFFCURVE",
"150 -68 CURVE",
"32 -352 LINE",
"142 -406 OFFCURVE",
"280 -436 OFFCURVE",
"410 -436 CURVE SMOOTH"
);
},
{
closed = 1;
nodes = (
"196 760 LINE",
"912 760 LINE",
"912 1080 LINE",
"196 1080 LINE"
);
}
);
width = 1152;
},
{
anchors = (
{
name = center;
position = "{746, 570}";
},
{
name = top;
position = "{746, 1060}";
}
);
guideLines = (
{
angle = 67.5;
position = "{144, -192}";
}
);
layerId = "FD1CEFBD-BAB1-4C2A-A598-30E93F9A29F6";
paths = (
{
closed = 1;
nodes = (
"666 -436 OFFCURVE",
"832 -304 OFFCURVE",
"832 -86 CURVE SMOOTH",
"832 1060 LINE",
"660 1060 LINE",
"660 -68 LINE SMOOTH",
"660 -196 OFFCURVE",
"562 -276 OFFCURVE",
"424 -276 CURVE SMOOTH",
"338 -276 OFFCURVE",
"242 -244 OFFCURVE",
"168 -192 CURVE",
"104 -346 LINE",
"202 -402 OFFCURVE",
"306 -436 OFFCURVE",
"428 -436 CURVE SMOOTH"
);
},
{
closed = 1;
nodes = (
"300 904 LINE",
"832 904 LINE",
"832 1060 LINE",
"300 1060 LINE"
);
}
);
width = 1152;
}
);
unicode = 0237;
},
{
glyphname = k;
lastChange = "2022-02-04 03:47:09 +0000";
layers = (
{
anchors = (
{
name = bottom;
position = "{616, 0}";
},
{
name = top;
position = "{258, 1540}";
}
);
layerId = "AB099EFE-E788-4EFC-8633-CF147CB782A6";
paths = (
{
closed = 1;
nodes = (
"292 0 LINE",
"292 504 LINE",
"388 504 LINE",
"332 528 LINE",
"956 0 LINE",
"1046 0 LINE",
"396 552 LINE",
"396 516 LINE",
"1002 1048 LINE",
"912 1048 LINE",
"332 540 LINE",
"388 566 LINE",
"292 566 LINE",
"292 1540 LINE",
"232 1540 LINE",
"232 0 LINE"
);
}
);
width = 1152;
},
{
anchors = (
{
name = bottom;
position = "{584, 0}";
},
{
name = top;
position = "{278, 1540}";
}
);
layerId = "2D8F7115-C311-411E-929D-56333CF7FFB2";
paths = (
{
closed = 1;
nodes = (
"452 0 LINE",
"452 454 LINE",
"530 454 LINE",
"424 508 LINE",
"736 0 LINE",
"1148 0 LINE",
"682 668 LINE",
"682 462 LINE",
"1134 1082 LINE",
"722 1082 LINE",
"428 606 LINE",
"530 660 LINE",
"452 660 LINE",
"452 1540 LINE",
"96 1540 LINE",
"96 0 LINE"
);
}
);
width = 1152;
},
{
anchors = (
{
name = bottom;
position = "{604, 0}";
},
{
name = top;
position = "{274, 1516}";
}
);
layerId = "FD1CEFBD-BAB1-4C2A-A598-30E93F9A29F6";
paths = (
{
closed = 1;
nodes = (
"360 0 LINE",
"360 480 LINE",
"448 480 LINE",
"372 528 LINE",
"870 0 LINE",
"1092 0 LINE",
"520 602 LINE",
"520 508 LINE",
"1060 1060 LINE",
"838 1060 LINE",
"372 582 LINE",
"448 626 LINE",
"360 626 LINE",
"360 1540 LINE",
"188 1540 LINE",
"188 0 LINE"
);
}
);
width = 1152;
}
);
unicode = 006B;
},
{
glyphname = kgreenlandic;
lastChange = "2022-01-25 01:17:38 +0000";
layers = (
{
anchors = (
{
name = bottom;
position = "{586, 0}";
},
{
name = top;
position = "{586, 1048}";
}
);
layerId = "AB099EFE-E788-4EFC-8633-CF147CB782A6";
paths = (
{
closed = 1;
nodes = (
"292 0 LINE",
"292 504 LINE",
"386 504 LINE",
"330 528 LINE",
"956 0 LINE",
"1046 0 LINE",
"394 552 LINE",
"394 516 LINE",
"1002 1048 LINE",
"912 1048 LINE",
"330 540 LINE",
"386 566 LINE",
"292 566 LINE",
"292 1048 LINE",
"232 1048 LINE",
"232 0 LINE"
);
}
);
width = 1152;
},
{
anchors = (
{
name = bottom;
position = "{576, 0}";
},
{
name = top;
position = "{576, 1080}";
}
);
layerId = "2D8F7115-C311-411E-929D-56333CF7FFB2";
paths = (
{
closed = 1;
nodes = (
"448 0 LINE",
"448 454 LINE",
"528 454 LINE",
"422 508 LINE",
"752 0 LINE",
"1164 0 LINE",
"680 668 LINE",
"680 462 LINE",
"1148 1082 LINE",
"736 1082 LINE",
"426 606 LINE",
"528 660 LINE",
"448 660 LINE",
"448 1082 LINE",
"92 1082 LINE",
"92 0 LINE"
);
}
);
width = 1152;
},
{
anchors = (
{
name = bottom;
position = "{578, 0}";
},
{
name = top;
position = "{578, 1060}";
}
);
layerId = "FD1CEFBD-BAB1-4C2A-A598-30E93F9A29F6";
paths = (
{
closed = 1;
nodes = (
"348 0 LINE",
"348 458 LINE",
"436 458 LINE",
"358 508 LINE",
"874 0 LINE",
"1096 0 LINE",
"508 582 LINE",
"508 488 LINE",
"1060 1060 LINE",
"840 1060 LINE",
"358 562 LINE",
"436 606 LINE",
"348 606 LINE",
"348 1060 LINE",
"176 1060 LINE",
"176 0 LINE"
);
}
);
width = 1152;
}
);
leftMetricsKey = k;
rightMetricsKey = k;
unicode = 0138;
},
{
glyphname = l;
lastChange = "2022-02-06 23:39:03 +0000";
layers = (
{
anchors = (
{
name = bottom;
position = "{732, 0}";
},
{
name = center;
position = "{474, 738}";
},
{
name = dot;
position = "{822, 738}";
},
{
name = top;
position = "{454, 1540}";
},
{
name = topright;
position = "{496, 1540}";
}
);
layerId = "AB099EFE-E788-4EFC-8633-CF147CB782A6";
paths = (
{
closed = 1;
nodes = (
"872 -12 OFFCURVE",
"964 18 OFFCURVE",
"1052 66 CURVE",
"1028 120 LINE",
"954 76 OFFCURVE",
"854 44 OFFCURVE",
"768 44 CURVE SMOOTH",
"612 44 OFFCURVE",
"500 140 OFFCURVE",
"500 320 CURVE SMOOTH",
"500 1540 LINE",
"440 1540 LINE",
"440 326 LINE SMOOTH",
"440 88 OFFCURVE",
"588 -12 OFFCURVE",
"776 -12 CURVE SMOOTH"
);
}
);
width = 1152;
},
{
anchors = (
{
name = bottom;
position = "{620, 0}";
},
{
name = center;
position = "{408, 834}";
},
{
name = dot;
position = "{866, 760}";
},
{
name = top;
position = "{388, 1540}";
},
{
name = topright;
position = "{578, 1540}";
}
);
guideLines = (
{
angle = 100;
position = "{284, -12}";
}
);
layerId = "2D8F7115-C311-411E-929D-56333CF7FFB2";
paths = (
{
closed = 1;
nodes = (
"816 -16 OFFCURVE",
"958 18 OFFCURVE",
"1056 72 CURVE",
"938 352 LINE",
"886 308 OFFCURVE",
"818 286 OFFCURVE",
"758 286 CURVE SMOOTH",
"658 286 OFFCURVE",
"584 344 OFFCURVE",
"584 430 CURVE SMOOTH",
"584 1540 LINE",
"228 1540 LINE",
"228 430 LINE SMOOTH",
"228 166 OFFCURVE",
"422 -16 OFFCURVE",
"698 -16 CURVE SMOOTH"
);
}
);
width = 1152;
},
{
anchors = (
{
name = bottom;
position = "{672, 0}";
},
{
name = center;
position = "{436, 774}";
},
{
name = dot;
position = "{776, 746}";
},
{
name = top;
position = "{418, 1540}";
},
{
name = topright;
position = "{516, 1540}";
}
);
layerId = "FD1CEFBD-BAB1-4C2A-A598-30E93F9A29F6";
paths = (
{
closed = 1;
nodes = (
"824 -16 OFFCURVE",
"936 22 OFFCURVE",
"1024 78 CURVE",
"958 236 LINE",
"896 186 OFFCURVE",
"804 144 OFFCURVE",
"718 144 CURVE SMOOTH",
"594 144 OFFCURVE",
"520 230 OFFCURVE",
"520 352 CURVE SMOOTH",
"520 1540 LINE",
"348 1540 LINE",
"348 334 LINE SMOOTH",
"348 128 OFFCURVE",
"492 -16 OFFCURVE",
"714 -16 CURVE SMOOTH"
);
}
);
width = 1152;
}
);
unicode = 006C;
},
{
color = 4;
glyphname = l.ss01;
lastChange = "2022-02-14 06:52:24 +0000";
layers = (
{
anchors = (
{
name = bottom;
position = "{574, 0}";
},
{
name = center;
position = "{574, 738}";
},
{
name = dot;
position = "{892, 746}";
},
{
name = top;
position = "{574, 1540}";
},
{
name = topright;
position = "{604, 1540}";
}
);
layerId = "AB099EFE-E788-4EFC-8633-CF147CB782A6";
paths = (
{
closed = 1;
nodes = (
"604 0 LINE",
"604 1540 LINE",
"544 1540 LINE",
"544 0 LINE"
);
},
{
closed = 1;
nodes = (
"220 1484 LINE",
"604 1484 LINE",
"604 1540 LINE",
"220 1540 LINE"
);
},
{
closed = 1;
nodes = (
"220 0 LINE",
"928 0 LINE",
"928 56 LINE",
"220 56 LINE"
);
}
);
width = 1152;
},
{
anchors = (
{
name = bottom;
position = "{580, 0}";
},
{
name = center;
position = "{578, 786}";
},
{
name = dot;
position = "{1020, 754}";
},
{
name = top;
position = "{580, 1540}";
},
{
name = topright;
position = "{678, 1540}";
}
);
layerId = "2D8F7115-C311-411E-929D-56333CF7FFB2";
paths = (
{
closed = 1;
nodes = (
"756 0 LINE",
"756 1540 LINE",
"400 1540 LINE",
"400 0 LINE"
);
},
{
closed = 1;
nodes = (
"160 1240 LINE",
"756 1240 LINE",
"756 1540 LINE",
"160 1540 LINE"
);
},
{
closed = 1;
nodes = (
"160 0 LINE",
"996 0 LINE",
"996 300 LINE",
"160 300 LINE"
);
}
);
width = 1152;
},
{
anchors = (
{
name = bottom;
position = "{578, 0}";
},
{
name = center;
position = "{578, 758}";
},
{
name = dot;
position = "{914, 746}";
},
{
name = top;
position = "{578, 1540}";
},
{
name = topright;
position = "{664, 1540}";
}
);
layerId = "FD1CEFBD-BAB1-4C2A-A598-30E93F9A29F6";
paths = (
{
closed = 1;
nodes = (
"664 0 LINE",
"664 1540 LINE",
"492 1540 LINE",
"492 0 LINE"
);
},
{
closed = 1;
nodes = (
"196 1384 LINE",
"664 1384 LINE",
"664 1540 LINE",
"196 1540 LINE"
);
},
{
closed = 1;
nodes = (
"196 0 LINE",
"960 0 LINE",
"960 156 LINE",
"196 156 LINE"
);
}
);
width = 1152;
}
);
},
{
glyphname = l.ss03;
lastChange = "2022-02-06 23:54:39 +0000";
layers = (
{
anchors = (
{
name = bottom;
position = "{772, 0}";
},
{
name = center;
position = "{514, 738}";
},
{
name = dot;
position = "{862, 738}";
},
{
name = top;
position = "{494, 1540}";
},
{
name = topright;
position = "{536, 1540}";
}
);
layerId = "AB099EFE-E788-4EFC-8633-CF147CB782A6";
paths = (
{
closed = 1;
nodes = (
"912 -12 OFFCURVE",
"1004 18 OFFCURVE",
"1092 66 CURVE",
"1068 120 LINE",
"994 76 OFFCURVE",
"894 44 OFFCURVE",
"808 44 CURVE SMOOTH",
"652 44 OFFCURVE",
"540 140 OFFCURVE",
"540 320 CURVE SMOOTH",
"540 1540 LINE",
"480 1540 LINE",
"480 326 LINE SMOOTH",
"480 88 OFFCURVE",
"628 -12 OFFCURVE",
"816 -12 CURVE SMOOTH"
);
},
{
closed = 1;
nodes = (
"540 1484 LINE",
"540 1540 LINE",
"124 1540 LINE",
"124 1484 LINE"
);
}
);
width = 1152;
},
{
anchors = (
{
name = bottom;
position = "{664, 0}";
},
{
name = center;
position = "{468, 834}";
},
{
name = dot;
position = "{912, 760}";
},
{
name = top;
position = "{448, 1540}";
},
{
name = topright;
position = "{638, 1540}";
}
);
guideLines = (
{
angle = 100;
position = "{284, -12}";
}
);
layerId = "2D8F7115-C311-411E-929D-56333CF7FFB2";
paths = (
{
closed = 1;
nodes = (
"856 -16 OFFCURVE",
"988 18 OFFCURVE",
"1082 72 CURVE",
"966 352 LINE",
"917 308 OFFCURVE",
"860 286 OFFCURVE",
"804 286 CURVE SMOOTH",
"712 286 OFFCURVE",
"644 344 OFFCURVE",
"644 430 CURVE SMOOTH",
"644 1540 LINE",
"288 1540 LINE",
"288 430 LINE SMOOTH",
"288 166 OFFCURVE",
"476 -16 OFFCURVE",
"742 -16 CURVE SMOOTH"
);
},
{
closed = 1;
nodes = (
"644 1220 LINE",
"644 1540 LINE",
"44 1540 LINE",
"44 1220 LINE"
);
}
);
width = 1152;
},
{
anchors = (
{
name = bottom;
position = "{732, 0}";
},
{
name = center;
position = "{496, 774}";
},
{
name = dot;
position = "{836, 746}";
},
{
name = top;
position = "{478, 1540}";
},
{
name = topright;
position = "{576, 1540}";
}
);
layerId = "FD1CEFBD-BAB1-4C2A-A598-30E93F9A29F6";
paths = (
{
closed = 1;
nodes = (
"884 -16 OFFCURVE",
"994 20 OFFCURVE",
"1082 76 CURVE",
"1016 234 LINE",
"954 184 OFFCURVE",
"864 144 OFFCURVE",
"778 144 CURVE SMOOTH",
"654 144 OFFCURVE",
"580 230 OFFCURVE",
"580 352 CURVE SMOOTH",
"580 1540 LINE",
"408 1540 LINE",
"408 334 LINE SMOOTH",
"408 128 OFFCURVE",
"552 -16 OFFCURVE",
"774 -16 CURVE SMOOTH"
);
},
{
closed = 1;
nodes = (
"580 1384 LINE",
"580 1540 LINE",
"92 1540 LINE",
"92 1384 LINE"
);
}
);
width = 1152;
}
);
},
{
glyphname = lj;
lastChange = "2022-02-06 23:39:03 +0000";
layers = (
{
layerId = "AB099EFE-E788-4EFC-8633-CF147CB782A6";
paths = (
{
closed = 1;
nodes = (
"866 -436 OFFCURVE",
"968 -348 OFFCURVE",
"968 -164 CURVE SMOOTH",
"968 1048 LINE",
"908 1048 LINE",
"908 -170 LINE SMOOTH",
"908 -314 OFFCURVE",
"838 -380 OFFCURVE",
"748 -380 CURVE SMOOTH",
"688 -380 OFFCURVE",
"610 -350 OFFCURVE",
"558 -304 CURVE",
"534 -362 LINE",
"584 -404 OFFCURVE",
"674 -436 OFFCURVE",
"746 -436 CURVE SMOOTH"
);
},
{
closed = 1;
nodes = (
"536 -12 OFFCURVE",
"602 4 OFFCURVE",
"658 50 CURVE",
"634 104 LINE",
"594 66 OFFCURVE",
"530 44 OFFCURVE",
"480 44 CURVE SMOOTH",
"374 44 OFFCURVE",
"312 142 OFFCURVE",
"312 280 CURVE SMOOTH",
"312 1540 LINE",
"250 1540 LINE",
"250 286 LINE SMOOTH",
"250 90 OFFCURVE",
"344 -12 OFFCURVE",
"482 -12 CURVE SMOOTH"
);
},
{
closed = 1;
nodes = (
"968 992 LINE",
"968 1048 LINE",
"646 1048 LINE",
"646 992 LINE"
);
},
{
closed = 1;
nodes = (
"984 1258 OFFCURVE",
"1020 1294 OFFCURVE",
"1020 1344 CURVE SMOOTH",
"1020 1394 OFFCURVE",
"984 1430 OFFCURVE",
"936 1430 CURVE SMOOTH",
"888 1430 OFFCURVE",
"852 1394 OFFCURVE",
"852 1344 CURVE SMOOTH",
"852 1294 OFFCURVE",
"888 1258 OFFCURVE",
"936 1258 CURVE SMOOTH"
);
}
);
width = 1152;
},
{
layerId = "FD1CEFBD-BAB1-4C2A-A598-30E93F9A29F6";
paths = (
{
closed = 1;
nodes = (
"894 -436 OFFCURVE",
"1008 -313 OFFCURVE",
"1008 -134 CURVE SMOOTH",
"1008 1058 LINE",
"868 1058 LINE",
"868 -120 LINE SMOOTH",
"868 -222 OFFCURVE",
"807 -292 OFFCURVE",
"718 -292 CURVE SMOOTH",
"657 -292 OFFCURVE",
"578 -260 OFFCURVE",
"526 -214 CURVE",
"474 -348 LINE",
"537 -400 OFFCURVE",
"641 -436 OFFCURVE",
"728 -436 CURVE SMOOTH"
);
},
{
closed = 1;
nodes = (
"521 -16 OFFCURVE",
"600 17 OFFCURVE",
"644 50 CURVE",
"594 178 LINE",
"544 144 OFFCURVE",
"497 124 OFFCURVE",
"448 124 CURVE SMOOTH",
"374 124 OFFCURVE",
"322 182 OFFCURVE",
"322 286 CURVE SMOOTH",
"322 1540 LINE",
"182 1540 LINE",
"182 308 LINE SMOOTH",
"182 116 OFFCURVE",
"277 -16 OFFCURVE",
"440 -16 CURVE SMOOTH"
);
},
{
closed = 1;
nodes = (
"1008 912 LINE",
"1008 1060 LINE",
"626 1060 LINE",
"626 912 LINE"
);
},
{
closed = 1;
nodes = (
"1014 1242 OFFCURVE",
"1064 1296 OFFCURVE",
"1064 1366 CURVE SMOOTH",
"1064 1438 OFFCURVE",
"1012 1490 OFFCURVE",
"942 1490 CURVE SMOOTH",
"872 1490 OFFCURVE",
"818 1438 OFFCURVE",
"818 1366 CURVE SMOOTH",
"818 1296 OFFCURVE",
"870 1242 OFFCURVE",
"942 1242 CURVE SMOOTH"
);
}
);
width = 1152;
},
{
layerId = "2D8F7115-C311-411E-929D-56333CF7FFB2";
paths = (
{
closed = 1;
nodes = (
"934 -436 OFFCURVE",
"1072 -288 OFFCURVE",
"1072 -56 CURVE SMOOTH",
"1072 1080 LINE",
"808 1080 LINE",
"808 -56 LINE SMOOTH",
"808 -122 OFFCURVE",
"776 -168 OFFCURVE",
"718 -168 CURVE SMOOTH",
"672 -168 OFFCURVE",
"598 -138 OFFCURVE",
"544 -100 CURVE",
"460 -352 LINE",
"538 -406 OFFCURVE",
"638 -436 OFFCURVE",
"730 -436 CURVE SMOOTH"
);
},
{
closed = 1;
nodes = (
"520 -16 OFFCURVE",
"578 -2 OFFCURVE",
"654 34 CURVE",
"572 296 LINE",
"542 280 OFFCURVE",
"514 272 OFFCURVE",
"490 272 CURVE SMOOTH",
"446 272 OFFCURVE",
"414 300 OFFCURVE",
"414 342 CURVE SMOOTH",
"414 1540 LINE",
"150 1540 LINE",
"150 310 LINE SMOOTH",
"150 112 OFFCURVE",
"280 -16 OFFCURVE",
"460 -16 CURVE SMOOTH"
);
},
{
closed = 1;
nodes = (
"1072 808 LINE",
"1072 1080 LINE",
"608 1080 LINE",
"608 808 LINE"
);
},
{
closed = 1;
nodes = (
"1034 1200 OFFCURVE",
"1104 1274 OFFCURVE",
"1104 1388 CURVE SMOOTH",
"1104 1502 OFFCURVE",
"1034 1576 OFFCURVE",
"924 1576 CURVE SMOOTH",
"816 1576 OFFCURVE",
"744 1502 OFFCURVE",
"744 1388 CURVE SMOOTH",
"744 1274 OFFCURVE",
"816 1200 OFFCURVE",
"924 1200 CURVE SMOOTH"
);
}
);
width = 1152;
}
);
unicode = 01C9;
},
{
color = 4;
glyphname = lj.ss01;
lastChange = "2022-02-04 05:04:30 +0000";
layers = (
{
layerId = "AB099EFE-E788-4EFC-8633-CF147CB782A6";
paths = (
{
closed = 1;
nodes = (
"866 -436 OFFCURVE",
"968 -348 OFFCURVE",
"968 -164 CURVE SMOOTH",
"968 1048 LINE",
"908 1048 LINE",
"908 -170 LINE SMOOTH",
"908 -314 OFFCURVE",
"838 -380 OFFCURVE",
"748 -380 CURVE SMOOTH",
"688 -380 OFFCURVE",
"610 -350 OFFCURVE",
"558 -304 CURVE",
"534 -362 LINE",
"584 -404 OFFCURVE",
"674 -436 OFFCURVE",
"746 -436 CURVE SMOOTH"
);
},
{
closed = 1;
nodes = (
"380 0 LINE",
"380 1540 LINE",
"318 1540 LINE",
"318 0 LINE"
);
},
{
closed = 1;
nodes = (
"380 1484 LINE",
"380 1540 LINE",
"94 1540 LINE",
"94 1484 LINE"
);
},
{
closed = 1;
nodes = (
"968 992 LINE",
"968 1048 LINE",
"646 1048 LINE",
"646 992 LINE"
);
},
{
closed = 1;
nodes = (
"984 1258 OFFCURVE",
"1020 1294 OFFCURVE",
"1020 1344 CURVE SMOOTH",
"1020 1394 OFFCURVE",
"984 1430 OFFCURVE",
"936 1430 CURVE SMOOTH",
"888 1430 OFFCURVE",
"852 1394 OFFCURVE",
"852 1344 CURVE SMOOTH",
"852 1294 OFFCURVE",
"888 1258 OFFCURVE",
"936 1258 CURVE SMOOTH"
);
},
{
closed = 1;
nodes = (
"604 0 LINE",
"604 56 LINE",
"94 56 LINE",
"94 0 LINE"
);
}
);
width = 1152;
},
{
layerId = "2D8F7115-C311-411E-929D-56333CF7FFB2";
paths = (
{
closed = 1;
nodes = (
"934 -436 OFFCURVE",
"1072 -288 OFFCURVE",
"1072 -56 CURVE SMOOTH",
"1072 1080 LINE",
"808 1080 LINE",
"808 -56 LINE SMOOTH",
"808 -146 OFFCURVE",
"774 -168 OFFCURVE",
"722 -168 CURVE SMOOTH",
"662 -168 OFFCURVE",
"601 -140 OFFCURVE",
"544 -100 CURVE",
"460 -352 LINE",
"534 -404 OFFCURVE",
"639 -436 OFFCURVE",
"726 -436 CURVE SMOOTH"
);
},
{
closed = 1;
nodes = (
"468 0 LINE",
"468 1540 LINE",
"204 1540 LINE",
"204 0 LINE"
);
},
{
closed = 1;
nodes = (
"468 1268 LINE",
"468 1540 LINE",
"32 1540 LINE",
"32 1268 LINE"
);
},
{
closed = 1;
nodes = (
"1072 808 LINE",
"1072 1080 LINE",
"608 1080 LINE",
"608 808 LINE"
);
},
{
closed = 1;
nodes = (
"1034 1200 OFFCURVE",
"1104 1274 OFFCURVE",
"1104 1388 CURVE SMOOTH",
"1104 1502 OFFCURVE",
"1034 1576 OFFCURVE",
"924 1576 CURVE SMOOTH",
"816 1576 OFFCURVE",
"744 1502 OFFCURVE",
"744 1388 CURVE SMOOTH",
"744 1274 OFFCURVE",
"816 1200 OFFCURVE",
"924 1200 CURVE SMOOTH"
);
},
{
closed = 1;
nodes = (
"648 0 LINE",
"648 272 LINE",
"32 272 LINE",
"32 0 LINE"
);
}
);
width = 1152;
},
{
layerId = "FD1CEFBD-BAB1-4C2A-A598-30E93F9A29F6";
paths = (
{
closed = 1;
nodes = (
"894 -436 OFFCURVE",
"1008 -313 OFFCURVE",
"1008 -134 CURVE SMOOTH",
"1008 1058 LINE",
"868 1058 LINE",
"868 -120 LINE SMOOTH",
"868 -222 OFFCURVE",
"807 -292 OFFCURVE",
"718 -292 CURVE SMOOTH",
"657 -292 OFFCURVE",
"578 -260 OFFCURVE",
"526 -214 CURVE",
"474 -348 LINE",
"537 -400 OFFCURVE",
"641 -436 OFFCURVE",
"728 -436 CURVE SMOOTH"
);
},
{
closed = 1;
nodes = (
"386 0 LINE",
"386 1540 LINE",
"246 1540 LINE",
"246 0 LINE"
);
},
{
closed = 1;
nodes = (
"386 1392 LINE",
"386 1540 LINE",
"52 1540 LINE",
"52 1392 LINE"
);
},
{
closed = 1;
nodes = (
"1008 912 LINE",
"1008 1060 LINE",
"626 1060 LINE",
"626 912 LINE"
);
},
{
closed = 1;
nodes = (
"1014 1242 OFFCURVE",
"1064 1296 OFFCURVE",
"1064 1366 CURVE SMOOTH",
"1064 1438 OFFCURVE",
"1012 1490 OFFCURVE",
"942 1490 CURVE SMOOTH",
"872 1490 OFFCURVE",
"818 1438 OFFCURVE",
"818 1366 CURVE SMOOTH",
"818 1296 OFFCURVE",
"870 1242 OFFCURVE",
"942 1242 CURVE SMOOTH"
);
},
{
closed = 1;
nodes = (
"582 0 LINE",
"582 148 LINE",
"52 148 LINE",
"52 0 LINE"
);
}
);
width = 1152;
}
);
leftKerningGroup = LAT_H_UC;
rightKerningGroup = LAT_J_LC;
},
